SplineFontDB: 3.0
FontName: Gothica-Bold
FullName: Gothica Bold
FamilyName: Gothica
Weight: Bold
Copyright: Copyright (c) 2020-2024 by Wojciech Kalinowski "wmk69" with Reserved Font Name "Gothica-Bold".\nThis Font Software is licensed under the SIL Open Font License, Version 1.1.
Version: 2.1.0; 2021-05-14
ItalicAngle: 0
UnderlinePosition: -80
UnderlineWidth: 320
Ascent: 1638
Descent: 410
InvalidEm: 0
LayerCount: 2
Layer: 0 1 "Warstwa t+AUIA-a" 1
Layer: 1 1 "Plan pierwszy" 0
XUID: [1021 783 23647091 8360855]
StyleMap: 0x0020
FSType: 0
OS2Version: 3
OS2_WeightWidthSlopeOnly: 0
OS2_UseTypoMetrics: 1
CreationTime: 1260698820
ModificationTime: 1621007313
PfmFamily: 33
TTFWeight: 700
TTFWidth: 5
LineGap: 250
VLineGap: 0
Panose: 2 12 8 4 5 5 3 6 6 4
OS2TypoAscent: 2000
OS2TypoAOffset: 0
OS2TypoDescent: -500
OS2TypoDOffset: 0
OS2TypoLinegap: 250
OS2WinAscent: 2000
OS2WinAOffset: 0
OS2WinDescent: 500
OS2WinDOffset: 0
HheadAscent: 2000
HheadAOffset: 0
HheadDescent: -500
HheadDOffset: 0
OS2SubXSize: 1434
OS2SubYSize: 1331
OS2SubXOff: 0
OS2SubYOff: 287
OS2SupXSize: 1434
OS2SupYSize: 1331
OS2SupXOff: 0
OS2SupYOff: 977
OS2StrikeYSize: 102
OS2StrikeYPos: 512
OS2CapHeight: 1550
OS2XHeight: 1140
OS2Vendor: '    '
OS2CodePages: 20000093.00000000
OS2UnicodeRanges: 8000002f.4000204b.00000000.00000000
Lookup: 258 0 0 "'kern' Horizontal Kerning lookup 0" { "'kern' Horizontal Kerning lookup 0-1 subtable" [307,0,4] } ['kern' ('DFLT' <'dflt' > 'grek' <'dflt' > 'latn' <'dflt' > ) ]
MarkAttachClasses: 1
DEI: 91125
KernClass2: 66 52 "'kern' Horizontal Kerning lookup 0-1 subtable"
 185 H I U Igrave Iacute Icircumflex Idieresis Ugrave Uacute Ucircumflex Udieresis Hcircumflex Hbar Itilde Imacron Ibreve Iogonek Idotaccent Utilde Umacron Ubreve Uring Uhungarumlaut Uogonek
 84 A Agrave Aacute Acircumflex Atilde Adieresis Aring Amacron Abreve Aogonek Aringacute
 9 B uni1E02
 47 C Ccedilla Cacute Ccircumflex Cdotaccent Ccaron
 44 G Gcircumflex Gbreve Gdotaccent Gcommaaccent

StartChar: .notdef
Encoding: 65536 -1 0
Width: 974
Flags: W
HStem: 0 118<268 706> 1392 118<268 706>
VStem: 80 188<118 1392> 706 188<118 1392>
LayerCount: 2
Fore
SplineSet
80 0 m 1,0,-1
 80 1510 l 1,1,-1
 894 1510 l 1,2,-1
 894 0 l 1,3,-1
 80 0 l 1,0,-1
268 118 m 1,4,-1
 706 118 l 1,5,-1
 706 1392 l 1,6,-1
 268 1392 l 1,7,-1
 268 118 l 1,4,-1
EndSplineSet
Validated: 1
EndChar

StartChar: exclam
Encoding: 33 33 4
Width: 579
GlyphClass: 2
Flags: W
HStem: -20 21G<262.5 285.5> 1530 20G<426.087 460>
VStem: 106 367<88.9062 242.492> 160 258<545 672.821>
LayerCount: 2
Fore
SplineSet
450 1550 m 1,0,-1
 460 1550 l 1,1,-1
 418 545 l 1,2,-1
 170 337 l 1,3,-1
 160 337 l 1,4,-1
 120 1274 l 1,5,-1
 450 1550 l 1,0,-1
272 -20 m 0,6,7
 253 -20 253 -20 229 -11 c 0,8,9
 182 7 182 7 149 50 c 0,10,11
 106 106 106 106 106 164 c 0,12,13
 106 207 106 207 140 235 c 2,14,-1
 256 332 l 2,15,16
 281 353 281 353 308 353 c 0,17,18
 327 353 327 353 350 344 c 0,19,20
 399 325 399 325 430 283 c 0,21,22
 473 227 473 227 473 169 c 0,23,24
 473 126 473 126 439 98 c 2,25,-1
 324 1 l 2,26,27
 299 -20 299 -20 272 -20 c 0,6,7
EndSplineSet
Validated: 1
EndChar

StartChar: quotedbl
Encoding: 34 34 5
Width: 557
GlyphClass: 2
Flags: W
HStem: 925 625
VStem: 20 215<1097 1378> 322 215<1097 1378>
LayerCount: 2
Fore
SplineSet
527 1550 m 1,0,-1
 537 1550 l 1,1,-1
 537 1097 l 1,2,-1
 332 925 l 1,3,-1
 322 925 l 1,4,-1
 322 1378 l 1,5,-1
 527 1550 l 1,0,-1
225 1550 m 1,6,-1
 235 1550 l 1,7,-1
 235 1097 l 1,8,-1
 30 925 l 1,9,-1
 20 925 l 1,10,-1
 20 1378 l 1,11,-1
 225 1550 l 1,6,-1
EndSplineSet
Validated: 19457
EndChar

StartChar: numbersign
Encoding: 35 35 6
Width: 1348
GlyphClass: 2
Flags: W
HStem: 498 190<230 416 606 742 932 1118> 824 190<230 416 606 742 932 1118>
VStem: 416 190<312 498 688 824 1014 1199> 742 190<312 498 688 824 1014 1199>
LayerCount: 2
Fore
SplineSet
596 1350 m 1,0,-1
 606 1350 l 1,1,-1
 606 1014 l 1,2,-1
 742 1014 l 1,3,-1
 742 1199 l 1,4,-1
 922 1350 l 1,5,-1
 932 1350 l 1,6,-1
 932 1014 l 1,7,-1
 1268 1014 l 1,8,-1
 1268 1004 l 1,9,-1
 1118 824 l 1,10,-1
 932 824 l 1,11,-1
 932 688 l 1,12,-1
 1268 688 l 1,13,-1
 1268 678 l 1,14,-1
 1118 498 l 1,15,-1
 932 498 l 1,16,-1
 932 312 l 1,17,-1
 752 161 l 1,18,-1
 742 161 l 1,19,-1
 742 498 l 1,20,-1
 606 498 l 1,21,-1
 606 312 l 1,22,-1
 426 161 l 1,23,-1
 416 161 l 1,24,-1
 416 498 l 1,25,-1
 80 498 l 1,26,-1
 80 508 l 1,27,-1
 230 688 l 1,28,-1
 416 688 l 1,29,-1
 416 824 l 1,30,-1
 80 824 l 1,31,-1
 80 834 l 1,32,-1
 230 1014 l 1,33,-1
 416 1014 l 1,34,-1
 416 1199 l 1,35,-1
 596 1350 l 1,0,-1
742 688 m 1,36,-1
 742 824 l 1,37,-1
 606 824 l 1,38,-1
 606 688 l 1,39,-1
 742 688 l 1,36,-1
EndSplineSet
Validated: 1
EndChar

StartChar: dollar
Encoding: 36 36 7
Width: 1273
GlyphClass: 2
Flags: W
HStem: 663 321<490.062 586 686 830.531>
VStem: 153 303<1019.64 1177.94> 586 100<-64 -20 286 663 990 1226 1529 1574> 880 313<402.175 614.618>
LayerCount: 2
Fore
SplineSet
586 -20 m 1,0,1
 353 -14 353 -14 198 159 c 0,2,3
 111 256 111 256 80 380 c 1,4,-1
 378 629 l 1,5,-1
 388 629 l 1,6,-1
 388 529 l 2,7,8
 388 420 388 420 459 350 c 0,9,10
 514 296 514 296 586 284 c 1,11,-1
 586 666 l 1,12,13
 382 677 382 677 275 771 c 0,14,15
 153 878 153 878 153 1042 c 0,16,17
 153 1151 153 1151 248 1231 c 2,18,-1
 548 1483 l 2,19,20
 567 1499 567 1499 586 1509 c 1,21,-1
 586 1574 l 1,22,-1
 676 1650 l 1,23,-1
 686 1650 l 1,24,-1
 686 1529 l 1,25,26
 728 1527 728 1527 748 1522 c 0,27,28
 879 1492 879 1492 965 1410 c 0,29,30
 1040 1338 1040 1338 1072 1243 c 1,31,-1
 806 1020 l 1,32,-1
 796 1020 l 1,33,-1
 796 1067 l 2,34,35
 796 1149 796 1149 747 1192 c 0,36,37
 719 1216 719 1216 686 1226 c 1,38,-1
 686 984 l 1,39,40
 936 982 936 982 1066 852 c 0,41,42
 1193 725 1193 725 1193 526 c 0,43,44
 1193 474 1193 474 1171 434 c 0,45,46
 1150 396 1150 396 1098 352 c 2,47,-1
 686 5 l 17,48,-1
 686 -64 l 1,49,-1
 596 -140 l 1,50,-1
 586 -140 l 1,51,-1
 586 -20 l 1,0,1
586 990 m 1,52,-1
 586 1230 l 1,53,54
 550 1223 550 1223 518 1202 c 0,55,56
 456 1162 456 1162 456 1099.5 c 128,-1,57
 456 1037 456 1037 516 1009 c 0,58,59
 544 996 544 996 586 990 c 1,52,-1
686 663 m 1,60,-1
 686 286 l 1,61,62
 757 301 757 301 812 357 c 0,63,64
 880 427 880 427 880 512 c 0,65,66
 880 650 880 650 686 663 c 1,60,-1
EndSplineSet
Validated: 1
EndChar

StartChar: percent
Encoding: 37 37 8
Width: 1561
GlyphClass: 2
Flags: W
HStem: -40 21G<229.133 272.783> -20 208<995.9 1182.27> 495 207<1027.62 1207.78> 808 208<348.9 535.272> 1323 207<380.62 560.785> 1530 20G<1291.12 1335.25>
VStem: 80 228<1055.53 1267.95> 605 229<1068.13 1281.21> 727 228<227.527 439.953> 1252 229<240.127 453.206>
DStem2: 106 126 256 -40 0.642815 0.766021<0 1836.05>
LayerCount: 2
Fore
SplineSet
1082 -20 m 0,0,1
 1040 -20 1040 -20 1011 -13 c 0,2,3
 904 11 904 11 835 77 c 0,4,5
 727 180 727 180 727 333 c 0,6,7
 727 374 727 374 748 409 c 0,8,9
 766 439 766 439 805 472 c 2,10,-1
 1036 665 l 2,11,12
 1080 702 1080 702 1127 702 c 0,13,14
 1169 702 1169 702 1199 695 c 0,15,16
 1305 671 1305 671 1374 605 c 0,17,18
 1481 503 1481 503 1481 351 c 24,19,20
 1481 305 1481 305 1462 273 c 0,21,22
 1445 244 1445 244 1404 210 c 2,23,-1
 1174 17 l 2,24,25
 1130 -20 1130 -20 1082 -20 c 0,0,1
1103.5 188 m 128,-1,27
 1170 188 1170 188 1212 230 c 0,28,29
 1252 270 1252 270 1252 340 c 128,-1,30
 1252 410 1252 410 1208 454 c 0,31,32
 1167 495 1167 495 1103 495 c 0,33,34
 1044 495 1044 495 998 452 c 0,35,36
 955 412 955 412 955 342 c 0,37,38
 955 269 955 269 996 228.5 c 128,-1,26
 1037 188 1037 188 1103.5 188 c 128,-1,27
480 1530 m 0,39,40
 522 1530 522 1530 552 1523 c 0,41,42
 658 1499 658 1499 727 1433 c 0,43,44
 834 1331 834 1331 834 1179 c 24,45,46
 834 1133 834 1133 815 1101 c 0,47,48
 798 1072 798 1072 757 1038 c 2,49,-1
 527 845 l 2,50,51
 483 808 483 808 435 808 c 0,52,53
 393 808 393 808 364 815 c 0,54,55
 257 839 257 839 188 905 c 0,56,57
 80 1008 80 1008 80 1161 c 0,58,59
 80 1202 80 1202 101 1237 c 0,60,61
 119 1267 119 1267 158 1300 c 2,62,-1
 389 1493 l 2,63,64
 433 1530 433 1530 480 1530 c 0,39,40
456 1323 m 0,65,66
 397 1323 397 1323 351 1280 c 0,67,68
 308 1240 308 1240 308 1170 c 0,69,70
 308 1097 308 1097 349 1056.5 c 128,-1,71
 390 1016 390 1016 456.5 1016 c 128,-1,72
 523 1016 523 1016 565 1058 c 0,73,74
 605 1098 605 1098 605 1168 c 128,-1,75
 605 1238 605 1238 561 1282 c 0,76,77
 520 1323 520 1323 456 1323 c 0,65,66
256 -40 m 1,78,-1
 246 -40 l 1,79,-1
 106 126 l 1,80,-1
 1308 1550 l 1,81,-1
 1318 1550 l 1,82,-1
 1456 1390 l 1,83,-1
 256 -40 l 1,78,-1
EndSplineSet
Validated: 1
EndChar

StartChar: ampersand
Encoding: 38 38 9
Width: 1448
GlyphClass: 2
Flags: W
HStem: -40 21G<1235.81 1287.77> -20 300<483.797 703.938> 1257 274<544.907 734.177>
VStem: 70 326<366.707 570.893> 160 310<1011.51 1193.91> 1029 315<554.568 808>
DStem2: 626 968 582 699 0.677789 -0.735257<144.043 564.047 774.2 1166.79>
LayerCount: 2
Fore
SplineSet
599 -20 m 0,0,1
 348 -20 348 -20 193 151 c 0,2,3
 70 286 70 286 70 465 c 0,4,5
 70 525 70 525 98 554 c 0,6,7
 142 600 142 600 167 621 c 2,8,-1
 352 777 l 1,9,10
 314 799 314 799 289 817 c 0,11,12
 160 907 160 907 160 1086 c 0,13,14
 160 1140 160 1140 190 1177 c 0,15,16
 216 1209 216 1209 255 1242 c 2,17,-1
 541 1483 l 2,18,19
 598 1531 598 1531 654 1531 c 0,20,21
 700 1531 700 1531 742 1522 c 0,22,23
 881 1492 881 1492 967 1410 c 0,24,25
 1031 1349 1031 1349 1058 1267 c 1,26,-1
 792 1044 l 1,27,-1
 782 1044 l 1,28,-1
 782 1091 l 2,29,30
 782 1170 782 1170 733 1216 c 0,31,32
 689 1257 689 1257 626 1257 c 128,-1,33
 563 1257 563 1257 519 1218 c 0,34,35
 470 1175 470 1175 470 1112 c 0,36,37
 470 1050 470 1050 519 1007 c 0,38,39
 563 968 563 968 626 968 c 1,40,-1
 1008 553 l 1,41,42
 1029 603 1029 603 1029 674 c 2,43,-1
 1029 808 l 1,44,-1
 1334 1064 l 1,45,-1
 1344 1064 l 1,46,-1
 1344 668 l 2,47,48
 1344 613 1344 613 1326 574 c 0,49,50
 1305 528 1305 528 1249 481 c 2,51,-1
 1151 399 l 1,52,-1
 1428 98 l 1,53,-1
 1264 -40 l 1,54,-1
 1254 -40 l 1,55,-1
 983 258 l 1,56,-1
 707 27 l 2,57,58
 651 -20 651 -20 599 -20 c 0,0,1
582 699 m 1,59,60
 510 688 510 688 460 641 c 0,61,62
 396 581 396 581 396 492 c 0,63,64
 396 407 396 407 460 343 c 0,65,66
 524 280 524 280 628 280 c 0,67,68
 724 280 724 280 794 341 c 2,69,-1
 857 396 l 1,70,-1
 582 699 l 1,59,60
EndSplineSet
Validated: 1
EndChar

StartChar: quotesingle
Encoding: 39 39 10
Width: 255
GlyphClass: 2
Flags: W
HStem: 925 625
VStem: 20 215<1097 1378>
LayerCount: 2
Fore
SplineSet
225 1550 m 1,0,-1
 235 1550 l 1,1,-1
 235 1097 l 1,2,-1
 30 925 l 1,3,-1
 20 925 l 1,4,-1
 20 1378 l 1,5,-1
 225 1550 l 1,0,-1
EndSplineSet
Validated: 19457
EndChar

StartChar: parenleft
Encoding: 40 40 11
Width: 818
GlyphClass: 2
Flags: W
HStem: -240 300<554.411 696>
VStem: 130 320<165.119 1327.2>
LayerCount: 2
Fore
SplineSet
813 1743 m 1,0,-1
 694 1450 l 1,1,2
 595 1450 595 1450 522.5 1378 c 128,-1,3
 450 1306 450 1306 450 1201 c 2,4,-1
 450 309 l 2,5,6
 450 200 450 200 523.5 130 c 128,-1,7
 597 60 597 60 696 60 c 1,8,-1
 777 -194 l 17,9,10
 722 -240 722 -240 670 -240 c 0,11,12
 428 -240 428 -240 265 -61 c 0,13,14
 130 87 130 87 130 309 c 2,15,-1
 130 1190 l 2,16,17
 130 1252 130 1252 152 1296 c 0,18,19
 170 1332 170 1332 225 1378 c 2,20,-1
 613 1704 l 2,21,22
 668 1750 668 1750 720 1750 c 0,23,24
 768 1750 768 1750 813 1743 c 1,0,-1
EndSplineSet
Validated: 1
EndChar

StartChar: parenright
Encoding: 41 41 12
Width: 818
GlyphClass: 2
Flags: W
HStem: 1450 300<122 263.589>
VStem: 368 320<182.803 1344.88>
LayerCount: 2
Fore
SplineSet
5 -233 m 1,0,-1
 124 60 l 1,1,2
 223 60 223 60 295.5 132 c 128,-1,3
 368 204 368 204 368 309 c 2,4,-1
 368 1201 l 2,5,6
 368 1310 368 1310 294.5 1380 c 128,-1,7
 221 1450 221 1450 122 1450 c 1,8,-1
 41 1704 l 17,9,10
 96 1750 96 1750 148 1750 c 0,11,12
 390 1750 390 1750 553 1571 c 0,13,14
 688 1423 688 1423 688 1201 c 2,15,-1
 688 320 l 2,16,17
 688 258 688 258 666 214 c 0,18,19
 648 178 648 178 593 132 c 2,20,-1
 205 -194 l 2,21,22
 150 -240 150 -240 98 -240 c 0,23,24
 50 -240 50 -240 5 -233 c 1,0,-1
EndSplineSet
Validated: 1
EndChar

StartChar: asterisk
Encoding: 42 42 13
Width: 1086
GlyphClass: 2
Flags: W
HStem: 1530 20G<604.159 638>
VStem: 448 190<742 906 1235 1399>
DStem2: 80 913 306 824 0.866103 0.499865<151.251 314.925 644.544 808.218> 175 1393 211 1152 0.866103 -0.499865<151.647 315.425 644.44 808.218>
LayerCount: 2
Fore
SplineSet
628 1550 m 1,0,-1
 638 1550 l 1,1,-1
 638 1235 l 1,2,-1
 780 1317 l 1,3,-1
 1001 1237 l 1,4,-1
 1006 1228 l 1,5,-1
 733 1071 l 1,6,-1
 875 989 l 1,7,-1
 916 757 l 1,8,-1
 911 748 l 1,9,-1
 638 906 l 1,10,-1
 638 742 l 1,11,-1
 458 591 l 1,12,-1
 448 591 l 1,13,-1
 448 906 l 1,14,-1
 306 824 l 1,15,-1
 85 904 l 1,16,-1
 80 913 l 1,17,-1
 353 1070 l 1,18,-1
 211 1152 l 1,19,-1
 170 1384 l 1,20,-1
 175 1393 l 1,21,-1
 448 1235 l 1,22,-1
 448 1399 l 1,23,-1
 628 1550 l 1,0,-1
EndSplineSet
Validated: 1
EndChar

StartChar: plus
Encoding: 43 43 14
Width: 1194
GlyphClass: 2
Flags: W
HStem: 630 250<281 472 722 913>
VStem: 472 250<439 630 880 1071>
LayerCount: 2
Fore
SplineSet
712 1272 m 1,0,-1
 722 1272 l 1,1,-1
 722 880 l 1,2,-1
 1114 880 l 1,3,-1
 1114 870 l 1,4,-1
 913 630 l 1,5,-1
 722 630 l 1,6,-1
 722 439 l 1,7,-1
 482 238 l 1,8,-1
 472 238 l 1,9,-1
 472 630 l 1,10,-1
 80 630 l 1,11,-1
 80 640 l 1,12,-1
 281 880 l 1,13,-1
 472 880 l 1,14,-1
 472 1071 l 1,15,-1
 712 1272 l 1,0,-1
EndSplineSet
Validated: 1
EndChar

StartChar: comma
Encoding: 44 44 15
Width: 452
GlyphClass: 2
Flags: W
HStem: -313 593
VStem: 170 262<-121.307 126.598>
LayerCount: 2
Fore
SplineSet
282 280 m 1,0,-1
 292 280 l 1,1,2
 432 181 432 181 432 35 c 0,3,4
 432 -172 432 -172 161 -313 c 1,5,-1
 151 -313 l 1,6,-1
 20 -203 l 1,7,8
 170 -146 170 -146 170 -21 c 0,9,10
 170 68 170 68 65 98 c 1,11,-1
 282 280 l 1,0,-1
EndSplineSet
Validated: 19457
EndChar

StartChar: hyphen
Encoding: 45 45 16
Width: 1194
GlyphClass: 2
Flags: W
HStem: 630 250<281 913>
LayerCount: 2
Fore
SplineSet
281 880 m 1,0,-1
 1114 880 l 1,1,-1
 1114 870 l 1,2,-1
 913 630 l 1,3,-1
 80 630 l 1,4,-1
 80 640 l 1,5,-1
 281 880 l 1,0,-1
EndSplineSet
Validated: 1
EndChar

StartChar: period
Encoding: 46 46 17
Width: 407
GlyphClass: 2
Flags: W
HStem: -20 373<142.812 264.953>
VStem: 20 367<88.9062 242.492>
LayerCount: 2
Fore
SplineSet
186 -20 m 0,0,1
 167 -20 167 -20 143 -11 c 0,2,3
 96 7 96 7 63 50 c 0,4,5
 20 106 20 106 20 164 c 0,6,7
 20 207 20 207 54 235 c 2,8,-1
 170 332 l 2,9,10
 195 353 195 353 222 353 c 0,11,12
 241 353 241 353 264 344 c 0,13,14
 313 325 313 325 344 283 c 0,15,16
 387 227 387 227 387 169 c 0,17,18
 387 126 387 126 353 98 c 2,19,-1
 238 1 l 2,20,21
 213 -20 213 -20 186 -20 c 0,0,1
EndSplineSet
Validated: 19457
EndChar

StartChar: slash
Encoding: 47 47 18
Width: 1077
GlyphClass: 2
Flags: W
DStem2: 5 -66 222 -240 0.423923 0.905698<0 1939.48>
LayerCount: 2
Fore
SplineSet
865 1750 m 1,0,-1
 1072 1576 l 1,1,-1
 222 -240 l 1,2,-1
 212 -240 l 1,3,-1
 5 -66 l 1,4,-1
 855 1750 l 1,5,-1
 865 1750 l 1,0,-1
EndSplineSet
Validated: 1
EndChar

StartChar: zero
Encoding: 48 48 19
Width: 1330
GlyphClass: 2
Flags: W
HStem: -20 300<524.174 745.048> 1230 300<584.952 802.702>
VStem: 100 320<385.119 1107.2> 910 320<402.803 1123.98>
LayerCount: 2
Fore
SplineSet
910 529 m 2,0,-1
 910 981 l 2,1,2
 910 1090 910 1090 836.5 1160 c 128,-1,3
 763 1230 763 1230 664 1230 c 128,-1,4
 565 1230 565 1230 492.5 1158 c 128,-1,5
 420 1086 420 1086 420 981 c 2,6,-1
 420 529 l 2,7,8
 420 420 420 420 493.5 350 c 128,-1,9
 567 280 567 280 666 280 c 128,-1,10
 765 280 765 280 837.5 352 c 128,-1,11
 910 424 910 424 910 529 c 2,0,-1
640 -20 m 0,12,13
 398 -20 398 -20 235 159 c 0,14,15
 100 307 100 307 100 529 c 2,16,-1
 100 970 l 2,17,18
 100 1032 100 1032 122 1076 c 0,19,20
 140 1112 140 1112 195 1158 c 2,21,-1
 583 1484 l 2,22,23
 638 1530 638 1530 690 1530 c 0,24,25
 934 1530 934 1530 1095 1351 c 0,26,27
 1230 1201 1230 1201 1230 981 c 2,28,-1
 1230 540 l 2,29,30
 1230 478 1230 478 1208 434 c 0,31,32
 1190 398 1190 398 1135 352 c 2,33,-1
 747 26 l 2,34,35
 692 -20 692 -20 640 -20 c 0,12,13
EndSplineSet
Validated: 1
EndChar

StartChar: one
Encoding: 49 49 20
Width: 699
GlyphClass: 2
Flags: W
HStem: -40 21G<254 287.828> 853 237<10 247> 1530 20G<535.13 569>
VStem: 254 315<216 1049>
LayerCount: 2
Fore
SplineSet
254 -40 m 1,0,-1
 254 1049 l 1,1,-1
 10 853 l 1,2,-1
 10 1090 l 1,3,-1
 559 1550 l 1,4,-1
 569 1550 l 1,5,-1
 569 216 l 1,6,-1
 264 -40 l 1,7,-1
 254 -40 l 1,0,-1
EndSplineSet
Validated: 1
EndChar

StartChar: two
Encoding: 50 50 21
Width: 1282
GlyphClass: 2
Flags: W
HStem: 0 220<446 1026> 1230 300<566.965 790.725>
VStem: 92 320<819.01 1116.18> 882 320<860.804 1141.99>
LayerCount: 2
Fore
SplineSet
60 0 m 1,0,-1
 60 10 l 1,1,2
 293 520 293 520 709 752 c 0,3,4
 882 848 882 848 882 999 c 8,5,6
 882 1104 882 1104 814.5 1167 c 128,-1,7
 747 1230 747 1230 648 1230 c 128,-1,8
 549 1230 549 1230 480.5 1169 c 128,-1,9
 412 1108 412 1108 412 999 c 0,10,11
 412 906 412 906 463 847 c 1,12,-1
 232 652 l 1,13,-1
 222 652 l 1,14,15
 92 795 92 795 92 999 c 0,16,17
 92 1043 92 1043 114 1084 c 0,18,19
 135 1122 135 1122 187 1166 c 2,20,-1
 565 1484 l 2,21,22
 620 1530 620 1530 672 1530 c 0,23,24
 916 1530 916 1530 1077 1351 c 0,25,26
 1202 1211 1202 1211 1202 999 c 0,27,28
 1202 684 1202 684 872 524 c 0,29,30
 608 396 608 396 446 220 c 1,31,-1
 1202 220 l 1,32,-1
 1202 210 l 1,33,-1
 1026 0 l 1,34,-1
 60 0 l 1,0,-1
EndSplineSet
Validated: 1
EndChar

StartChar: three
Encoding: 51 51 22
Width: 1252
GlyphClass: 2
Flags: W
HStem: -20 300<479.553 696.603> 1290 220<302 684>
VStem: 852 320<393.92 652.528>
LayerCount: 2
Fore
SplineSet
592 -20 m 0,0,1
 345 -20 345 -20 187 159 c 0,2,3
 110 247 110 247 80 340 c 1,4,-1
 367 579 l 1,5,-1
 377 579 l 1,6,-1
 377 529 l 2,7,8
 377 420 377 420 448 350 c 128,-1,9
 519 280 519 280 618 280 c 128,-1,10
 717 280 717 280 784.5 343 c 128,-1,11
 852 406 852 406 852 511 c 152,-1,12
 852 616 852 616 784 680 c 0,13,14
 718 742 718 742 618 742 c 0,15,16
 542 742 542 742 482 700 c 1,17,-1
 397 774 l 1,18,-1
 684 1290 l 1,19,-1
 169 1290 l 1,20,-1
 169 1300 l 1,21,-1
 302 1510 l 1,22,-1
 1124 1510 l 1,23,-1
 1124 1500 l 1,24,-1
 839 990 l 1,25,26
 964 954 964 954 1047 863 c 0,27,28
 1172 728 1172 728 1172 511 c 0,29,30
 1172 465 1172 465 1150 426 c 0,31,32
 1129 388 1129 388 1077 344 c 2,33,-1
 699 26 l 2,34,35
 644 -20 644 -20 592 -20 c 0,0,1
EndSplineSet
Validated: 1
EndChar

StartChar: four
Encoding: 52 52 23
Width: 1271
GlyphClass: 2
Flags: W
HStem: -40 21G<738 771.904> 334 220<520 738 1048 1075> 1530 20G<914.185 948>
VStem: 738 310<211 334 554 647>
LayerCount: 2
Fore
SplineSet
748 -40 m 1,0,-1
 738 -40 l 1,1,-1
 738 334 l 1,2,-1
 5 334 l 1,3,-1
 5 344 l 1,4,5
 526 702 526 702 526 1204 c 1,6,-1
 938 1550 l 1,7,-1
 948 1550 l 1,8,9
 948 913 948 913 520 554 c 1,10,-1
 738 554 l 1,11,-1
 738 647 l 1,12,-1
 1038 899 l 1,13,-1
 1048 899 l 1,14,-1
 1048 554 l 1,15,-1
 1251 554 l 1,16,-1
 1251 544 l 1,17,-1
 1075 334 l 1,18,-1
 1048 334 l 1,19,-1
 1048 211 l 1,20,-1
 748 -40 l 1,0,-1
EndSplineSet
Validated: 1
EndChar

StartChar: five
Encoding: 53 53 24
Width: 1252
GlyphClass: 2
Flags: W
HStem: -20 300<479.553 696.603> 742 300<536.767 760.679> 1290 220<547 945>
VStem: 852 320<393.92 654.317>
LayerCount: 2
Fore
SplineSet
592 -20 m 0,0,1
 345 -20 345 -20 187 159 c 0,2,3
 110 246 110 246 80 340 c 1,4,-1
 367 579 l 1,5,-1
 377 579 l 1,6,-1
 377 529 l 2,7,8
 377 420 377 420 448 350 c 128,-1,9
 519 280 519 280 618 280 c 128,-1,10
 717 280 717 280 784.5 343 c 128,-1,11
 852 406 852 406 852 511 c 152,-1,12
 852 616 852 616 784 680 c 0,13,14
 718 742 718 742 618 742 c 128,-1,15
 518 742 518 742 451 675 c 2,16,-1
 416 640 l 1,17,-1
 112 832 l 1,18,-1
 261 1389 l 1,19,-1
 405 1510 l 1,20,-1
 1121 1510 l 1,21,-1
 1121 1500 l 1,22,-1
 945 1290 l 1,23,-1
 547 1290 l 1,24,-1
 441 931 l 1,25,-1
 450 925 l 1,26,-1
 535 996 l 2,27,28
 590 1042 590 1042 642 1042 c 0,29,30
 886 1042 886 1042 1047 863 c 0,31,32
 1172 723 1172 723 1172 511 c 0,33,34
 1172 465 1172 465 1150 426 c 0,35,36
 1129 388 1129 388 1077 344 c 2,37,-1
 699 26 l 2,38,39
 644 -20 644 -20 592 -20 c 0,0,1
EndSplineSet
Validated: 1
EndChar

StartChar: six
Encoding: 54 54 25
Width: 1290
GlyphClass: 2
Flags: W
HStem: -20 300<512.451 744.234> 738 300<585.766 817.158> 1230 300<584.952 804.917>
VStem: 100 320<372.306 642.458 855 1107.2> 910 320<401.371 647.581>
LayerCount: 2
Fore
SplineSet
664 280 m 128,-1,1
 772 280 772 280 846 353 c 0,2,3
 910 416 910 416 910 509 c 0,4,5
 910 609 910 609 845 671 c 0,6,7
 774 738 774 738 666 738 c 128,-1,8
 558 738 558 738 484 665 c 0,9,10
 420 602 420 602 420 509 c 0,11,12
 420 409 420 409 485 347 c 0,13,0
 556 280 556 280 664 280 c 128,-1,1
640 -20 m 0,14,15
 386 -20 386 -20 230 154 c 0,16,17
 100 299 100 299 100 509 c 2,18,-1
 100 970 l 2,19,20
 100 1032 100 1032 122 1076 c 0,21,22
 140 1112 140 1112 195 1158 c 2,23,-1
 583 1484 l 2,24,25
 638 1530 638 1530 690 1530 c 0,26,27
 928 1530 928 1530 1095 1351 c 0,28,29
 1122 1322 1122 1322 1142 1291 c 1,30,-1
 898 1088 l 1,31,-1
 888 1088 l 1,32,33
 870 1128 870 1128 836 1160 c 0,34,35
 763 1230 763 1230 664 1230 c 128,-1,36
 565 1230 565 1230 492.5 1158 c 128,-1,37
 420 1086 420 1086 420 981 c 2,38,-1
 420 855 l 1,39,-1
 583 992 l 2,40,41
 638 1038 638 1038 690 1038 c 0,42,43
 942 1038 942 1038 1100 864 c 0,44,45
 1230 721 1230 721 1230 509 c 0,46,47
 1230 478 1230 478 1208 434 c 0,48,49
 1190 398 1190 398 1135 352 c 2,50,-1
 747 26 l 2,51,52
 692 -20 692 -20 640 -20 c 0,14,15
EndSplineSet
Validated: 1
EndChar

StartChar: seven
Encoding: 55 55 26
Width: 1054
GlyphClass: 2
Flags: W
HStem: -40 21G<276.5 359.816> 1300 210<172 578>
VStem: 227 332<412.287 741.582>
LayerCount: 2
Fore
SplineSet
326 -40 m 1,0,1
 227 188 227 188 227 428 c 0,2,3
 227 889 227 889 578 1300 c 1,4,-1
 5 1300 l 1,5,-1
 5 1310 l 1,6,-1
 172 1510 l 1,7,-1
 1049 1510 l 1,8,-1
 1049 1500 l 1,9,10
 559 1120 559 1120 559 675 c 0,11,12
 559 473 559 473 673 243 c 1,13,-1
 336 -40 l 1,14,-1
 326 -40 l 1,0,1
EndSplineSet
Validated: 19457
EndChar

StartChar: eight
Encoding: 56 56 27
Width: 1250
GlyphClass: 2
Flags: W
HStem: -20 300<485.983 703.492> 702 266<520.38 731.62> 1257 274<544.907 735.496>
VStem: 70 327<367.805 570.324> 160 310<1011.51 1193.91> 782 308<1023.93 1213.83> 855 325<394.643 612.984>
LayerCount: 2
Fore
SplineSet
626 968 m 128,-1,1
 689 968 689 968 733 1007 c 0,2,3
 782 1050 782 1050 782 1113 c 0,4,5
 782 1175 782 1175 733 1218 c 0,6,7
 689 1257 689 1257 626 1257 c 128,-1,8
 563 1257 563 1257 519 1218 c 0,9,10
 470 1175 470 1175 470 1112 c 0,11,12
 470 1050 470 1050 519 1007 c 0,13,0
 563 968 563 968 626 968 c 128,-1,1
626 280 m 128,-1,15
 725 280 725 280 790 345 c 128,-1,16
 855 410 855 410 855 491 c 128,-1,17
 855 572 855 572 790 637 c 128,-1,18
 725 702 725 702 626 702 c 128,-1,19
 527 702 527 702 462 637 c 128,-1,20
 397 572 397 572 397 491 c 128,-1,21
 397 410 397 410 462 345 c 128,-1,14
 527 280 527 280 626 280 c 128,-1,15
599 -20 m 0,22,23
 348 -20 348 -20 193 151 c 0,24,25
 70 286 70 286 70 465 c 0,26,27
 70 525 70 525 98 554 c 0,28,29
 142 600 142 600 167 621 c 2,30,-1
 352 777 l 1,31,32
 314 799 314 799 289 817 c 0,33,34
 160 907 160 907 160 1086 c 0,35,36
 160 1140 160 1140 190 1177 c 0,37,38
 216 1209 216 1209 255 1242 c 2,39,-1
 541 1483 l 2,40,41
 598 1531 598 1531 654 1531 c 0,42,43
 700 1531 700 1531 742 1522 c 0,44,45
 877 1496 877 1496 967 1410 c 0,46,47
 1090 1294 1090 1294 1090 1130 c 0,48,49
 1090 1080 1090 1080 1066 1048 c 0,50,51
 1040 1014 1040 1014 994 975 c 2,52,-1
 917 910 l 1,53,54
 992 878 992 878 1056 809 c 0,55,56
 1180 675 1180 675 1180 503 c 0,57,58
 1180 423 1180 423 1084 343 c 2,59,-1
 707 27 l 2,60,61
 651 -20 651 -20 599 -20 c 0,22,23
EndSplineSet
Validated: 1
EndChar

StartChar: nine
Encoding: 57 57 28
Width: 1290
GlyphClass: 2
Flags: W
HStem: -20 300<485.083 705.048> 472 300<472.842 704.234> 1230 300<545.766 777.549>
VStem: 60 320<862.419 1108.63> 870 320<402.803 655 867.542 1137.69>
LayerCount: 2
Fore
SplineSet
626 1230 m 128,-1,1
 518 1230 518 1230 444 1157 c 0,2,3
 380 1094 380 1094 380 1001 c 0,4,5
 380 901 380 901 445 839 c 0,6,7
 516 772 516 772 624 772 c 128,-1,8
 732 772 732 772 806 845 c 0,9,10
 870 908 870 908 870 1001 c 0,11,12
 870 1101 870 1101 805 1163 c 0,13,0
 734 1230 734 1230 626 1230 c 128,-1,1
600 -20 m 0,14,15
 362 -20 362 -20 195 159 c 0,16,17
 168 188 168 188 148 219 c 1,18,-1
 392 422 l 1,19,-1
 402 422 l 1,20,21
 420 382 420 382 454 350 c 0,22,23
 527 280 527 280 626 280 c 128,-1,24
 725 280 725 280 797.5 352 c 128,-1,25
 870 424 870 424 870 529 c 2,26,-1
 870 655 l 1,27,-1
 707 518 l 2,28,29
 652 472 652 472 600 472 c 0,30,31
 348 472 348 472 190 646 c 0,32,33
 60 789 60 789 60 1001 c 0,34,35
 60 1032 60 1032 82 1076 c 0,36,37
 100 1112 100 1112 155 1158 c 2,38,-1
 543 1484 l 2,39,40
 598 1530 598 1530 650 1530 c 0,41,42
 904 1530 904 1530 1060 1356 c 0,43,44
 1190 1211 1190 1211 1190 1001 c 2,45,-1
 1190 540 l 2,46,47
 1190 478 1190 478 1168 434 c 0,48,49
 1150 398 1150 398 1095 352 c 2,50,-1
 707 26 l 2,51,52
 652 -20 652 -20 600 -20 c 0,14,15
EndSplineSet
Validated: 1
EndChar

StartChar: colon
Encoding: 58 58 29
Width: 407
GlyphClass: 2
Flags: W
HStem: -20 21G<176.5 199.5>
VStem: 20 367<88.9062 242.492 735.906 889.492>
LayerCount: 2
Fore
SplineSet
222 1000 m 0,0,1
 241 1000 241 1000 264 991 c 0,2,3
 313 972 313 972 344 930 c 0,4,5
 387 874 387 874 387 816 c 0,6,7
 387 773 387 773 353 745 c 2,8,-1
 238 648 l 2,9,10
 213 627 213 627 186 627 c 0,11,12
 167 627 167 627 143 636 c 0,13,14
 96 654 96 654 63 697 c 0,15,16
 20 753 20 753 20 811 c 0,17,18
 20 854 20 854 54 882 c 2,19,-1
 170 979 l 2,20,21
 195 1000 195 1000 222 1000 c 0,0,1
186 -20 m 0,22,23
 167 -20 167 -20 143 -11 c 0,24,25
 96 7 96 7 63 50 c 0,26,27
 20 106 20 106 20 164 c 0,28,29
 20 207 20 207 54 235 c 2,30,-1
 170 332 l 2,31,32
 195 353 195 353 222 353 c 0,33,34
 241 353 241 353 264 344 c 0,35,36
 313 325 313 325 344 283 c 0,37,38
 387 227 387 227 387 169 c 0,39,40
 387 126 387 126 353 98 c 2,41,-1
 238 1 l 2,42,43
 213 -20 213 -20 186 -20 c 0,22,23
EndSplineSet
Validated: 19457
EndChar

StartChar: semicolon
Encoding: 59 59 30
Width: 482
GlyphClass: 2
Flags: W
VStem: 50 367<735.906 889.492> 170 262<-121.307 126.598>
LayerCount: 2
Fore
SplineSet
282 280 m 1,0,-1
 292 280 l 1,1,2
 432 181 432 181 432 35 c 0,3,4
 432 -172 432 -172 161 -313 c 1,5,-1
 151 -313 l 1,6,-1
 20 -203 l 1,7,8
 170 -146 170 -146 170 -21 c 0,9,10
 170 68 170 68 65 98 c 1,11,-1
 282 280 l 1,0,-1
252 1000 m 0,12,13
 271 1000 271 1000 294 991 c 0,14,15
 343 972 343 972 374 930 c 0,16,17
 417 874 417 874 417 816 c 0,18,19
 417 773 417 773 383 745 c 2,20,-1
 268 648 l 2,21,22
 243 627 243 627 216 627 c 0,23,24
 197 627 197 627 173 636 c 0,25,26
 126 654 126 654 93 697 c 0,27,28
 50 753 50 753 50 811 c 0,29,30
 50 854 50 854 84 882 c 2,31,-1
 200 979 l 2,32,33
 225 1000 225 1000 252 1000 c 0,12,13
EndSplineSet
Validated: 1
EndChar

StartChar: less
Encoding: 60 60 31
Width: 1292
GlyphClass: 2
Flags: W
DStem2: 506 772 80 671 0.90626 -0.422722<0 659.652> 281 921 506 772 0.905962 0.423358<140.761 810.188>
LayerCount: 2
Fore
SplineSet
281 921 m 1,0,-1
 1015 1264 l 1,1,-1
 1161 1090 l 1,2,-1
 1161 1079 l 1,3,-1
 506 772 l 1,4,-1
 1162 465 l 1,5,-1
 1162 454 l 1,6,-1
 989 247 l 1,7,-1
 80 671 l 1,8,-1
 80 681 l 1,9,-1
 281 921 l 1,0,-1
EndSplineSet
Validated: 1
EndChar

StartChar: equal
Encoding: 61 61 32
Width: 1194
GlyphClass: 2
Flags: W
HStem: 421 250<281 913> 838 250<281 913>
LayerCount: 2
Fore
SplineSet
281 671 m 1,0,-1
 1114 671 l 1,1,-1
 1114 661 l 1,2,-1
 913 421 l 1,3,-1
 80 421 l 1,4,-1
 80 431 l 1,5,-1
 281 671 l 1,0,-1
281 1088 m 1,6,-1
 1114 1088 l 1,7,-1
 1114 1078 l 1,8,-1
 913 838 l 1,9,-1
 80 838 l 1,10,-1
 80 848 l 1,11,-1
 281 1088 l 1,6,-1
EndSplineSet
Validated: 1
EndChar

StartChar: greater
Encoding: 62 62 33
Width: 1292
GlyphClass: 2
Flags: W
DStem2: 303 1264 130 1046 0.90626 -0.422722<0 659.652> 131 432 277 247 0.905962 0.423358<53.9492 723.376>
LayerCount: 2
Fore
SplineSet
303 1264 m 1,0,-1
 1212 840 l 1,1,-1
 1212 830 l 1,2,-1
 1011 590 l 1,3,-1
 277 247 l 1,4,-1
 131 421 l 1,5,-1
 131 432 l 1,6,-1
 786 739 l 1,7,-1
 130 1046 l 1,8,-1
 130 1057 l 1,9,-1
 303 1264 l 1,0,-1
EndSplineSet
Validated: 1
EndChar

StartChar: question
Encoding: 63 63 34
Width: 1270
GlyphClass: 2
Flags: W
HStem: -20 21G<605.5 628.5> 1230 300<554.965 778.725>
VStem: 80 320<819.01 1116.18> 449 367<88.9062 242.492> 870 320<881.111 1141.99>
DStem2: 682 730 505 337 0.766088 0.642735<-214.84 272.72>
LayerCount: 2
Fore
SplineSet
660 1530 m 0,0,1
 904 1530 904 1530 1065 1351 c 0,2,3
 1190 1211 1190 1211 1190 999 c 0,4,5
 1190 956 1190 956 1168 914 c 0,6,7
 1148 876 1148 876 1095 832 c 2,8,-1
 505 337 l 1,9,-1
 495 337 l 1,10,11
 495 573 495 573 682 730 c 2,12,-1
 776 809 l 18,13,14
 870 888 870 888 870 999 c 0,15,16
 870 1104 870 1104 802.5 1167 c 128,-1,17
 735 1230 735 1230 636 1230 c 128,-1,18
 537 1230 537 1230 468.5 1169 c 128,-1,19
 400 1108 400 1108 400 999 c 0,20,21
 400 906 400 906 451 847 c 1,22,-1
 220 652 l 1,23,-1
 210 652 l 1,24,25
 80 795 80 795 80 999 c 0,26,27
 80 1043 80 1043 102 1084 c 0,28,29
 123 1122 123 1122 175 1166 c 2,30,-1
 553 1484 l 2,31,32
 608 1530 608 1530 660 1530 c 0,0,1
615 -20 m 0,33,34
 596 -20 596 -20 572 -11 c 0,35,36
 525 7 525 7 492 50 c 0,37,38
 449 106 449 106 449 164 c 0,39,40
 449 207 449 207 483 235 c 2,41,-1
 599 332 l 2,42,43
 624 353 624 353 651 353 c 0,44,45
 670 353 670 353 693 344 c 0,46,47
 742 325 742 325 773 283 c 0,48,49
 816 227 816 227 816 169 c 0,50,51
 816 126 816 126 782 98 c 2,52,-1
 667 1 l 2,53,54
 642 -20 642 -20 615 -20 c 0,33,34
EndSplineSet
Validated: 1
EndChar

StartChar: at
Encoding: 64 64 35
Width: 1290
GlyphClass: 2
Flags: W
HStem: -40 21G<910 943.868> -20 270<743.532 908.5> 854 266<565.115 815.64>
VStem: 80 300<-21.6528 693.044> 910 300<250 505>
LayerCount: 2
Fore
SplineSet
920 -40 m 1,0,-1
 910 -40 l 1,1,-1
 910 12 l 1,2,3
 862 -20 862 -20 816 -20 c 0,4,5
 681 -20 681 -20 578 76 c 0,6,7
 457 189 457 189 457 321 c 0,8,9
 457 366 457 366 478 395 c 0,10,11
 496 421 496 421 533 452 c 2,12,-1
 882 744 l 1,13,14
 804 854 804 854 662 854 c 0,15,16
 551 854 551 854 460 764 c 0,17,18
 380 686 380 686 380 572 c 2,19,-1
 380 117 l 2,20,21
 380 -2 380 -2 479 -77 c 0,22,23
 579 -153 579 -153 813 -153 c 1,24,-1
 510 -407 l 1,25,-1
 500 -407 l 1,26,27
 335 -370 335 -370 225 -265 c 0,28,29
 80 -125 80 -125 80 109 c 2,30,-1
 80 561 l 2,31,32
 80 668 80 668 176 749 c 2,33,-1
 563 1074 l 2,34,35
 618 1120 618 1120 670 1120 c 0,36,37
 904 1120 904 1120 1075 949 c 0,38,39
 1210 814 1210 814 1210 603 c 2,40,-1
 1210 203 l 1,41,-1
 920 -40 l 1,0,-1
910 250 m 1,42,-1
 910 505 l 1,43,-1
 713 340 l 1,44,45
 729 294 729 294 781 270 c 0,46,47
 824 250 824 250 910 250 c 1,42,-1
EndSplineSet
Validated: 1
EndChar

StartChar: A
Encoding: 65 65 36
Width: 1455
GlyphClass: 2
Flags: W
HStem: -40 21G<105 315 1095.5 1219.81> 480 210<172 195 515 1005> 1230 300<679.497 903.469>
VStem: 195 320<142.855 480 690 1108.87> 1005 320<197.825 480 690 1130.05>
LayerCount: 2
Fore
SplineSet
105 -40 m 1,0,1
 195 125 195 125 195 332 c 2,2,-1
 195 480 l 1,3,-1
 5 480 l 1,4,-1
 5 490 l 1,5,-1
 172 690 l 1,6,-1
 195 690 l 1,7,-1
 195 970 l 2,8,9
 195 1032 195 1032 217 1076 c 0,10,11
 235 1112 235 1112 290 1158 c 2,12,-1
 678 1484 l 2,13,14
 733 1530 733 1530 785 1530 c 0,15,16
 1027 1530 1027 1530 1190 1351 c 0,17,18
 1325 1203 1325 1203 1325 981 c 2,19,-1
 1325 288 l 2,20,21
 1325 192 1325 192 1427 174 c 1,22,-1
 1196 -20 l 1,23,-1
 1186 -20 l 1,24,25
 1005 44 1005 44 1005 254 c 2,26,-1
 1005 480 l 1,27,-1
 515 480 l 1,28,-1
 515 326 l 2,29,30
 515 0 515 0 115 -40 c 1,31,-1
 105 -40 l 1,0,1
1005 690 m 1,32,-1
 1005 980 l 2,33,34
 1005 1094 1005 1094 934 1162 c 0,35,36
 862 1230 862 1230 758 1230 c 128,-1,37
 654 1230 654 1230 585 1160 c 0,38,39
 515 1088 515 1088 515 980 c 2,40,-1
 515 690 l 1,41,-1
 1005 690 l 1,32,-1
EndSplineSet
Validated: 19457
EndChar

StartChar: B
Encoding: 66 66 37
Width: 1252
GlyphClass: 2
Flags: W
HStem: -40 21G<130 405> 1530 20G<416.154 450 713.186 789.5>
VStem: 130 320<218 1290> 775 293<1037.6 1207.53> 891 331<440.478 704.838>
LayerCount: 2
Fore
SplineSet
130 -40 m 1,0,-1
 130 1290 l 1,1,-1
 440 1550 l 1,2,-1
 450 1550 l 1,3,-1
 450 218 l 1,4,5
 624 234 624 234 759 342 c 0,6,7
 891 448 891 448 891 590 c 0,8,9
 891 684 891 684 814 733 c 0,10,11
 731 786 731 786 549 794 c 1,12,13
 775 895 775 895 775 1083 c 0,14,15
 775 1192 775 1192 682 1248 c 0,16,17
 606 1294 606 1294 456 1294 c 1,18,-1
 737 1530 l 1,19,20
 842 1512 842 1512 927 1450 c 0,21,22
 1068 1346 1068 1346 1068 1193 c 0,23,24
 1068 1075 1068 1075 982 985 c 1,25,26
 1023 967 1023 967 1058 942 c 0,27,28
 1222 826 1222 826 1222 635 c 0,29,30
 1222 372 1222 372 961 198 c 0,31,32
 670 3 670 3 140 -40 c 1,33,-1
 130 -40 l 1,0,-1
EndSplineSet
Validated: 1
EndChar

StartChar: C
Encoding: 67 67 38
Width: 1290
GlyphClass: 2
Flags: W
HStem: -20 300<508.451 724.877> 1230 300<565.174 781.908>
VStem: 80 325<385.119 1107.2>
DStem2: 1210 684 727 26 0.765514 0.643419<-679.351 -131.207>
LayerCount: 2
Fore
SplineSet
620 -20 m 0,0,1
 378 -20 378 -20 215 159 c 0,2,3
 80 307 80 307 80 529 c 2,4,-1
 80 970 l 2,5,6
 80 1032 80 1032 102 1076 c 0,7,8
 120 1112 120 1112 175 1158 c 2,9,-1
 563 1484 l 2,10,11
 618 1530 618 1530 670 1530 c 0,12,13
 914 1530 914 1530 1075 1351 c 0,14,15
 1162 1254 1162 1254 1193 1130 c 1,16,-1
 895 881 l 1,17,-1
 885 881 l 1,18,-1
 885 981 l 2,19,20
 885 1090 885 1090 814 1160 c 128,-1,21
 743 1230 743 1230 644 1230 c 128,-1,22
 545 1230 545 1230 475 1158 c 128,-1,23
 405 1086 405 1086 405 981 c 2,24,-1
 405 529 l 2,25,26
 405 420 405 420 476 350 c 128,-1,27
 547 280 547 280 646 280 c 0,28,29
 729 280 729 280 815 352 c 2,30,-1
 1210 684 l 17,31,-1
 1210 540 l 2,32,33
 1210 478 1210 478 1188 434 c 0,34,35
 1170 398 1170 398 1115 352 c 2,36,-1
 727 26 l 2,37,38
 672 -20 672 -20 620 -20 c 0,0,1
EndSplineSet
Validated: 1
EndChar

StartChar: D
Encoding: 68 68 39
Width: 1313
GlyphClass: 2
Flags: W
HStem: -40 21G<130 374.5> 1530 20G<416.154 450 713.186 839.5>
VStem: 130 320<232 1290> 956 327<617.324 1031.25>
LayerCount: 2
Fore
SplineSet
130 -40 m 1,0,-1
 130 1290 l 1,1,-1
 440 1550 l 1,2,-1
 450 1550 l 1,3,-1
 450 232 l 1,4,5
 618 299 618 299 748 404 c 0,6,7
 956 573 956 573 956 838 c 0,8,9
 956 1039 956 1039 797 1169 c 0,10,11
 672 1271 672 1271 456 1294 c 1,12,-1
 737 1530 l 1,13,14
 942 1490 942 1490 1094 1345 c 0,15,16
 1283 1165 1283 1165 1283 878 c 0,17,18
 1283 471 1283 471 912 224 c 0,19,20
 609 22 609 22 140 -40 c 1,21,-1
 130 -40 l 1,0,-1
EndSplineSet
Validated: 1
EndChar

StartChar: E
Encoding: 69 69 40
Width: 1228
GlyphClass: 2
Flags: W
HStem: 0 210<172 195 515 1056> 480 210<172 195 515 819> 1300 210<515 888>
VStem: 195 320<210 480 690 1300>
LayerCount: 2
Fore
SplineSet
5 0 m 1,0,-1
 5 10 l 1,1,-1
 172 210 l 1,2,-1
 195 210 l 1,3,-1
 195 480 l 1,4,-1
 5 480 l 1,5,-1
 5 490 l 1,6,-1
 172 690 l 1,7,-1
 195 690 l 1,8,-1
 195 1357 l 1,9,-1
 377 1510 l 1,10,-1
 1055 1510 l 1,11,-1
 1055 1500 l 1,12,-1
 888 1300 l 1,13,-1
 515 1300 l 1,14,-1
 515 690 l 1,15,-1
 986 690 l 1,16,-1
 986 680 l 1,17,-1
 819 480 l 1,18,-1
 515 480 l 1,19,-1
 515 210 l 1,20,-1
 1223 210 l 1,21,-1
 1223 200 l 1,22,-1
 1056 0 l 1,23,-1
 5 0 l 1,0,-1
EndSplineSet
Validated: 19457
EndChar

StartChar: F
Encoding: 70 70 41
Width: 1105
GlyphClass: 2
Flags: W
HStem: -40 21G<195 228.846> 480 210<172 195 515 819> 1300 210<515 888>
VStem: 195 320<220 480 690 1300>
LayerCount: 2
Fore
SplineSet
195 -40 m 1,0,-1
 195 480 l 1,1,-1
 5 480 l 1,2,-1
 5 490 l 1,3,-1
 172 690 l 1,4,-1
 195 690 l 1,5,-1
 195 1357 l 1,6,-1
 377 1510 l 1,7,-1
 1055 1510 l 1,8,-1
 1055 1500 l 1,9,-1
 888 1300 l 1,10,-1
 515 1300 l 1,11,-1
 515 690 l 1,12,-1
 986 690 l 1,13,-1
 986 680 l 1,14,-1
 819 480 l 1,15,-1
 515 480 l 1,16,-1
 515 220 l 1,17,-1
 205 -40 l 1,18,-1
 195 -40 l 1,0,-1
EndSplineSet
Validated: 19457
EndChar

StartChar: G
Encoding: 71 71 42
Width: 1290
GlyphClass: 2
Flags: W
HStem: -20 300<508.451 724.826> 480 210<694 881> 1230 300<565.174 781.908>
VStem: 80 325<385.119 1107.2>
LayerCount: 2
Fore
SplineSet
620 -20 m 0,0,1
 378 -20 378 -20 215 159 c 0,2,3
 80 307 80 307 80 529 c 2,4,-1
 80 970 l 2,5,6
 80 1032 80 1032 102 1076 c 0,7,8
 120 1112 120 1112 175 1158 c 2,9,-1
 563 1484 l 2,10,11
 618 1530 618 1530 670 1530 c 0,12,13
 914 1530 914 1530 1075 1351 c 0,14,15
 1162 1254 1162 1254 1193 1130 c 1,16,-1
 895 881 l 1,17,-1
 885 881 l 1,18,-1
 885 981 l 2,19,20
 885 1090 885 1090 814 1160 c 128,-1,21
 743 1230 743 1230 644 1230 c 128,-1,22
 545 1230 545 1230 475 1158 c 128,-1,23
 405 1086 405 1086 405 981 c 2,24,-1
 405 529 l 2,25,26
 405 420 405 420 476 350 c 128,-1,27
 547 280 547 280 646 280 c 128,-1,28
 745 280 745 280 815 352 c 0,29,30
 868 406 868 406 881 480 c 1,31,-1
 527 480 l 1,32,-1
 527 490 l 1,33,-1
 694 690 l 1,34,-1
 1210 690 l 1,35,-1
 1210 540 l 2,36,37
 1210 478 1210 478 1188 434 c 0,38,39
 1170 398 1170 398 1115 352 c 2,40,-1
 727 26 l 2,41,42
 672 -20 672 -20 620 -20 c 0,0,1
EndSplineSet
Validated: 1
EndChar

StartChar: H
Encoding: 72 72 43
Width: 1435
GlyphClass: 2
Flags: W
HStem: -40 21G<195 228.846 985 1018.85> 480 210<172 195 515 985> 1530 20G<481.154 515 1271.15 1305>
VStem: 195 320<220 480 690 1290> 985 320<220 480 690 1290>
LayerCount: 2
Fore
SplineSet
195 -40 m 1,0,-1
 195 480 l 1,1,-1
 5 480 l 1,2,-1
 5 490 l 1,3,-1
 172 690 l 1,4,-1
 195 690 l 1,5,-1
 195 1290 l 1,6,-1
 505 1550 l 1,7,-1
 515 1550 l 1,8,-1
 515 690 l 1,9,-1
 985 690 l 1,10,-1
 985 1290 l 1,11,-1
 1295 1550 l 1,12,-1
 1305 1550 l 1,13,-1
 1305 220 l 1,14,-1
 995 -40 l 1,15,-1
 985 -40 l 1,16,-1
 985 480 l 1,17,-1
 515 480 l 1,18,-1
 515 220 l 1,19,-1
 205 -40 l 1,20,-1
 195 -40 l 1,0,-1
EndSplineSet
Validated: 19457
EndChar

StartChar: I
Encoding: 73 73 44
Width: 580
GlyphClass: 2
Flags: W
HStem: -40 21G<130 163.846> 1530 20G<416.154 450>
VStem: 130 320<220 1290>
LayerCount: 2
Fore
SplineSet
130 -40 m 1,0,-1
 130 1290 l 1,1,-1
 440 1550 l 1,2,-1
 450 1550 l 1,3,-1
 450 220 l 1,4,-1
 140 -40 l 1,5,-1
 130 -40 l 1,0,-1
EndSplineSet
Validated: 1
EndChar

StartChar: J
Encoding: 74 74 45
Width: 1243
GlyphClass: 2
Flags: W
HStem: -20 300<416.092 632.826> 1300 210<345 793>
VStem: 793 320<395.11 1300>
LayerCount: 2
Fore
SplineSet
528 -20 m 0,0,1
 284 -20 284 -20 123 159 c 0,2,3
 36 256 36 256 5 380 c 1,4,-1
 303 629 l 1,5,-1
 313 629 l 1,6,-1
 313 529 l 2,7,8
 313 420 313 420 384 350 c 128,-1,9
 455 280 455 280 554 280 c 128,-1,10
 653 280 653 280 723 352 c 128,-1,11
 793 424 793 424 793 529 c 2,12,-1
 793 1300 l 1,13,-1
 178 1300 l 1,14,-1
 178 1310 l 1,15,-1
 345 1510 l 1,16,-1
 1113 1510 l 1,17,-1
 1113 537 l 2,18,19
 1113 467 1113 467 1095 432 c 0,20,21
 1078 398 1078 398 1023 352 c 2,22,-1
 635 26 l 2,23,24
 580 -20 580 -20 528 -20 c 0,0,1
EndSplineSet
Validated: 19457
EndChar

StartChar: K
Encoding: 75 75 46
Width: 1312
GlyphClass: 2
Flags: W
HStem: -40 21G<130 163.846 966.934 1015.88> 1530 20G<416.154 450 1176.15 1210>
VStem: 130 320<220 255.457 464 1290> 890 320<874.345 1290>
DStem2: 722 838 472 637 0.601698 -0.798724<10.1191 147.801 391.085 847.602>
LayerCount: 2
Fore
SplineSet
472 637 m 1,0,-1
 712 838 l 1,1,-1
 722 838 l 1,2,-1
 811 720 l 1,3,4
 890 879 890 879 890 1227 c 2,5,-1
 890 1290 l 1,6,-1
 1200 1550 l 1,7,-1
 1210 1550 l 1,8,-1
 1210 1227 l 2,9,10
 1210 762 1210 762 961 520 c 1,11,-1
 1232 161 l 1,12,-1
 992 -40 l 1,13,-1
 982 -40 l 1,14,-1
 695 341 l 1,15,16
 577 279 577 279 450 242 c 1,17,-1
 450 220 l 1,18,-1
 140 -40 l 1,19,-1
 130 -40 l 1,20,-1
 130 1290 l 1,21,-1
 440 1550 l 1,22,-1
 450 1550 l 1,23,-1
 450 464 l 1,24,25
 515 492 515 492 562 518 c 1,26,-1
 472 637 l 1,0,-1
EndSplineSet
Validated: 1
EndChar

StartChar: L
Encoding: 76 76 47
Width: 1228
GlyphClass: 2
Flags: W
HStem: 0 210<172 195 515 1056> 1530 20G<481.154 515>
VStem: 195 320<210 1290>
LayerCount: 2
Fore
SplineSet
1056 0 m 1,0,-1
 5 0 l 1,1,-1
 5 10 l 1,2,-1
 172 210 l 1,3,-1
 195 210 l 1,4,-1
 195 1290 l 1,5,-1
 505 1550 l 1,6,-1
 515 1550 l 1,7,-1
 515 210 l 1,8,-1
 1223 210 l 1,9,-1
 1223 200 l 1,10,-1
 1056 0 l 1,0,-1
EndSplineSet
Validated: 19457
EndChar

StartChar: M
Encoding: 77 77 48
Width: 2200
GlyphClass: 2
Flags: W
HStem: -40 21G<130 163.846 940 973.846 1750 1783.85> 1230 300<614.98 838.844 1424.98 1648.69> 1530 20G<416.154 450>
VStem: 130 320<220 1129.95> 940 320<220 1129.95> 1750 320<220 1130.08>
CounterMasks: 1 1c
LayerCount: 2
Fore
SplineSet
130 -40 m 1,0,-1
 130 1290 l 1,1,-1
 440 1550 l 1,2,-1
 450 1550 l 1,3,-1
 450 1347 l 1,4,-1
 613 1484 l 2,5,6
 668 1530 668 1530 720 1530 c 0,7,8
 964 1530 964 1530 1125 1351 c 0,9,10
 1156 1317 1156 1317 1179 1279 c 1,11,-1
 1423 1484 l 2,12,13
 1478 1530 1478 1530 1530 1530 c 0,14,15
 1774 1530 1774 1530 1935 1351 c 0,16,17
 2070 1201 2070 1201 2070 981 c 2,18,-1
 2070 220 l 1,19,-1
 1760 -40 l 1,20,-1
 1750 -40 l 1,21,-1
 1750 981 l 2,22,23
 1750 1094 1750 1094 1679 1162 c 0,24,25
 1606 1230 1606 1230 1503 1230 c 0,26,27
 1401 1230 1401 1230 1330 1160 c 0,28,29
 1260 1090 1260 1090 1260 981 c 2,30,-1
 1260 220 l 1,31,-1
 950 -40 l 1,32,-1
 940 -40 l 1,33,-1
 940 981 l 2,34,35
 940 1094 940 1094 869 1162 c 0,36,37
 797 1230 797 1230 693 1230 c 0,38,39
 591 1230 591 1230 520 1160 c 0,40,41
 450 1090 450 1090 450 981 c 2,42,-1
 450 220 l 1,43,-1
 140 -40 l 1,44,-1
 130 -40 l 1,0,-1
EndSplineSet
Validated: 1
EndChar

StartChar: N
Encoding: 78 78 49
Width: 1390
GlyphClass: 2
Flags: W
HStem: -40 21G<130 163.846 940 973.846> 1230 300<614.98 838.844> 1530 20G<416.154 450>
VStem: 130 320<220 1130.28> 940 320<220 1130.08>
LayerCount: 2
Fore
SplineSet
130 -40 m 1,0,-1
 130 1290 l 1,1,-1
 440 1550 l 1,2,-1
 450 1550 l 1,3,-1
 450 1347 l 1,4,-1
 613 1484 l 2,5,6
 668 1530 668 1530 720 1530 c 0,7,8
 964 1530 964 1530 1125 1351 c 0,9,10
 1260 1201 1260 1201 1260 981 c 2,11,-1
 1260 220 l 1,12,-1
 950 -40 l 1,13,-1
 940 -40 l 1,14,-1
 940 981 l 2,15,16
 940 1095 940 1095 869 1162 c 0,17,18
 797 1230 797 1230 693 1230 c 0,19,20
 591 1230 591 1230 520 1160 c 0,21,22
 450 1091 450 1091 450 981 c 2,23,-1
 450 220 l 1,24,-1
 140 -40 l 1,25,-1
 130 -40 l 1,0,-1
EndSplineSet
Validated: 1
EndChar

StartChar: O
Encoding: 79 79 50
Width: 1290
GlyphClass: 2
Flags: W
HStem: -20 300<508.451 724.826> 1230 300<565.174 781.908>
VStem: 80 325<385.119 1107.2> 885 325<402.803 1123.98>
LayerCount: 2
Fore
SplineSet
885 529 m 2,0,-1
 885 981 l 2,1,2
 885 1090 885 1090 814 1160 c 128,-1,3
 743 1230 743 1230 644 1230 c 128,-1,4
 545 1230 545 1230 475 1158 c 128,-1,5
 405 1086 405 1086 405 981 c 2,6,-1
 405 529 l 2,7,8
 405 420 405 420 476 350 c 128,-1,9
 547 280 547 280 646 280 c 128,-1,10
 745 280 745 280 815 352 c 128,-1,11
 885 424 885 424 885 529 c 2,0,-1
620 -20 m 0,12,13
 378 -20 378 -20 215 159 c 0,14,15
 80 307 80 307 80 529 c 2,16,-1
 80 970 l 2,17,18
 80 1032 80 1032 102 1076 c 0,19,20
 120 1112 120 1112 175 1158 c 2,21,-1
 563 1484 l 2,22,23
 618 1530 618 1530 670 1530 c 0,24,25
 914 1530 914 1530 1075 1351 c 0,26,27
 1210 1201 1210 1201 1210 981 c 2,28,-1
 1210 540 l 2,29,30
 1210 478 1210 478 1188 434 c 0,31,32
 1170 398 1170 398 1115 352 c 2,33,-1
 727 26 l 2,34,35
 672 -20 672 -20 620 -20 c 0,12,13
EndSplineSet
Validated: 1
EndChar

StartChar: P
Encoding: 80 80 51
Width: 1254
GlyphClass: 2
Flags: W
HStem: -40 21G<130 163.846> 1530 20G<416.154 450 713.186 828>
VStem: 130 320<220 264.813 469 1290> 898 326<766.838 1108.71>
LayerCount: 2
Fore
SplineSet
130 -40 m 1,0,-1
 130 1290 l 1,1,-1
 440 1550 l 1,2,-1
 450 1550 l 1,3,-1
 450 469 l 1,4,5
 898 641 898 641 898 945 c 0,6,7
 898 1099 898 1099 779 1192 c 0,8,9
 666 1280 666 1280 456 1294 c 1,10,-1
 737 1530 l 1,11,12
 919 1496 919 1496 1052 1380 c 0,13,14
 1224 1230 1224 1230 1224 983 c 0,15,16
 1224 663 1224 663 877 442 c 24,17,18
 696 327 696 327 450 253 c 1,19,-1
 450 220 l 1,20,-1
 140 -40 l 1,21,-1
 130 -40 l 1,0,-1
EndSplineSet
Validated: 1
EndChar

StartChar: Q
Encoding: 81 81 52
Width: 1290
GlyphClass: 2
Flags: W
HStem: -40 21G<902.429 950.846> -20 300<508.451 681.298> 1230 300<565.174 781.908>
VStem: 80 325<385.119 1107.2> 885 325<400.785 1123.98>
DStem2: 751 532 592 407 0.588064 -0.808814<7.5996 160.818 387.044 552.145>
LayerCount: 2
Fore
SplineSet
592 407 m 1,0,-1
 741 532 l 1,1,-1
 751 532 l 1,2,-1
 851 399 l 1,3,4
 885 456 885 456 885 529 c 2,5,-1
 885 981 l 2,6,7
 885 1090 885 1090 814 1160 c 128,-1,8
 743 1230 743 1230 644 1230 c 128,-1,9
 545 1230 545 1230 475 1158 c 128,-1,10
 405 1086 405 1086 405 981 c 2,11,-1
 405 529 l 2,12,13
 405 420 405 420 476 350 c 128,-1,14
 547 280 547 280 646 280 c 0,15,16
 665 280 665 280 682 283 c 1,17,-1
 592 407 l 1,0,-1
620 -20 m 0,18,19
 378 -20 378 -20 215 159 c 0,20,21
 80 307 80 307 80 529 c 2,22,-1
 80 970 l 2,23,24
 80 1032 80 1032 102 1076 c 0,25,26
 120 1112 120 1112 175 1158 c 2,27,-1
 563 1484 l 2,28,29
 618 1530 618 1530 670 1530 c 0,30,31
 914 1530 914 1530 1075 1351 c 0,32,33
 1210 1201 1210 1201 1210 981 c 2,34,-1
 1210 540 l 2,35,36
 1210 478 1210 478 1188 434 c 0,37,38
 1170 398 1170 398 1115 352 c 2,39,-1
 974 234 l 1,40,-1
 1082 90 l 1,41,-1
 927 -40 l 1,42,-1
 917 -40 l 1,43,-1
 815 100 l 1,44,-1
 727 26 l 2,45,46
 672 -20 672 -20 620 -20 c 0,18,19
EndSplineSet
Validated: 1
EndChar

StartChar: R
Encoding: 82 82 53
Width: 1322
GlyphClass: 2
Flags: W
HStem: -40 21G<130 163.846 966.909 1015.88> 1530 20G<416.154 450 713.186 828>
VStem: 130 320<220 266.761 469 1290> 898 326<770.449 1108.47>
DStem2: 722 838 472 637 0.601698 -0.798724<10.1191 158.599 411.011 847.602>
LayerCount: 2
Fore
SplineSet
130 -40 m 1,0,-1
 130 1290 l 1,1,-1
 440 1550 l 1,2,-1
 450 1550 l 1,3,-1
 450 469 l 1,4,5
 510 492 510 492 562 518 c 1,6,-1
 472 637 l 1,7,-1
 712 838 l 1,8,-1
 722 838 l 1,9,-1
 817 711 l 1,10,11
 897 816 897 816 898 945 c 0,12,13
 898 1098 898 1098 779 1192 c 0,14,15
 666 1280 666 1280 456 1294 c 1,16,-1
 737 1530 l 1,17,18
 919 1496 919 1496 1052 1380 c 0,19,20
 1224 1230 1224 1230 1224 983 c 0,21,22
 1224 709 1224 709 970 508 c 1,23,-1
 1232 161 l 1,24,-1
 992 -40 l 1,25,-1
 982 -40 l 1,26,-1
 693 343 l 1,27,28
 581 292 581 292 450 253 c 1,29,-1
 450 220 l 1,30,-1
 140 -40 l 1,31,-1
 130 -40 l 1,0,-1
EndSplineSet
Validated: 1
EndChar

StartChar: S
Encoding: 83 83 54
Width: 1273
GlyphClass: 2
Flags: W
HStem: -20 300<491.092 708.073> 664 320<517.701 825.891> 1234 296<550.961 746.728>
VStem: 153 303<1019.64 1177.94> 880 313<401.542 614.262>
LayerCount: 2
Fore
SplineSet
603 -20 m 0,0,1
 359 -20 359 -20 198 159 c 0,2,3
 111 256 111 256 80 380 c 1,4,-1
 378 629 l 1,5,-1
 388 629 l 1,6,-1
 388 529 l 2,7,8
 388 420 388 420 459 350 c 128,-1,9
 530 280 530 280 629 280 c 0,10,11
 736 280 736 280 812 357 c 0,12,13
 880 427 880 427 880 512 c 0,14,15
 880 664 880 664 643 664 c 0,16,17
 399 664 399 664 275 771 c 0,18,19
 153 878 153 878 153 1042 c 0,20,21
 153 1151 153 1151 248 1231 c 2,22,-1
 548 1483 l 2,23,24
 604 1530 604 1530 660 1530 c 0,25,26
 712 1530 712 1530 748 1522 c 0,27,28
 879 1492 879 1492 965 1410 c 0,29,30
 1040 1338 1040 1338 1072 1243 c 1,31,-1
 806 1020 l 1,32,-1
 796 1020 l 1,33,-1
 796 1067 l 2,34,35
 796 1149 796 1149 747 1192 c 0,36,37
 698 1234 698 1234 630 1234 c 0,38,39
 568 1234 568 1234 518 1202 c 0,40,41
 456 1162 456 1162 456 1099.5 c 128,-1,42
 456 1037 456 1037 516 1009 c 0,43,44
 570 984 570 984 678 984 c 0,45,46
 934 984 934 984 1066 852 c 0,47,48
 1193 725 1193 725 1193 526 c 0,49,50
 1193 477 1193 477 1171 434 c 0,51,52
 1151 396 1151 396 1098 352 c 2,53,-1
 710 26 l 2,54,55
 655 -20 655 -20 603 -20 c 0,0,1
EndSplineSet
Validated: 1
EndChar

StartChar: T
Encoding: 84 84 55
Width: 1186
GlyphClass: 2
Flags: W
HStem: -40 21G<433 466.846> 1300 210<172 433 753 1014>
VStem: 433 320<220 1300>
LayerCount: 2
Fore
SplineSet
433 -40 m 1,0,-1
 433 1300 l 1,1,-1
 5 1300 l 1,2,-1
 5 1310 l 1,3,-1
 172 1510 l 1,4,-1
 1181 1510 l 1,5,-1
 1181 1500 l 1,6,-1
 1014 1300 l 1,7,-1
 753 1300 l 1,8,-1
 753 220 l 1,9,-1
 443 -40 l 1,10,-1
 433 -40 l 1,0,-1
EndSplineSet
Validated: 1
EndChar

StartChar: U
Encoding: 85 85 56
Width: 1390
GlyphClass: 2
Flags: W
HStem: -40 21G<940 973.846> -20 300<551.156 775.02> 1530 20G<416.154 450 1226.15 1260>
VStem: 130 320<379.916 1290> 940 320<380.047 1290>
LayerCount: 2
Fore
SplineSet
950 -40 m 1,0,-1
 940 -40 l 1,1,-1
 940 163 l 1,2,-1
 777 26 l 2,3,4
 722 -20 722 -20 670 -20 c 0,5,6
 426 -20 426 -20 265 159 c 0,7,8
 130 309 130 309 130 529 c 2,9,-1
 130 1290 l 1,10,-1
 440 1550 l 1,11,-1
 450 1550 l 1,12,-1
 450 529 l 2,13,14
 450 416 450 416 521 348 c 0,15,16
 593 280 593 280 697 280 c 0,17,18
 799 280 799 280 870 350 c 0,19,20
 940 420 940 420 940 529 c 2,21,-1
 940 1290 l 1,22,-1
 1250 1550 l 1,23,-1
 1260 1550 l 1,24,-1
 1260 220 l 1,25,-1
 950 -40 l 1,0,-1
EndSplineSet
Validated: 1
EndChar

StartChar: V
Encoding: 86 86 57
Width: 1390
GlyphClass: 2
Flags: W
HStem: -20 300<551.531 775.503> 1510 20G<235.186 359.5 1140 1350>
VStem: 130 320<379.951 1312.18> 940 320<401.126 1367.15>
LayerCount: 2
Fore
SplineSet
670 -20 m 0,0,1
 428 -20 428 -20 265 159 c 0,2,3
 130 307 130 307 130 529 c 2,4,-1
 130 1222 l 2,5,6
 130 1318 130 1318 28 1336 c 1,7,-1
 259 1530 l 1,8,-1
 269 1530 l 1,9,10
 450 1466 450 1466 450 1256 c 2,11,-1
 450 530 l 2,12,13
 450 416 450 416 521 348 c 0,14,15
 593 280 593 280 697 280 c 128,-1,16
 801 280 801 280 870 350 c 0,17,18
 940 422 940 422 940 530 c 2,19,-1
 940 1184 l 2,20,21
 940 1510 940 1510 1340 1550 c 1,22,-1
 1350 1550 l 1,23,24
 1260 1385 1260 1385 1260 1178 c 2,25,-1
 1260 540 l 2,26,27
 1260 478 1260 478 1238 434 c 0,28,29
 1220 398 1220 398 1165 352 c 2,30,-1
 777 26 l 2,31,32
 722 -20 722 -20 670 -20 c 0,0,1
EndSplineSet
Validated: 1
EndChar

StartChar: W
Encoding: 87 87 58
Width: 2200
GlyphClass: 2
Flags: W
HStem: -20 300<551.531 775.503 1361.53 1585.5> 1510 40G<235.186 359.5 1226.15 1260 1950 2160>
VStem: 130 320<379.951 1312.18> 940 320<380.735 1290> 1750 320<401.126 1367.15>
CounterMasks: 1 38
LayerCount: 2
Fore
SplineSet
670 -20 m 0,0,1
 428 -20 428 -20 265 159 c 0,2,3
 130 307 130 307 130 529 c 2,4,-1
 130 1222 l 2,5,6
 130 1318 130 1318 28 1336 c 1,7,-1
 259 1530 l 1,8,-1
 269 1530 l 1,9,10
 450 1466 450 1466 450 1256 c 2,11,-1
 450 530 l 2,12,13
 450 416 450 416 521 348 c 0,14,15
 593 280 593 280 697 280 c 128,-1,16
 801 280 801 280 870 350 c 0,17,18
 940 422 940 422 940 530 c 2,19,-1
 940 1290 l 1,20,-1
 1250 1550 l 1,21,-1
 1260 1550 l 1,22,-1
 1260 530 l 2,23,24
 1260 416 1260 416 1331 348 c 0,25,26
 1403 280 1403 280 1507 280 c 128,-1,27
 1611 280 1611 280 1680 350 c 0,28,29
 1750 422 1750 422 1750 530 c 2,30,-1
 1750 1184 l 2,31,32
 1750 1510 1750 1510 2150 1550 c 1,33,-1
 2160 1550 l 1,34,35
 2070 1385 2070 1385 2070 1178 c 2,36,-1
 2070 540 l 2,37,38
 2070 478 2070 478 2048 434 c 0,39,40
 2030 398 2030 398 1975 352 c 2,41,-1
 1587 26 l 2,42,43
 1532 -20 1532 -20 1480 -20 c 0,44,45
 1238 -20 1238 -20 1075 159 c 0,46,47
 1044 193 1044 193 1020 230 c 1,48,-1
 777 26 l 2,49,50
 722 -20 722 -20 670 -20 c 0,0,1
EndSplineSet
Validated: 1
EndChar

StartChar: X
Encoding: 88 88 59
Width: 1360
GlyphClass: 2
Flags: W
HStem: -40 21G<130 163.828 915 948.828> 604 301<540.828 819.172> 1530 20G<411.172 445 1196.17 1230>
VStem: 130 315<216 492.391 1000.63 1294> 915 315<216 504.178 1019.2 1294>
LayerCount: 2
Fore
SplineSet
130 -40 m 1,0,-1
 130 355 l 2,1,2
 130 420 130 420 156 466 c 0,3,4
 176 503 176 503 226 543 c 2,5,-1
 394 678 l 1,6,7
 130 816 130 816 130 1158 c 2,8,-1
 130 1294 l 1,9,-1
 435 1550 l 1,10,-1
 445 1550 l 1,11,-1
 445 1161 l 2,12,13
 445 1042 445 1042 512 973 c 0,14,15
 578 905 578 905 675 905 c 0,16,17
 781 905 781 905 848 974 c 128,-1,18
 915 1043 915 1043 915 1160 c 2,19,-1
 915 1294 l 1,20,-1
 1220 1550 l 1,21,-1
 1230 1550 l 1,22,-1
 1230 1154 l 2,23,24
 1230 1099 1230 1099 1212 1060 c 0,25,26
 1191 1014 1191 1014 1135 967 c 2,27,-1
 970 829 l 1,28,29
 1044 788 1044 788 1103 721 c 0,30,31
 1230 579 1230 579 1230 352 c 2,32,-1
 1230 216 l 1,33,-1
 925 -40 l 1,34,-1
 915 -40 l 1,35,-1
 915 348 l 2,36,37
 915 467 915 467 848 536 c 0,38,39
 782 604 782 604 685 604 c 0,40,41
 579 604 579 604 512 535 c 128,-1,42
 445 466 445 466 445 349 c 2,43,-1
 445 216 l 1,44,-1
 140 -40 l 1,45,-1
 130 -40 l 1,0,-1
EndSplineSet
Validated: 1
EndChar

StartChar: Y
Encoding: 89 89 60
Width: 1390
GlyphClass: 2
Flags: W
HStem: -40 21G<540 573.81> 1530 20G<416.154 450 1226.15 1260>
VStem: 130 320<708.119 1290> 540 310<212 328.964 655 729> 940 320<725.203 1290>
CounterMasks: 1 38
LayerCount: 2
Fore
SplineSet
540 -40 m 1,0,-1
 540 317 l 1,1,2
 382 353 382 353 265 482 c 0,3,4
 130 630 130 630 130 852 c 2,5,-1
 130 1290 l 1,6,-1
 440 1550 l 1,7,-1
 450 1550 l 1,8,-1
 450 853 l 2,9,10
 450 736 450 736 540 655 c 1,11,-1
 540 729 l 1,12,-1
 840 981 l 1,13,-1
 850 981 l 1,14,-1
 850 655 l 1,15,16
 940 739 940 739 940 853 c 2,17,-1
 940 1290 l 1,18,-1
 1250 1550 l 1,19,-1
 1260 1550 l 1,20,-1
 1260 863 l 2,21,22
 1260 801 1260 801 1238 757 c 0,23,24
 1220 721 1220 721 1165 675 c 2,25,-1
 850 410 l 1,26,-1
 850 212 l 1,27,-1
 550 -40 l 1,28,-1
 540 -40 l 1,0,-1
EndSplineSet
Validated: 1
EndChar

StartChar: Z
Encoding: 90 90 61
Width: 1268
GlyphClass: 2
Flags: W
HStem: 0 210<498 1041> 480 210<267 300 755 1021> 1300 210<317 735>
DStem2: 300 480 498 210 0.471652 0.881785<-144.695 0 399.777 928.232>
LayerCount: 2
Fore
SplineSet
50 0 m 1,0,-1
 50 10 l 1,1,-1
 300 480 l 1,2,-1
 100 480 l 1,3,-1
 100 490 l 1,4,-1
 267 690 l 1,5,-1
 411 690 l 1,6,-1
 735 1300 l 1,7,-1
 150 1300 l 1,8,-1
 150 1310 l 1,9,-1
 317 1510 l 1,10,-1
 1188 1510 l 1,11,-1
 1188 1500 l 1,12,-1
 755 690 l 1,13,-1
 1188 690 l 1,14,-1
 1188 680 l 1,15,-1
 1021 480 l 1,16,-1
 642 480 l 1,17,-1
 498 210 l 1,18,-1
 1208 210 l 1,19,-1
 1208 200 l 1,20,-1
 1041 0 l 1,21,-1
 50 0 l 1,0,-1
EndSplineSet
Validated: 1
EndChar

StartChar: bracketleft
Encoding: 91 91 62
Width: 869
GlyphClass: 2
Flags: W
HStem: -240 210<450 697> 1540 210<450 697>
VStem: 130 320<-30 1540>
LayerCount: 2
Fore
SplineSet
130 -240 m 1,0,-1
 130 1557 l 1,1,-1
 360 1750 l 1,2,-1
 864 1750 l 1,3,-1
 864 1740 l 1,4,-1
 697 1540 l 1,5,-1
 450 1540 l 1,6,-1
 450 -30 l 1,7,-1
 864 -30 l 1,8,-1
 864 -40 l 1,9,-1
 697 -240 l 1,10,-1
 130 -240 l 1,0,-1
EndSplineSet
Validated: 1
EndChar

StartChar: backslash
Encoding: 92 92 63
Width: 1077
GlyphClass: 2
Flags: W
DStem2: 222 1750 5 1576 0.423923 -0.905698<65.6003 2005.08>
LayerCount: 2
Fore
SplineSet
212 1750 m 1,0,-1
 222 1750 l 1,1,-1
 1072 -66 l 1,2,-1
 865 -240 l 1,3,-1
 855 -240 l 1,4,-1
 5 1576 l 1,5,-1
 212 1750 l 1,0,-1
EndSplineSet
Validated: 1
EndChar

StartChar: bracketright
Encoding: 93 93 64
Width: 869
GlyphClass: 2
Flags: W
HStem: -240 210<172 419> 1540 210<172 419>
VStem: 419 320<-30 1540>
LayerCount: 2
Fore
SplineSet
739 1750 m 1,0,-1
 739 -47 l 1,1,-1
 509 -240 l 1,2,-1
 5 -240 l 1,3,-1
 5 -230 l 1,4,-1
 172 -30 l 1,5,-1
 419 -30 l 1,6,-1
 419 1540 l 1,7,-1
 5 1540 l 1,8,-1
 5 1550 l 1,9,-1
 172 1750 l 1,10,-1
 739 1750 l 1,0,-1
EndSplineSet
Validated: 19457
EndChar

StartChar: asciicircum
Encoding: 94 94 65
Width: 924
GlyphClass: 2
Flags: W
HStem: 1020 530
DStem2: 20 1135 167 1020 0.766314 0.642466<38.7647 431.574> 525 1550 470 1270 0.706175 -0.708038<159.411 509.433>
LayerCount: 2
Fore
SplineSet
515 1550 m 1,0,-1
 525 1550 l 1,1,-1
 904 1170 l 1,2,-1
 723 1020 l 1,3,-1
 715 1020 l 1,4,-1
 470 1270 l 1,5,-1
 167 1020 l 1,6,-1
 157 1020 l 1,7,-1
 20 1135 l 1,8,-1
 515 1550 l 1,0,-1
EndSplineSet
Validated: 19457
EndChar

StartChar: underscore
Encoding: 95 95 66
Width: 1186
GlyphClass: 2
Flags: W
HStem: -410 240<273 913>
LayerCount: 2
Fore
SplineSet
273 -170 m 1,0,-1
 1106 -170 l 1,1,-1
 1106 -180 l 1,2,-1
 913 -410 l 1,3,-1
 80 -410 l 1,4,-1
 80 -400 l 1,5,-1
 273 -170 l 1,0,-1
EndSplineSet
Validated: 1
EndChar

StartChar: grave
Encoding: 96 96 67
Width: 463
GlyphClass: 2
Flags: W
HStem: 1151 419
VStem: 20 423
LayerCount: 2
Fore
SplineSet
231 1570 m 5,0,1
 421 1437 421 1437 443 1254 c 5,2,-1
 320 1151 l 5,3,-1
 310 1151 l 5,4,5
 230 1353 230 1353 20 1401 c 5,6,-1
 221 1570 l 5,7,-1
 231 1570 l 5,0,1
EndSplineSet
Validated: 19457
EndChar

StartChar: a
Encoding: 97 97 68
Width: 1003
GlyphClass: 2
Flags: W
HStem: -40 21G<623 656.83> -20 230<362.648 549.469> 511 231<388.959 585.78> 855 265<354.303 576.327>
VStem: 30 283<257.038 425.589> 633 280<257.009 464.291>
LayerCount: 2
Fore
SplineSet
313 359 m 0,0,1
 313 294 313 294 361 253 c 0,2,3
 412 210 412 210 473 210 c 0,4,5
 540 210 540 210 588 257 c 0,6,7
 633 301 633 301 633 359 c 0,8,9
 633 424 633 424 586 467 c 0,10,11
 538 511 538 511 473 511 c 0,12,13
 410 511 410 511 360 464 c 0,14,15
 313 420 313 420 313 359 c 0,0,1
633 -40 m 1,16,-1
 623 -40 l 1,17,-1
 623 86 l 1,18,-1
 546 21 l 2,19,20
 497 -20 497 -20 444 -20 c 0,21,22
 263 -20 263 -20 146.5 74 c 128,-1,23
 30 168 30 168 30 304 c 0,24,25
 30 360 30 360 58 403 c 0,26,27
 83 440 83 440 122 473 c 2,28,-1
 393 701 l 2,29,30
 442 742 442 742 497 742 c 0,31,32
 577 742 577 742 643 689 c 1,33,34
 632 762 632 762 574 814 c 0,35,36
 529 855 529 855 452 855 c 128,-1,37
 375 855 375 855 320 808 c 1,38,-1
 197 943 l 1,39,-1
 354 1075 l 2,40,41
 408 1120 408 1120 467 1120 c 0,42,43
 519 1120 519 1120 555 1112 c 0,44,45
 685 1085 685 1085 776 1004 c 0,46,47
 913 883 913 883 913 689 c 2,48,-1
 913 195 l 1,49,-1
 633 -40 l 1,16,-1
EndSplineSet
Validated: 1
EndChar

StartChar: b
Encoding: 98 98 69
Width: 1120
GlyphClass: 2
Flags: W
HStem: -20 280<469.272 668.208> 840 280<501.331 700.728> 1530 20G<386.17 420>
VStem: 130 290<309.674 795.214 1007 1315> 750 300<315.107 791.73>
LayerCount: 2
Fore
SplineSet
588 260 m 128,-1,1
 658 260 658 260 703 302 c 0,2,3
 750 346 750 346 750 427 c 2,4,-1
 750 673 l 2,5,6
 750 755 750 755 701 798 c 0,7,8
 652 840 652 840 582 840 c 0,9,10
 510 840 510 840 467 798 c 0,11,12
 420 754 420 754 420 673 c 2,13,-1
 420 427 l 2,14,15
 420 343 420 343 469 302 c 0,16,0
 518 260 518 260 588 260 c 128,-1,1
556 -20 m 0,17,18
 504 -20 504 -20 468 -12 c 0,19,20
 336 18 336 18 251 100 c 0,21,22
 130 215 130 215 130 427 c 2,23,-1
 130 1315 l 1,24,-1
 410 1550 l 1,25,-1
 420 1550 l 1,26,-1
 420 1007 l 1,27,-1
 501 1075 l 2,28,29
 555 1120 555 1120 614 1120 c 0,30,31
 666 1120 666 1120 702 1112 c 0,32,33
 833 1082 833 1082 919 1000 c 0,34,35
 1050 875 1050 875 1050 673 c 2,36,-1
 1050 448 l 2,37,38
 1050 385 1050 385 1025 342 c 0,39,40
 1004 306 1004 306 954 264 c 2,41,-1
 669 25 l 2,42,43
 615 -20 615 -20 556 -20 c 0,17,18
EndSplineSet
Validated: 1
EndChar

StartChar: c
Encoding: 99 99 70
Width: 1070
GlyphClass: 2
Flags: W
HStem: -20 270<421.481 618.874> 840 280<451.331 650.728>
VStem: 70 300<302.728 784.893>
DStem2: 653 302 904 264 0.76514 0.643864<-120.936 324.484>
LayerCount: 2
Fore
SplineSet
506 -20 m 0,0,1
 454 -20 454 -20 418 -12 c 0,2,3
 286 18 286 18 201 100 c 0,4,5
 70 225 70 225 70 427 c 2,6,-1
 70 652 l 2,7,8
 70 716 70 716 95 758 c 0,9,10
 117 795 117 795 166 836 c 2,11,-1
 451 1075 l 2,12,13
 505 1120 505 1120 564 1120 c 0,14,15
 616 1120 616 1120 652 1112 c 0,16,17
 783 1082 783 1082 869 1000 c 0,18,19
 944 928 944 928 976 833 c 1,20,-1
 710 610 l 1,21,-1
 700 610 l 1,22,-1
 700 673 l 2,23,24
 700 755 700 755 651 798 c 0,25,26
 602 840 602 840 532 840 c 0,27,28
 460 840 460 840 417 798 c 0,29,30
 370 754 370 754 370 673 c 2,31,-1
 370 427 l 2,32,33
 370 344 370 344 418.5 297 c 128,-1,34
 467 250 467 250 537 250 c 0,35,36
 591 250 591 250 653 302 c 2,37,-1
 1000 594 l 1,38,-1
 1000 448 l 2,39,40
 1000 386 1000 386 975 342 c 0,41,42
 955 307 955 307 904 264 c 2,43,-1
 619 25 l 2,44,45
 565 -20 565 -20 506 -20 c 0,0,1
EndSplineSet
Validated: 1
EndChar

StartChar: d
Encoding: 100 100 71
Width: 1120
GlyphClass: 2
Flags: W
HStem: -40 21G<700 733.83> -20 280<419.272 618.208> 840 280<451.331 651.599> 1530 20G<956.17 990>
VStem: 70 300<308.27 784.893> 700 290<304.786 793.883 1065 1315>
LayerCount: 2
Fore
SplineSet
538 260 m 128,-1,1
 608 260 608 260 653 302 c 0,2,3
 700 346 700 346 700 427 c 2,4,-1
 700 673 l 2,5,6
 700 755 700 755 651 798 c 0,7,8
 602 840 602 840 532 840 c 0,9,10
 460 840 460 840 417 798 c 0,11,12
 370 754 370 754 370 673 c 2,13,-1
 370 427 l 2,14,15
 370 343 370 343 419 302 c 0,16,0
 468 260 468 260 538 260 c 128,-1,1
710 -40 m 1,17,-1
 700 -40 l 1,18,-1
 700 93 l 1,19,-1
 619 25 l 2,20,21
 565 -20 565 -20 506 -20 c 0,22,23
 454 -20 454 -20 418 -12 c 0,24,25
 286 18 286 18 201 100 c 0,26,27
 70 225 70 225 70 427 c 2,28,-1
 70 652 l 2,29,30
 70 716 70 716 95 758 c 0,31,32
 117 795 117 795 166 836 c 2,33,-1
 451 1075 l 2,34,35
 505 1120 505 1120 561 1120 c 0,36,37
 643 1120 643 1120 700 1065 c 9,38,-1
 700 1315 l 1,39,-1
 980 1550 l 1,40,-1
 990 1550 l 1,41,-1
 990 195 l 1,42,-1
 710 -40 l 1,17,-1
EndSplineSet
Validated: 1
EndChar

StartChar: e
Encoding: 101 101 72
Width: 1070
GlyphClass: 2
Flags: W
HStem: -20 270<419.115 618.913> 845 275<451.58 652.992>
VStem: 70 295<467 784.891>
DStem2: 365 467 408 306 0.765288 0.643688<0 436.348> 653 302 904 264 0.76514 0.643864<-120.195 324.798>
LayerCount: 2
Fore
SplineSet
693 742 m 1,0,1
 680 775 680 775 654 800 c 0,2,3
 607 845 607 845 535 845 c 0,4,5
 464 845 464 845 417 798 c 0,6,7
 365 747 365 747 365 673 c 2,8,-1
 365 467 l 1,9,-1
 693 742 l 1,0,1
506 -20 m 0,10,11
 454 -20 454 -20 418 -12 c 0,12,13
 286 18 286 18 201 100 c 0,14,15
 70 225 70 225 70 427 c 2,16,-1
 70 652 l 2,17,18
 70 716 70 716 95 758 c 0,19,20
 117 795 117 795 166 836 c 2,21,-1
 451 1075 l 2,22,23
 505 1120 505 1120 564 1120 c 0,24,25
 616 1120 616 1120 652 1112 c 0,26,27
 783 1082 783 1082 869 1000 c 0,28,29
 958 915 958 915 987 793 c 1,30,-1
 408 306 l 1,31,32
 457 250 457 250 538 250 c 0,33,34
 591 250 591 250 653 302 c 2,35,-1
 1000 594 l 1,36,-1
 1000 448 l 2,37,38
 1000 387 1000 387 975 342 c 0,39,40
 955 307 955 307 904 264 c 2,41,-1
 619 25 l 2,42,43
 565 -20 565 -20 506 -20 c 0,10,11
EndSplineSet
Validated: 1
EndChar

StartChar: f
Encoding: 102 102 73
Width: 1053
GlyphClass: 2
Flags: W
HStem: -40 21G<210 243.83> 734 180<162 210 500 710> 1250 280<581.331 782.891>
VStem: 210 290<195 734 914 1203.79>
LayerCount: 2
Fore
SplineSet
210 -40 m 1,0,-1
 210 734 l 1,1,-1
 20 734 l 1,2,-1
 20 744 l 1,3,-1
 162 914 l 1,4,-1
 210 914 l 1,5,-1
 210 1071 l 2,6,7
 210 1135 210 1135 235 1177 c 0,8,9
 258 1215 258 1215 306 1255 c 2,10,-1
 581 1485 l 2,11,12
 635 1530 635 1530 694 1530 c 0,13,14
 746 1530 746 1530 782 1522 c 0,15,16
 910 1493 910 1493 999 1410 c 0,17,18
 1027 1384 1027 1384 1048 1354 c 1,19,-1
 830 1152 l 1,20,21
 811 1183 811 1183 781 1208 c 0,22,23
 732 1250 732 1250 662 1250 c 0,24,25
 590 1250 590 1250 547 1208 c 0,26,27
 500 1164 500 1164 500 1083 c 2,28,-1
 500 914 l 1,29,-1
 852 914 l 1,30,-1
 852 904 l 1,31,-1
 710 734 l 1,32,-1
 500 734 l 1,33,-1
 500 195 l 1,34,-1
 220 -40 l 1,35,-1
 210 -40 l 1,0,-1
EndSplineSet
Validated: 1
EndChar

StartChar: g
Encoding: 103 103 74
Width: 1070
GlyphClass: 2
Flags: W
HStem: -450 280<417.109 618.669> -20 280<419.272 618.208> 840 280<451.331 650.728>
VStem: 70 300<308.27 784.893> 700 300<-115.812 93 304.786 791.73>
LayerCount: 2
Fore
SplineSet
506 -20 m 0,0,1
 454 -20 454 -20 418 -12 c 0,2,3
 287 17 287 17 201 100 c 0,4,5
 70 225 70 225 70 427 c 2,6,-1
 70 652 l 2,7,8
 70 716 70 716 95 758 c 0,9,10
 117 795 117 795 166 836 c 2,11,-1
 451 1075 l 2,12,13
 505 1120 505 1120 564 1120 c 0,14,15
 616 1120 616 1120 652 1112 c 0,16,17
 783 1082 783 1082 869 1000 c 0,18,19
 1000 875 1000 875 1000 673 c 2,20,-1
 1000 17 l 2,21,22
 1000 -49 1000 -49 975 -89 c 0,23,24
 951 -128 951 -128 904 -167 c 2,25,-1
 619 -405 l 2,26,27
 565 -450 565 -450 506 -450 c 0,28,29
 454 -450 454 -450 418 -442 c 0,30,31
 290 -413 290 -413 201 -330 c 0,32,33
 173 -304 173 -304 152 -274 c 1,34,-1
 370 -72 l 1,35,36
 389 -103 389 -103 419 -128 c 0,37,38
 468 -170 468 -170 538 -170 c 0,39,40
 610 -170 610 -170 653 -128 c 0,41,42
 700 -84 700 -84 700 -3 c 2,43,-1
 700 93 l 1,44,-1
 619 25 l 2,45,46
 565 -20 565 -20 506 -20 c 0,0,1
538 260 m 128,-1,48
 608 260 608 260 653 302 c 0,49,50
 700 346 700 346 700 427 c 2,51,-1
 700 673 l 2,52,53
 700 755 700 755 651 798 c 0,54,55
 602 840 602 840 532 840 c 0,56,57
 460 840 460 840 417 798 c 0,58,59
 370 754 370 754 370 673 c 2,60,-1
 370 427 l 2,61,62
 370 343 370 343 419 302 c 0,63,47
 468 260 468 260 538 260 c 128,-1,48
EndSplineSet
Validated: 1
EndChar

StartChar: h
Encoding: 104 104 75
Width: 1140
GlyphClass: 2
Flags: W
HStem: -40 21G<130 163.83 750 783.868> 840 280<501.331 700.728> 1530 20G<386.17 420>
VStem: 130 290<195 795.214 1007 1315> 750 300<203 791.73>
LayerCount: 2
Fore
SplineSet
130 -40 m 1,0,-1
 130 1315 l 1,1,-1
 410 1550 l 1,2,-1
 420 1550 l 1,3,-1
 420 1007 l 1,4,-1
 501 1075 l 2,5,6
 555 1120 555 1120 614 1120 c 0,7,8
 666 1120 666 1120 702 1112 c 0,9,10
 833 1082 833 1082 919 1000 c 0,11,12
 1050 875 1050 875 1050 673 c 2,13,-1
 1050 203 l 1,14,-1
 760 -40 l 1,15,-1
 750 -40 l 1,16,-1
 750 673 l 2,17,18
 750 755 750 755 701 798 c 0,19,20
 652 840 652 840 582 840 c 0,21,22
 510 840 510 840 467 798 c 0,23,24
 420 754 420 754 420 673 c 2,25,-1
 420 195 l 1,26,-1
 140 -40 l 1,27,-1
 130 -40 l 1,0,-1
EndSplineSet
Validated: 1
EndChar

StartChar: i
Encoding: 105 105 76
Width: 550
GlyphClass: 2
Flags: W
HStem: -40 21G<130 163.83> 1120 20G<386.17 420> 1523 20G<278.5 301.5>
VStem: 90 367<1278.91 1432.49> 130 290<195 905>
LayerCount: 2
Fore
SplineSet
256 1170 m 0,0,1
 237 1170 237 1170 213 1179 c 0,2,3
 166 1197 166 1197 133 1240 c 0,4,5
 90 1296 90 1296 90 1354 c 0,6,7
 90 1397 90 1397 124 1425 c 2,8,-1
 240 1522 l 2,9,10
 265 1543 265 1543 292 1543 c 0,11,12
 311 1543 311 1543 334 1534 c 0,13,14
 383 1515 383 1515 414 1473 c 0,15,16
 457 1417 457 1417 457 1359 c 0,17,18
 457 1316 457 1316 423 1288 c 2,19,-1
 308 1191 l 2,20,21
 283 1170 283 1170 256 1170 c 0,0,1
130 -40 m 1,22,-1
 130 905 l 1,23,-1
 410 1140 l 1,24,-1
 420 1140 l 1,25,-1
 420 195 l 1,26,-1
 140 -40 l 1,27,-1
 130 -40 l 1,22,-1
EndSplineSet
Validated: 1
EndChar

StartChar: j
Encoding: 106 106 77
Width: 550
GlyphClass: 2
Flags: W
HStem: -450 21G<29 229.5> 1120 20G<386.17 420> 1523 20G<280.5 303.5>
VStem: 92 367<1278.91 1432.49> 130 290<-241.127 905>
LayerCount: 2
Fore
SplineSet
258 1170 m 0,0,1
 239 1170 239 1170 215 1179 c 0,2,3
 168 1197 168 1197 135 1240 c 0,4,5
 92 1296 92 1296 92 1354 c 0,6,7
 92 1397 92 1397 126 1425 c 2,8,-1
 242 1522 l 2,9,10
 267 1543 267 1543 294 1543 c 0,11,12
 313 1543 313 1543 336 1534 c 0,13,14
 385 1515 385 1515 416 1473 c 0,15,16
 459 1417 459 1417 459 1359 c 0,17,18
 459 1316 459 1316 425 1288 c 2,19,-1
 310 1191 l 2,20,21
 285 1170 285 1170 258 1170 c 0,0,1
39 -450 m 1,22,-1
 29 -450 l 1,23,24
 130 -310 130 -310 130 -67 c 2,25,-1
 130 905 l 1,26,-1
 410 1140 l 1,27,-1
 420 1140 l 1,28,-1
 420 -67 l 2,29,30
 420 -354 420 -354 39 -450 c 1,22,-1
EndSplineSet
Validated: 1
EndChar

StartChar: k
Encoding: 107 107 78
Width: 1140
GlyphClass: 2
Flags: W
HStem: -40 21G<130 163.83 750 783.868> 1120 20G<872.2 929.894> 1530 20G<386.17 420>
VStem: 130 290<195 528.214 740 1315> 750 300<203 524.73>
DStem2: 896 1140 791 817 0.765578 0.643343<-288.185 0>
LayerCount: 2
Fore
SplineSet
130 -40 m 1,0,-1
 130 1315 l 1,1,-1
 410 1550 l 1,2,-1
 420 1550 l 1,3,-1
 420 740 l 1,4,-1
 896 1140 l 1,5,-1
 906 1140 l 1,6,-1
 1041 1027 l 1,7,-1
 791 817 l 1,8,9
 864 786 864 786 919 733 c 0,10,11
 1050 608 1050 608 1050 406 c 2,12,-1
 1050 203 l 1,13,-1
 760 -40 l 1,14,-1
 750 -40 l 1,15,-1
 750 406 l 2,16,17
 750 488 750 488 701 531 c 0,18,19
 652 573 652 573 582 573 c 0,20,21
 510 573 510 573 467 531 c 0,22,23
 420 487 420 487 420 406 c 2,24,-1
 420 195 l 1,25,-1
 140 -40 l 1,26,-1
 130 -40 l 1,0,-1
EndSplineSet
Validated: 1
EndChar

StartChar: l
Encoding: 108 108 79
Width: 550
GlyphClass: 2
Flags: W
HStem: -40 21G<130 163.83> 1530 20G<386.17 420>
VStem: 130 290<195 1315>
LayerCount: 2
Fore
SplineSet
130 -40 m 1,0,-1
 130 1315 l 1,1,-1
 410 1550 l 1,2,-1
 420 1550 l 1,3,-1
 420 195 l 1,4,-1
 140 -40 l 1,5,-1
 130 -40 l 1,0,-1
EndSplineSet
Validated: 1
EndChar

StartChar: m
Encoding: 109 109 80
Width: 1770
GlyphClass: 2
Flags: W
HStem: -40 21G<130 163.83 750 783.868 1380 1413.87> 840 280<501.331 700.728 1131.33 1330.73> 1120 20G<386.17 420>
VStem: 130 290<195 795.214> 750 300<203 793.794> 1380 300<203 791.73>
LayerCount: 2
Fore
SplineSet
130 -40 m 1,0,-1
 130 905 l 1,1,-1
 410 1140 l 1,2,-1
 420 1140 l 1,3,-1
 420 1007 l 1,4,-1
 501 1075 l 2,5,6
 555 1120 555 1120 614 1120 c 0,7,8
 666 1120 666 1120 702 1112 c 0,9,10
 833 1082 833 1082 919 1000 c 0,11,12
 948 972 948 972 971 940 c 1,13,-1
 1131 1075 l 2,14,15
 1184 1120 1184 1120 1244 1120 c 0,16,17
 1296 1120 1296 1120 1332 1112 c 0,18,19
 1463 1082 1463 1082 1549 1000 c 0,20,21
 1680 875 1680 875 1680 673 c 2,22,-1
 1680 203 l 1,23,-1
 1390 -40 l 1,24,-1
 1380 -40 l 1,25,-1
 1380 673 l 2,26,27
 1380 755 1380 755 1331 798 c 0,28,29
 1282 840 1282 840 1212 840 c 0,30,31
 1140 840 1140 840 1097 798 c 0,32,33
 1050 754 1050 754 1050 673 c 2,34,-1
 1050 203 l 1,35,-1
 760 -40 l 1,36,-1
 750 -40 l 1,37,-1
 750 673 l 2,38,39
 750 755 750 755 701 798 c 0,40,41
 652 840 652 840 582 840 c 0,42,43
 510 840 510 840 467 798 c 0,44,45
 420 754 420 754 420 673 c 2,46,-1
 420 195 l 1,47,-1
 140 -40 l 1,48,-1
 130 -40 l 1,0,-1
EndSplineSet
Validated: 1
EndChar

StartChar: n
Encoding: 110 110 81
Width: 1140
GlyphClass: 2
Flags: W
HStem: -40 21G<130 163.83 750 783.868> 840 280<501.331 700.728> 1120 20G<386.17 420>
VStem: 130 290<195 795.214> 750 300<203 791.73>
LayerCount: 2
Fore
SplineSet
130 -40 m 1,0,-1
 130 905 l 1,1,-1
 410 1140 l 1,2,-1
 420 1140 l 1,3,-1
 420 1007 l 1,4,-1
 501 1075 l 2,5,6
 555 1120 555 1120 614 1120 c 0,7,8
 666 1120 666 1120 702 1112 c 0,9,10
 833 1082 833 1082 919 1000 c 0,11,12
 1050 875 1050 875 1050 673 c 2,13,-1
 1050 203 l 1,14,-1
 760 -40 l 1,15,-1
 750 -40 l 1,16,-1
 750 673 l 2,17,18
 750 755 750 755 701 798 c 0,19,20
 652 840 652 840 582 840 c 0,21,22
 510 840 510 840 467 798 c 0,23,24
 420 754 420 754 420 673 c 2,25,-1
 420 195 l 1,26,-1
 140 -40 l 1,27,-1
 130 -40 l 1,0,-1
EndSplineSet
Validated: 1
EndChar

StartChar: o
Encoding: 111 111 82
Width: 1070
GlyphClass: 2
Flags: W
HStem: -20 280<419.272 618.208> 840 280<451.331 650.728>
VStem: 70 300<308.27 784.893> 700 300<315.107 791.73>
LayerCount: 2
Fore
SplineSet
506 -20 m 0,0,1
 454 -20 454 -20 418 -12 c 0,2,3
 286 18 286 18 201 100 c 0,4,5
 70 225 70 225 70 427 c 2,6,-1
 70 652 l 2,7,8
 70 716 70 716 95 758 c 0,9,10
 117 795 117 795 166 836 c 2,11,-1
 451 1075 l 2,12,13
 506 1120 506 1120 564 1120 c 0,14,15
 616 1120 616 1120 652 1112 c 0,16,17
 783 1082 783 1082 869 1000 c 0,18,19
 1000 875 1000 875 1000 673 c 2,20,-1
 1000 448 l 2,21,22
 1000 385 1000 385 975 342 c 0,23,24
 954 306 954 306 904 264 c 2,25,-1
 619 25 l 2,26,27
 564 -20 564 -20 506 -20 c 0,0,1
538 260 m 128,-1,29
 608 260 608 260 653 302 c 0,30,31
 700 346 700 346 700 427 c 2,32,-1
 700 673 l 2,33,34
 700 755 700 755 651 798 c 0,35,36
 602 840 602 840 532 840 c 0,37,38
 460 840 460 840 417 798 c 0,39,40
 370 754 370 754 370 673 c 2,41,-1
 370 427 l 2,42,43
 370 343 370 343 419 302 c 0,44,28
 468 260 468 260 538 260 c 128,-1,29
EndSplineSet
Validated: 1
EndChar

StartChar: p
Encoding: 112 112 83
Width: 1120
GlyphClass: 2
Flags: W
HStem: -450 21G<130 163.83> -20 280<468.401 668.669> 840 280<501.792 700.728> 1120 20G<386.17 420>
VStem: 130 290<-215 35 306.117 795.214> 750 300<315.107 791.73>
LayerCount: 2
Fore
SplineSet
582 840 m 128,-1,1
 512 840 512 840 467 798 c 0,2,3
 420 754 420 754 420 673 c 2,4,-1
 420 427 l 2,5,6
 420 345 420 345 469 302 c 0,7,8
 518 260 518 260 588 260 c 0,9,10
 660 260 660 260 703 302 c 0,11,12
 750 346 750 346 750 427 c 2,13,-1
 750 673 l 2,14,15
 750 757 750 757 701 798 c 0,16,0
 652 840 652 840 582 840 c 128,-1,1
559 -20 m 0,17,18
 477 -20 477 -20 420 35 c 9,19,-1
 420 -215 l 1,20,-1
 140 -450 l 1,21,-1
 130 -450 l 1,22,-1
 130 905 l 1,23,-1
 410 1140 l 1,24,-1
 420 1140 l 1,25,-1
 420 1007 l 1,26,-1
 501 1075 l 2,27,28
 555 1120 555 1120 614 1120 c 0,29,30
 666 1120 666 1120 702 1112 c 0,31,32
 834 1082 834 1082 919 1000 c 0,33,34
 1050 875 1050 875 1050 673 c 2,35,-1
 1050 448 l 2,36,37
 1050 384 1050 384 1025 342 c 0,38,39
 1003 305 1003 305 954 264 c 2,40,-1
 669 25 l 2,41,42
 615 -20 615 -20 559 -20 c 0,17,18
EndSplineSet
Validated: 1
EndChar

StartChar: q
Encoding: 113 113 84
Width: 1120
GlyphClass: 2
Flags: W
HStem: -450 21G<700 733.83> -20 280<419.272 618.669> 840 280<451.792 650.728>
VStem: 70 300<308.27 784.893> 700 290<-215 93 304.786 790.326>
LayerCount: 2
Fore
SplineSet
532 840 m 128,-1,1
 462 840 462 840 417 798 c 0,2,3
 370 754 370 754 370 673 c 2,4,-1
 370 427 l 2,5,6
 370 345 370 345 419 302 c 0,7,8
 468 260 468 260 538 260 c 0,9,10
 610 260 610 260 653 302 c 0,11,12
 700 346 700 346 700 427 c 2,13,-1
 700 673 l 2,14,15
 700 757 700 757 651 798 c 0,16,0
 602 840 602 840 532 840 c 128,-1,1
506 -20 m 0,17,18
 454 -20 454 -20 418 -12 c 0,19,20
 287 18 287 18 201 100 c 0,21,22
 70 225 70 225 70 427 c 2,23,-1
 70 652 l 2,24,25
 70 715 70 715 95 758 c 0,26,27
 116 794 116 794 166 836 c 2,28,-1
 451 1075 l 2,29,30
 505 1120 505 1120 564 1120 c 0,31,32
 616 1120 616 1120 652 1112 c 0,33,34
 784 1082 784 1082 869 1000 c 0,35,36
 990 885 990 885 990 673 c 2,37,-1
 990 -215 l 1,38,-1
 710 -450 l 1,39,-1
 700 -450 l 1,40,-1
 700 93 l 1,41,-1
 619 25 l 2,42,43
 565 -20 565 -20 506 -20 c 0,17,18
EndSplineSet
Validated: 1
EndChar

StartChar: r
Encoding: 114 114 85
Width: 1031
GlyphClass: 2
Flags: W
HStem: -40 21G<130 163.83> 840 280<501.331 700.728> 1120 20G<386.17 420>
VStem: 130 290<195 795.214>
LayerCount: 2
Fore
SplineSet
130 -40 m 1,0,-1
 130 905 l 1,1,-1
 410 1140 l 1,2,-1
 420 1140 l 1,3,-1
 420 1007 l 1,4,-1
 501 1075 l 2,5,6
 555 1120 555 1120 614 1120 c 0,7,8
 666 1120 666 1120 702 1112 c 0,9,10
 833 1082 833 1082 919 1000 c 0,11,12
 994 928 994 928 1026 833 c 1,13,-1
 760 610 l 1,14,-1
 750 610 l 1,15,-1
 750 673 l 2,16,17
 750 755 750 755 701 798 c 0,18,19
 652 840 652 840 582 840 c 0,20,21
 510 840 510 840 467 798 c 0,22,23
 420 754 420 754 420 673 c 2,24,-1
 420 195 l 1,25,-1
 140 -40 l 1,26,-1
 130 -40 l 1,0,-1
EndSplineSet
Validated: 1
EndChar

StartChar: s
Encoding: 115 115 86
Width: 1020
GlyphClass: 2
Flags: W
HStem: -20 281<360.663 590.842> 455 263<408.382 647.738> 869 251<420.613 619.963>
VStem: 112 274<672.5 848.639> 682 288<309.006 433.13>
LayerCount: 2
Fore
SplineSet
482 -20 m 0,0,1
 437 -20 437 -20 393 -12 c 0,2,3
 250 14 250 14 147 103 c 0,4,5
 80 161 80 161 50 251 c 1,6,-1
 292 455 l 1,7,-1
 302 455 l 1,8,9
 302 348 302 348 367 299 c 0,10,11
 417 261 417 261 504 261 c 0,12,13
 590 261 590 261 637 300 c 0,14,15
 682 337 682 337 682 376 c 0,16,17
 682 412 682 412 649 432 c 0,18,19
 609 455 609 455 520 455 c 0,20,21
 320 455 320 455 216 534 c 128,-1,22
 112 613 112 613 112 732 c 0,23,24
 112 817 112 817 190 882 c 2,25,-1
 419 1074 l 2,26,27
 474 1120 474 1120 532 1120 c 0,28,29
 693 1120 693 1120 797 1037 c 0,30,31
 856 990 856 990 894 925 c 1,32,-1
 678 744 l 1,33,-1
 668 744 l 1,34,35
 656 802 656 802 614 838 c 0,36,37
 578 869 578 869 510 869 c 0,38,39
 455 869 455 869 420.5 845.5 c 128,-1,40
 386 822 386 822 386 790 c 128,-1,41
 386 758 386 758 407 745 c 0,42,43
 451 718 451 718 522 718 c 8,44,45
 759 718 759 718 850 648 c 0,46,47
 970 555 970 555 970 413 c 0,48,49
 970 375 970 375 949 339 c 0,50,51
 931 309 931 309 870 258 c 2,52,-1
 593 26 l 2,53,54
 538 -20 538 -20 482 -20 c 0,0,1
EndSplineSet
Validated: 1
EndChar

StartChar: t
Encoding: 116 116 87
Width: 832
GlyphClass: 2
Flags: W
HStem: -40 21G<271 304.83> 920 180<147 271 561 685> 1530 20G<527.17 561>
VStem: 271 290<195 920 1100 1315>
LayerCount: 2
Fore
SplineSet
271 -40 m 1,0,-1
 271 920 l 1,1,-1
 5 920 l 1,2,-1
 5 930 l 1,3,-1
 147 1100 l 1,4,-1
 271 1100 l 1,5,-1
 271 1315 l 1,6,-1
 551 1550 l 1,7,-1
 561 1550 l 1,8,-1
 561 1100 l 1,9,-1
 827 1100 l 1,10,-1
 827 1090 l 1,11,-1
 685 920 l 1,12,-1
 561 920 l 1,13,-1
 561 195 l 1,14,-1
 281 -40 l 1,15,-1
 271 -40 l 1,0,-1
EndSplineSet
Validated: 19457
EndChar

StartChar: u
Encoding: 117 117 88
Width: 1140
GlyphClass: 2
Flags: W
HStem: -40 21G<720 753.83> -20 280<439.272 638.669> 1120 20G<356.132 390 976.17 1010>
VStem: 90 300<308.27 897> 720 290<304.786 905>
LayerCount: 2
Fore
SplineSet
730 -40 m 1,0,-1
 720 -40 l 1,1,-1
 720 93 l 1,2,-1
 639 25 l 2,3,4
 585 -20 585 -20 526 -20 c 0,5,6
 474 -20 474 -20 438 -12 c 0,7,8
 307 18 307 18 221 100 c 0,9,10
 90 225 90 225 90 427 c 2,11,-1
 90 897 l 1,12,-1
 380 1140 l 1,13,-1
 390 1140 l 1,14,-1
 390 427 l 2,15,16
 390 345 390 345 439 302 c 0,17,18
 488 260 488 260 558 260 c 0,19,20
 630 260 630 260 673 302 c 0,21,22
 720 346 720 346 720 427 c 2,23,-1
 720 905 l 1,24,-1
 1000 1140 l 1,25,-1
 1010 1140 l 1,26,-1
 1010 195 l 1,27,-1
 730 -40 l 1,0,-1
EndSplineSet
Validated: 1
EndChar

StartChar: v
Encoding: 118 118 89
Width: 1190
GlyphClass: 2
Flags: W
HStem: -20 280<479.272 678.208> 1100 20G<210.185 334.5 952.5 1150>
VStem: 130 295<313.849 925.289> 765 295<314.672 964.33>
LayerCount: 2
Fore
SplineSet
566 -20 m 0,0,1
 514 -20 514 -20 478 -12 c 0,2,3
 347 17 347 17 261 100 c 0,4,5
 130 225 130 225 130 427 c 2,6,-1
 130 833 l 2,7,8
 130 929 130 929 28 947 c 1,9,-1
 234 1120 l 1,10,-1
 244 1120 l 1,11,12
 425 1056 425 1056 425 846 c 2,13,-1
 425 427 l 2,14,15
 425 348 425 348 479 302 c 0,16,17
 528 260 528 260 598 260 c 128,-1,18
 668 260 668 260 713 302 c 0,19,20
 765 351 765 351 765 427 c 2,21,-1
 765 774 l 2,22,23
 765 1100 765 1100 1140 1140 c 1,24,-1
 1150 1140 l 1,25,26
 1060 975 1060 975 1060 768 c 2,27,-1
 1060 448 l 2,28,29
 1060 385 1060 385 1035 342 c 0,30,31
 1014 306 1014 306 964 264 c 2,32,-1
 679 25 l 2,33,34
 625 -20 625 -20 566 -20 c 0,0,1
EndSplineSet
Validated: 1
EndChar

StartChar: w
Encoding: 119 119 90
Width: 1825
GlyphClass: 2
Flags: W
HStem: -20 280<479.272 678.208 1114.27 1313.21> 1100 40G<210.185 334.5 1031.13 1065 1587.5 1785>
VStem: 130 295<313.849 925.289> 765 295<311.425 897> 1400 295<314.672 964.33>
CounterMasks: 1 38
LayerCount: 2
Fore
SplineSet
566 -20 m 0,0,1
 514 -20 514 -20 478 -12 c 0,2,3
 346 18 346 18 261 100 c 0,4,5
 130 225 130 225 130 427 c 2,6,-1
 130 833 l 2,7,8
 130 929 130 929 28 947 c 1,9,-1
 234 1120 l 1,10,-1
 244 1120 l 1,11,12
 425 1056 425 1056 425 846 c 2,13,-1
 425 427 l 2,14,15
 425 348 425 348 479 302 c 0,16,17
 528 260 528 260 598 260 c 128,-1,18
 668 260 668 260 713 302 c 0,19,20
 765 351 765 351 765 427 c 2,21,-1
 765 897 l 1,22,-1
 1055 1140 l 1,23,-1
 1065 1140 l 1,24,-1
 1060 427 l 2,25,26
 1060 348 1060 348 1114 302 c 0,27,28
 1163 260 1163 260 1233 260 c 128,-1,29
 1303 260 1303 260 1348 302 c 0,30,31
 1400 351 1400 351 1400 427 c 2,32,-1
 1400 774 l 2,33,34
 1400 1100 1400 1100 1775 1140 c 1,35,-1
 1785 1140 l 1,36,37
 1695 975 1695 975 1695 768 c 2,38,-1
 1695 448 l 2,39,40
 1695 385 1695 385 1670 342 c 0,41,42
 1649 306 1649 306 1599 264 c 2,43,-1
 1314 25 l 2,44,45
 1260 -20 1260 -20 1201 -20 c 0,46,47
 1148 -20 1148 -20 1113 -12 c 0,48,49
 981 18 981 18 896 100 c 0,50,51
 866 129 866 129 842 162 c 1,52,-1
 679 25 l 2,53,54
 625 -20 625 -20 566 -20 c 0,0,1
EndSplineSet
Validated: 1
EndChar

StartChar: x
Encoding: 120 120 91
Width: 1120
GlyphClass: 2
Flags: W
HStem: -40 21G<110 143.849 715 748.849> 409 280<454.442 665.497> 1120 20G<371.151 405 976.151 1010>
VStem: 110 295<199 362.458 738.188 901> 715 295<199 360.438 734.322 901>
LayerCount: 2
Fore
SplineSet
110 -40 m 1,0,-1
 110 230 l 2,1,2
 110 295 110 295 135 336 c 0,3,4
 159 375 159 375 205 411 c 2,5,-1
 297 483 l 1,6,7
 110 595 110 595 110 862 c 2,8,-1
 110 901 l 1,9,-1
 395 1140 l 1,10,-1
 405 1140 l 1,11,-1
 405 866 l 2,12,13
 405 772 405 772 453 730 c 0,14,15
 499 689 499 689 564 689 c 0,16,17
 628 689 628 689 671 730 c 0,18,19
 715 772 715 772 715 865 c 2,20,-1
 715 901 l 1,21,-1
 1000 1140 l 1,22,-1
 1010 1140 l 1,23,-1
 1010 869 l 2,24,25
 1010 808 1010 808 988 767 c 0,26,27
 964 724 964 724 915 687 c 2,28,-1
 821 616 l 1,29,30
 1010 503 1010 503 1010 237 c 2,31,-1
 1010 199 l 1,32,-1
 725 -40 l 1,33,-1
 715 -40 l 1,34,-1
 715 233 l 2,35,36
 715 328 715 328 667 368 c 0,37,38
 619 409 619 409 559 409 c 0,39,40
 493 409 493 409 449 368 c 0,41,42
 405 328 405 328 405 234 c 2,43,-1
 405 199 l 1,44,-1
 120 -40 l 1,45,-1
 110 -40 l 1,0,-1
EndSplineSet
Validated: 1
EndChar

StartChar: y
Encoding: 121 121 92
Width: 1140
GlyphClass: 2
Flags: W
HStem: -450 280<437.109 638.669> -20 280<439.272 638.669> 1120 20G<356.132 390 976.17 1010>
VStem: 90 300<308.27 897> 720 290<-123.794 93 304.786 905>
LayerCount: 2
Fore
SplineSet
526 -20 m 0,0,1
 474 -20 474 -20 438 -12 c 0,2,3
 307 18 307 18 221 100 c 0,4,5
 90 225 90 225 90 427 c 2,6,-1
 90 897 l 1,7,-1
 380 1140 l 1,8,-1
 390 1140 l 1,9,-1
 390 427 l 2,10,11
 390 345 390 345 439 302 c 0,12,13
 488 260 488 260 558 260 c 0,14,15
 630 260 630 260 673 302 c 0,16,17
 720 346 720 346 720 427 c 2,18,-1
 720 905 l 1,19,-1
 1000 1140 l 1,20,-1
 1010 1140 l 1,21,-1
 1010 9 l 2,22,23
 1010 -55 1010 -55 985 -97 c 0,24,25
 962 -135 962 -135 914 -175 c 2,26,-1
 639 -405 l 2,27,28
 585 -450 585 -450 526 -450 c 0,29,30
 474 -450 474 -450 438 -442 c 0,31,32
 310 -413 310 -413 221 -330 c 0,33,34
 193 -304 193 -304 172 -274 c 1,35,-1
 390 -72 l 1,36,37
 409 -103 409 -103 439 -128 c 0,38,39
 488 -170 488 -170 558 -170 c 0,40,41
 630 -170 630 -170 673 -128 c 0,42,43
 720 -84 720 -84 720 -3 c 2,44,-1
 720 93 l 1,45,-1
 639 25 l 2,46,47
 585 -20 585 -20 526 -20 c 0,0,1
EndSplineSet
Validated: 1
EndChar

StartChar: z
Encoding: 122 122 93
Width: 1045
GlyphClass: 2
Flags: W
HStem: 0 180<449 843> 362 180<242 249 654 823> 920 180<292 565>
LayerCount: 2
Fore
SplineSet
50 0 m 1,0,-1
 50 10 l 1,1,-1
 249 362 l 1,2,-1
 100 362 l 1,3,-1
 100 372 l 1,4,-1
 242 542 l 1,5,-1
 351 542 l 1,6,-1
 565 920 l 1,7,-1
 150 920 l 1,8,-1
 150 930 l 1,9,-1
 292 1100 l 1,10,-1
 965 1100 l 1,11,-1
 965 1090 l 1,12,-1
 654 542 l 1,13,-1
 965 542 l 1,14,-1
 965 532 l 1,15,-1
 823 362 l 1,16,-1
 552 362 l 1,17,-1
 449 180 l 1,18,-1
 985 180 l 1,19,-1
 985 170 l 1,20,-1
 843 0 l 1,21,-1
 50 0 l 1,0,-1
EndSplineSet
Validated: 1
EndChar

StartChar: braceleft
Encoding: 123 123 94
Width: 971
GlyphClass: 2
Flags: W
HStem: -240 300<707.411 849>
VStem: 283 320<165.119 610 899 1327.2>
LayerCount: 2
Fore
SplineSet
966 1743 m 1,0,-1
 847 1450 l 1,1,2
 748 1450 748 1450 675.5 1378 c 128,-1,3
 603 1306 603 1306 603 1201 c 2,4,-1
 603 309 l 2,5,6
 603 200 603 200 676.5 130 c 128,-1,7
 750 60 750 60 849 60 c 1,8,-1
 930 -194 l 1,9,10
 875 -240 875 -240 823 -240 c 0,11,12
 581 -240 581 -240 418 -61 c 0,13,14
 283 87 283 87 283 309 c 2,15,-1
 283 610 l 1,16,-1
 5 610 l 1,17,-1
 5 620 l 1,18,-1
 239 899 l 1,19,-1
 283 899 l 1,20,-1
 283 1190 l 2,21,22
 283 1252 283 1252 305 1296 c 0,23,24
 323 1332 323 1332 378 1378 c 2,25,-1
 766 1704 l 2,26,27
 821 1750 821 1750 873 1750 c 0,28,29
 921 1750 921 1750 966 1743 c 1,0,-1
EndSplineSet
Validated: 19457
EndChar

StartChar: bar
Encoding: 124 124 95
Width: 630
GlyphClass: 2
Flags: W
VStem: 180 270<-22 1532>
LayerCount: 2
Fore
SplineSet
180 -240 m 1,0,-1
 180 1532 l 1,1,-1
 440 1750 l 1,2,-1
 450 1750 l 1,3,-1
 450 -22 l 1,4,-1
 190 -240 l 1,5,-1
 180 -240 l 1,0,-1
EndSplineSet
Validated: 1
EndChar

StartChar: braceright
Encoding: 125 125 96
Width: 971
GlyphClass: 2
Flags: W
HStem: 1450 300<122 263.589>
VStem: 368 320<182.803 611 900 1344.88>
LayerCount: 2
Fore
SplineSet
5 -233 m 1,0,-1
 124 60 l 1,1,2
 223 60 223 60 295.5 132 c 128,-1,3
 368 204 368 204 368 309 c 2,4,-1
 368 1201 l 2,5,6
 368 1310 368 1310 294.5 1380 c 128,-1,7
 221 1450 221 1450 122 1450 c 1,8,-1
 41 1704 l 1,9,10
 96 1750 96 1750 148 1750 c 0,11,12
 390 1750 390 1750 553 1571 c 0,13,14
 688 1423 688 1423 688 1201 c 2,15,-1
 688 900 l 1,16,-1
 966 900 l 1,17,-1
 966 890 l 1,18,-1
 732 611 l 1,19,-1
 688 611 l 1,20,-1
 688 320 l 2,21,22
 688 258 688 258 666 214 c 0,23,24
 648 178 648 178 593 132 c 2,25,-1
 205 -194 l 2,26,27
 150 -240 150 -240 98 -240 c 0,28,29
 50 -240 50 -240 5 -233 c 1,0,-1
EndSplineSet
Validated: 1
EndChar

StartChar: asciitilde
Encoding: 126 126 97
Width: 1258
GlyphClass: 2
Flags: W
HStem: 505 181<730.5 942.412> 824 181<315.588 528.5>
VStem: 80 223<628 798.75> 955 223<711.25 882>
LayerCount: 2
Fore
SplineSet
1105 1030 m 1,0,1
 1178 932 1178 932 1178 798 c 24,2,3
 1178 749 1178 749 1144 720 c 2,4,-1
 924 533 l 2,5,6
 891 505 891 505 849 505 c 0,7,8
 612 505 612 505 500 660 c 24,9,10
 382 824 382 824 337 824 c 0,11,12
 303 824 303 824 303 791 c 0,13,14
 303 738 303 738 381 660 c 1,15,-1
 168 480 l 1,16,-1
 153 480 l 1,17,18
 80 578 80 578 80 712 c 24,19,20
 80 761 80 761 114 790 c 2,21,-1
 334 977 l 2,22,23
 367 1005 367 1005 409 1005 c 0,24,25
 648 1005 648 1005 758 850 c 0,26,27
 874 686 874 686 921 686 c 0,28,29
 955 686 955 686 955 719 c 0,30,31
 955 772 955 772 877 850 c 1,32,-1
 1090 1030 l 1,33,-1
 1105 1030 l 1,0,1
EndSplineSet
Validated: 1
EndChar

StartChar: exclamdown
Encoding: 161 161 99
Width: 579
VWidth: 1618
GlyphClass: 2
Flags: W
HStem: -450 21G<119 152.913> 1100 20G<293.5 316.5>
VStem: 106 367<857.508 1011.09> 161 258<427.179 555>
LayerCount: 2
Fore
SplineSet
129 -450 m 1,0,-1
 119 -450 l 1,1,-1
 161 555 l 1,2,-1
 409 763 l 1,3,-1
 419 763 l 1,4,-1
 459 -174 l 1,5,-1
 129 -450 l 1,0,-1
307 1120 m 0,6,7
 326 1120 326 1120 350 1111 c 0,8,9
 397 1093 397 1093 430 1050 c 0,10,11
 473 994 473 994 473 936 c 0,12,13
 473 893 473 893 439 865 c 2,14,-1
 323 768 l 2,15,16
 298 747 298 747 271 747 c 0,17,18
 252 747 252 747 229 756 c 0,19,20
 180 775 180 775 149 817 c 0,21,22
 106 873 106 873 106 931 c 0,23,24
 106 974 106 974 140 1002 c 2,25,-1
 255 1099 l 2,26,27
 280 1120 280 1120 307 1120 c 0,6,7
EndSplineSet
Validated: 1
EndChar

StartChar: cent
Encoding: 162 162 100
Width: 1090
GlyphClass: 2
Flags: W
VStem: 90 300<308.27 784.893> 505 100<-64 -20 267 833 1120 1164>
DStem2: 1020 594 924 264 0.76514 0.643864<-527.633 -128.714>
LayerCount: 2
Fore
SplineSet
1020 448 m 1026,0,1
505 -20 m 1,2,3
 466 -19 466 -19 438 -12 c 0,4,5
 306 18 306 18 221 100 c 0,6,7
 90 225 90 225 90 427 c 2,8,-1
 90 652 l 2,9,10
 90 716 90 716 115 758 c 0,11,12
 137 795 137 795 186 836 c 2,13,-1
 471 1075 l 2,14,15
 488 1089 488 1089 505 1099 c 1,16,-1
 505 1164 l 1,17,-1
 595 1240 l 1,18,-1
 605 1240 l 1,19,-1
 605 1120 l 1,20,21
 644 1119 644 1119 672 1112 c 0,22,23
 803 1082 803 1082 889 1000 c 0,24,25
 964 928 964 928 996 833 c 1,26,-1
 730 610 l 1,27,-1
 720 610 l 1,28,-1
 720 673 l 2,29,30
 720 755 720 755 671 798 c 0,31,32
 642 823 642 823 605 833 c 1,33,-1
 605 266 l 1,34,35
 642 276 642 276 673 302 c 2,36,-1
 1020 594 l 1,37,-1
 1020 448 l 2,38,39
 1020 387 1020 387 995 342 c 0,40,41
 975 307 975 307 924 264 c 2,42,-1
 639 25 l 2,43,44
 622 11 622 11 605 1 c 1,45,-1
 605 -64 l 1,46,-1
 515 -140 l 1,47,-1
 505 -140 l 1,48,-1
 505 -20 l 1,2,3
505 267 m 1,49,-1
 505 835 l 1,50,51
 465 825 465 825 437 798 c 0,52,53
 390 754 390 754 390 673 c 2,54,-1
 390 427 l 2,55,56
 390 343 390 343 439 302 c 0,57,58
 468 277 468 277 505 267 c 1,49,-1
EndSplineSet
Validated: 1
EndChar

StartChar: sterling
Encoding: 163 163 101
Width: 1258
GlyphClass: 2
Flags: W
HStem: 0 210<177 200 520 1061> 480 210<177 200 520 824> 1229 301<596.867 782.919>
VStem: 200 320<210 480 690 1180.75>
LayerCount: 2
Fore
SplineSet
10 0 m 1,0,-1
 10 10 l 1,1,-1
 177 210 l 1,2,-1
 200 210 l 1,3,-1
 200 480 l 1,4,-1
 10 480 l 1,5,-1
 10 490 l 1,6,-1
 177 690 l 1,7,-1
 200 690 l 1,8,-1
 200 1047 l 2,9,10
 200 1112 200 1112 224 1152 c 128,-1,11
 248 1192 248 1192 295 1232 c 2,12,-1
 595 1484 l 2,13,14
 650 1530 650 1530 707 1530 c 0,15,16
 763 1530 763 1530 796 1522 c 0,17,18
 932 1490 932 1490 1013 1406 c 0,19,20
 1084 1333 1084 1333 1111 1253 c 1,21,-1
 834 1021 l 1,22,-1
 824 1021 l 1,23,-1
 824 1061 l 2,24,25
 824 1149 824 1149 782 1188 c 0,26,27
 741 1229 741 1229 671 1229 c 0,28,29
 604 1229 604 1229 562 1188 c 0,30,31
 520 1149 520 1149 520 1061 c 2,32,-1
 520 690 l 1,33,-1
 991 690 l 1,34,-1
 991 680 l 1,35,-1
 824 480 l 1,36,-1
 520 480 l 1,37,-1
 520 210 l 1,38,-1
 1228 210 l 1,39,-1
 1228 200 l 1,40,-1
 1061 0 l 1,41,-1
 10 0 l 1,0,-1
EndSplineSet
Validated: 19457
EndChar

StartChar: currency
Encoding: 164 164 102
Width: 1579
GlyphClass: 2
Flags: W
HStem: 179 300<651.491 872.048> 977 300<711.952 932.823>
VStem: 227 320<582.621 855.306> 1037 320<600.694 873.004>
LayerCount: 2
Fore
SplineSet
817 1277 m 0,0,1
 972 1277 972 1277 1094 1205 c 1,2,-1
 1142 1249 l 1,3,-1
 1492 1198 l 1,4,-1
 1499 1191 l 1,5,-1
 1293 998 l 1,6,7
 1357 880 1357 880 1357 728 c 0,8,9
 1357 677 1357 677 1335 633 c 0,10,11
 1317 597 1317 597 1262 551 c 2,12,-1
 1177 479 l 1,13,-1
 1368 302 l 1,14,-1
 1361 295 l 1,15,-1
 1012 242 l 1,16,-1
 956 294 l 1,17,-1
 874 225 l 2,18,19
 819 179 819 179 767 179 c 0,20,21
 613 179 613 179 491 251 c 1,22,-1
 436 199 l 1,23,-1
 87 252 l 1,24,-1
 80 259 l 1,25,-1
 291 457 l 1,26,27
 227 575 227 575 227 728 c 0,28,29
 227 779 227 779 249 823 c 0,30,31
 267 859 267 859 322 905 c 2,32,-1
 406 976 l 1,33,-1
 215 1153 l 1,34,-1
 222 1160 l 1,35,-1
 572 1213 l 1,36,-1
 627 1161 l 1,37,-1
 710 1231 l 2,38,39
 765 1277 765 1277 817 1277 c 0,0,1
547 728 m 0,40,41
 547 619 547 619 620.5 549 c 128,-1,42
 694 479 694 479 793 479 c 128,-1,43
 892 479 892 479 964.5 551 c 128,-1,44
 1037 623 1037 623 1037 728 c 0,45,46
 1037 837 1037 837 963.5 907 c 128,-1,47
 890 977 890 977 791 977 c 128,-1,48
 692 977 692 977 619.5 905 c 128,-1,49
 547 833 547 833 547 728 c 0,40,41
EndSplineSet
Validated: 1
EndChar

StartChar: yen
Encoding: 165 165 103
Width: 1251
GlyphClass: 2
Flags: W
HStem: -40 21G<465.955 499.846> 408 160<245 435 807 1006> 658 160<245 310 925 1006> 1530 20G<275.172 318.931 1001.51 1044.84>
VStem: 465 321<220 408>
DStem2: 309 1550 50 1341 0.445823 -0.895121<71.612 655.674> 668 827 925 818 0.428414 0.903583<101.97 745.194>
LayerCount: 2
Fore
SplineSet
466 -40 m 1,0,-1
 465 408 l 1,1,-1
 120 408 l 1,2,-1
 120 418 l 1,3,-1
 245 568 l 1,4,-1
 435 568 l 1,5,-1
 390 658 l 1,6,-1
 120 658 l 1,7,-1
 120 668 l 1,8,-1
 245 818 l 1,9,-1
 310 818 l 1,10,-1
 50 1341 l 1,11,-1
 299 1550 l 1,12,-1
 309 1550 l 1,13,-1
 668 827 l 1,14,-1
 1011 1550 l 1,15,-1
 1021 1550 l 1,16,-1
 1201 1399 l 1,17,-1
 925 818 l 1,18,-1
 1131 818 l 1,19,-1
 1131 808 l 1,20,-1
 1006 658 l 1,21,-1
 850 658 l 1,22,-1
 807 568 l 1,23,-1
 1131 568 l 1,24,-1
 1131 558 l 1,25,-1
 1006 408 l 1,26,-1
 785 408 l 1,27,-1
 786 220 l 1,28,-1
 476 -40 l 1,29,-1
 466 -40 l 1,0,-1
EndSplineSet
Validated: 1
EndChar

StartChar: brokenbar
Encoding: 166 166 104
Width: 630
GlyphClass: 2
Flags: W
VStem: 180 270<-22 503 1007 1532>
LayerCount: 2
Fore
SplineSet
180 -240 m 1,0,-1
 180 503 l 1,1,-1
 440 721 l 1,2,-1
 450 721 l 1,3,-1
 450 -22 l 1,4,-1
 190 -240 l 1,5,-1
 180 -240 l 1,0,-1
450 1750 m 1,6,-1
 450 1007 l 1,7,-1
 190 789 l 1,8,-1
 180 789 l 1,9,-1
 180 1532 l 1,10,-1
 440 1750 l 1,11,-1
 450 1750 l 1,6,-1
EndSplineSet
Validated: 1
EndChar

StartChar: section
Encoding: 167 167 105
Width: 1070
GlyphClass: 2
Flags: W
HStem: -40 251<430.037 629.387> 362 263<402.262 641.618> 886 263<428.382 667.738> 1300 251<440.613 639.963>
VStem: 80 288<646.87 770.994> 132 274<1103.5 1279.64> 664 274<231.361 407.5> 702 288<740.006 864.13>
LayerCount: 2
Fore
SplineSet
518 -40 m 0,0,1
 357 -40 357 -40 253 43 c 0,2,3
 194 90 194 90 156 155 c 1,4,-1
 372 336 l 1,5,-1
 382 336 l 1,6,7
 394 278 394 278 436 242 c 0,8,9
 472 211 472 211 540 211 c 0,10,11
 595 211 595 211 629.5 234.5 c 128,-1,12
 664 258 664 258 664 290 c 128,-1,13
 664 322 664 322 643 335 c 0,14,15
 599 362 599 362 528 362 c 8,16,17
 291 362 291 362 200 432 c 0,18,19
 80 525 80 525 80 667 c 0,20,21
 80 705 80 705 101 741 c 0,22,23
 119 771 119 771 180 822 c 2,24,-1
 250 881 l 1,25,-1
 468 809 l 1,26,27
 436 799 436 799 413 780 c 0,28,29
 368 743 368 743 368 704 c 0,30,31
 368 668 368 668 401 648 c 0,32,33
 441 625 441 625 530 625 c 0,34,35
 730 625 730 625 834 546 c 128,-1,36
 938 467 938 467 938 348 c 0,37,38
 938 263 938 263 860 198 c 2,39,-1
 631 6 l 2,40,41
 576 -40 576 -40 518 -40 c 0,0,1
552 1551 m 0,42,43
 713 1551 713 1551 817 1468 c 0,44,45
 876 1421 876 1421 914 1356 c 1,46,-1
 698 1175 l 1,47,-1
 688 1175 l 1,48,49
 676 1233 676 1233 634 1269 c 0,50,51
 598 1300 598 1300 530 1300 c 0,52,53
 475 1300 475 1300 440.5 1276.5 c 128,-1,54
 406 1253 406 1253 406 1221 c 128,-1,55
 406 1189 406 1189 427 1176 c 0,56,57
 471 1149 471 1149 542 1149 c 8,58,59
 779 1149 779 1149 870 1079 c 0,60,61
 990 986 990 986 990 844 c 0,62,63
 990 806 990 806 969 770 c 0,64,65
 951 740 951 740 890 689 c 2,66,-1
 820 630 l 1,67,-1
 602 702 l 1,68,69
 634 712 634 712 657 731 c 0,70,71
 702 768 702 768 702 807 c 0,72,73
 702 843 702 843 669 863 c 0,74,75
 629 886 629 886 540 886 c 0,76,77
 340 886 340 886 236 965 c 128,-1,78
 132 1044 132 1044 132 1163 c 0,79,80
 132 1248 132 1248 210 1313 c 2,81,-1
 439 1505 l 2,82,83
 494 1551 494 1551 552 1551 c 0,42,43
EndSplineSet
Validated: 1
EndChar

StartChar: dieresis
Encoding: 168 168 106
Width: 739
GlyphClass: 2
Flags: W
HStem: 1190 336<124.511 246.777 492.511 614.777>
VStem: 20 331<1285.12 1430.88> 388 331<1285.12 1430.88>
LayerCount: 2
Fore
SplineSet
570 1526 m 4,0,1
 590 1526 590 1526 608 1518 c 4,2,3
 652 1501 652 1501 680 1463 c 4,4,5
 719 1413 719 1413 719 1360 c 4,6,7
 719 1320 719 1320 688 1296 c 6,8,-1
 584 1209 l 6,9,10
 562 1190 562 1190 538 1190 c 4,11,12
 518 1190 518 1190 499 1198 c 4,13,14
 457 1214 457 1214 427 1253 c 4,15,16
 388 1303 388 1303 388 1356 c 4,17,18
 388 1395 388 1395 419 1420 c 6,19,-1
 523 1507 l 6,20,21
 545 1526 545 1526 570 1526 c 4,0,1
202 1526 m 4,22,23
 222 1526 222 1526 240 1518 c 4,24,25
 284 1501 284 1501 312 1463 c 4,26,27
 351 1413 351 1413 351 1360 c 4,28,29
 351 1320 351 1320 320 1296 c 6,30,-1
 216 1209 l 6,31,32
 194 1190 194 1190 170 1190 c 4,33,34
 150 1190 150 1190 131 1198 c 4,35,36
 89 1214 89 1214 59 1253 c 4,37,38
 20 1303 20 1303 20 1356 c 4,39,40
 20 1395 20 1395 51 1420 c 6,41,-1
 155 1507 l 6,42,43
 177 1526 177 1526 202 1526 c 4,22,23
EndSplineSet
Validated: 19457
EndChar

StartChar: copyright
Encoding: 169 169 107
Width: 1261
GlyphClass: 2
Flags: W
HStem: 386 73<444.363 808.202> 542 188<548.888 702.605> 1166 190<556.345 703.434> 1453 77<446.855 814.866>
VStem: 80 74<768.815 1151.31> 326 203<748.921 1135.06> 1106 75<757.376 1158.43>
DStem2: 701 763 877 732 0.767404 0.641164<-77.8446 224.008>
LayerCount: 2
Fore
SplineSet
642 1356 m 0,0,1
 774 1356 774 1356 859 1260 c 0,2,3
 906 1207 906 1207 925 1129 c 1,4,-1
 739 973 l 1,5,-1
 729 973 l 1,6,-1
 729 1062 l 2,7,8
 729 1108 729 1108 699 1137 c 128,-1,9
 669 1166 669 1166 628 1166 c 128,-1,10
 587 1166 587 1166 558 1136 c 128,-1,11
 529 1106 529 1106 529 1062 c 2,12,-1
 529 836 l 2,13,14
 529 790 529 790 559 761 c 0,15,16
 591 730 591 730 626 730 c 0,17,18
 662 730 662 730 701 763 c 2,19,-1
 932 956 l 1,20,-1
 932 842 l 2,21,22
 932 778 932 778 877 732 c 2,23,-1
 683 569 l 2,24,25
 651 542 651 542 616 542 c 0,26,27
 486 542 486 542 406 630 c 128,-1,28
 326 718 326 718 326 836 c 2,29,-1
 326 1056 l 2,30,31
 326 1120 326 1120 381 1166 c 2,32,-1
 575 1329 l 2,33,34
 607 1356 607 1356 642 1356 c 0,0,1
631 1530 m 0,35,36
 873 1530 873 1530 1029 1357 c 0,37,38
 1181 1188 1181 1188 1181 953 c 0,39,40
 1181 701 1181 701 1020 549 c 0,41,42
 849 386 849 386 629 386 c 0,43,44
 406 386 406 386 241 549 c 0,45,46
 80 708 80 708 80 953 c 0,47,48
 80 1197 80 1197 238 1362 c 0,49,50
 399 1530 399 1530 631 1530 c 0,35,36
629 1453 m 0,51,52
 439 1453 439 1453 297 1312 c 0,53,54
 154 1170 154 1170 154 953 c 0,55,56
 154 760 154 760 294 605 c 0,57,58
 425 459 425 459 631 459 c 0,59,60
 822 459 822 459 967 605 c 0,61,62
 1106 745 1106 745 1106 953 c 0,63,64
 1106 1174 1106 1174 969 1309 c 0,65,66
 823 1453 823 1453 629 1453 c 0,51,52
EndSplineSet
Validated: 1
EndChar

StartChar: ordfeminine
Encoding: 170 170 108
Width: 735
VWidth: 1294
GlyphClass: 2
Flags: W
HStem: 823 180<162 573> 1030 154<301.269 433> 1316 137<301.828 432.407> 1490 160<278.718 428.967>
VStem: 127 170<1189.85 1310.88> 439 169<1188.61 1311.54>
LayerCount: 2
Fore
SplineSet
318 1295.5 m 128,-1,1
 297 1275 297 1275 297 1248 c 128,-1,2
 297 1221 297 1221 319.5 1202.5 c 128,-1,3
 342 1184 342 1184 370 1184 c 128,-1,4
 398 1184 398 1184 418.5 1205 c 128,-1,5
 439 1226 439 1226 439 1252 c 128,-1,6
 439 1278 439 1278 418 1297 c 128,-1,7
 397 1316 397 1316 368 1316 c 128,-1,0
 339 1316 339 1316 318 1295.5 c 128,-1,1
374 1650 m 0,8,9
 394 1650 394 1650 414 1646 c 0,10,11
 484 1630 484 1630 533 1587 c 0,12,13
 608 1520 608 1520 608 1414 c 2,14,-1
 608 1158 l 1,15,-1
 433 1030 l 1,16,-1
 423 1030 l 1,17,-1
 423 1070 l 1,18,19
 388 1040 388 1040 354 1040 c 0,20,21
 258 1040 258 1040 192 1093 c 0,22,23
 127 1145 127 1145 127 1220 c 0,24,25
 127 1277 127 1277 180 1322 c 2,26,-1
 315 1436 l 2,27,28
 335 1453 335 1453 378 1453 c 0,29,30
 404 1453 404 1453 433 1436 c 1,31,32
 413 1490 413 1490 350 1490 c 0,33,34
 320 1490 320 1490 281 1456 c 1,35,-1
 201 1543 l 1,36,-1
 296 1623 l 2,37,38
 328 1650 328 1650 374 1650 c 0,8,9
162 1003 m 1,39,-1
 715 1003 l 1,40,-1
 715 993 l 1,41,-1
 573 823 l 1,42,-1
 20 823 l 1,43,-1
 20 833 l 1,44,-1
 162 1003 l 1,39,-1
EndSplineSet
Validated: 19457
EndChar

StartChar: guillemotleft
Encoding: 171 171 109
Width: 1202
GlyphClass: 2
Flags: W
DStem2: 359 788 80 754 0.509525 -0.860456<0 396.849> 80 754 359 788 0.53743 0.843308<178.616 639.945> 824 788 545 754 0.509525 -0.860456<0 396.849> 545 754 824 788 0.53743 0.843308<178.616 639.945>
LayerCount: 2
Fore
SplineSet
921 1344 m 1,0,-1
 931 1344 l 1,1,-1
 1072 1177 l 1,2,-1
 824 788 l 1,3,-1
 1027 447 l 1,4,-1
 857 244 l 1,5,-1
 847 244 l 1,6,-1
 545 754 l 1,7,-1
 921 1344 l 1,0,-1
456 1344 m 1,8,-1
 466 1344 l 1,9,-1
 607 1177 l 1,10,-1
 359 788 l 1,11,-1
 562 447 l 1,12,-1
 392 244 l 1,13,-1
 382 244 l 1,14,-1
 80 754 l 1,15,-1
 456 1344 l 1,8,-1
EndSplineSet
Validated: 1
EndChar

StartChar: logicalnot
Encoding: 172 172 110
Width: 1194
GlyphClass: 2
Flags: W
HStem: 630 250<281 649>
VStem: 400 272<341 613>
LayerCount: 2
Fore
SplineSet
281 880 m 1,0,-1
 1114 880 l 1,1,-1
 1114 870 l 1,2,-1
 672 341 l 1,3,-1
 400 341 l 1,4,-1
 649 630 l 1,5,-1
 80 630 l 1,6,-1
 80 640 l 1,7,-1
 281 880 l 1,0,-1
EndSplineSet
Validated: 1
EndChar

StartChar: uni00AD
Encoding: 173 173 111
Width: 1194
GlyphClass: 2
Flags: W
HStem: 630 250<281 913>
LayerCount: 2
Fore
SplineSet
281 880 m 1,0,-1
 1114 880 l 1,1,-1
 1114 870 l 1,2,-1
 913 630 l 1,3,-1
 80 630 l 1,4,-1
 80 640 l 1,5,-1
 281 880 l 1,0,-1
EndSplineSet
Validated: 1
EndChar

StartChar: registered
Encoding: 174 174 112
Width: 1261
GlyphClass: 2
Flags: W
HStem: 386 73<444.363 808.202> 1453 77<446.855 814.866>
VStem: 80 74<768.815 1151.31> 359 200<708 734.688 857 1207> 743 202<993.758 1166.54> 1106 75<757.376 1158.43>
DStem2: 717 1005 572 908 0.562121 -0.827055<0 15.8108 190.854 432.787>
LayerCount: 2
Fore
SplineSet
629 1453 m 0,0,1
 439 1453 439 1453 297 1312 c 0,2,3
 154 1170 154 1170 154 953 c 0,4,5
 154 760 154 760 294 605 c 0,6,7
 425 459 425 459 631 459 c 0,8,9
 822 459 822 459 967 605 c 0,10,11
 1106 745 1106 745 1106 953 c 0,12,13
 1106 1174 1106 1174 969 1309 c 0,14,15
 823 1453 823 1453 629 1453 c 0,0,1
631 1530 m 0,16,17
 873 1530 873 1530 1029 1357 c 0,18,19
 1181 1188 1181 1188 1181 953 c 0,20,21
 1181 701 1181 701 1020 549 c 0,22,23
 849 386 849 386 629 386 c 0,24,25
 406 386 406 386 241 549 c 0,26,27
 80 708 80 708 80 953 c 0,28,29
 80 1197 80 1197 238 1362 c 0,30,31
 399 1530 399 1530 631 1530 c 0,16,17
676 1359 m 1,32,33
 783 1339 783 1339 853 1282 c 0,34,35
 945 1206 945 1206 945 1084 c 0,36,37
 945 940 945 940 828 842 c 1,38,-1
 961 646 l 1,39,-1
 826 549 l 1,40,-1
 816 549 l 1,41,-1
 674 757 l 1,42,43
 625 740 625 740 559 723 c 1,44,-1
 559 708 l 1,45,-1
 369 549 l 1,46,-1
 359 549 l 1,47,-1
 359 1207 l 1,48,-1
 549 1367 l 1,49,-1
 559 1367 l 1,50,-1
 559 1261 l 1,51,-1
 676 1359 l 1,32,33
559 1218 m 1,52,-1
 559 857 l 1,53,54
 578 865 578 865 595 874 c 1,55,-1
 572 908 l 1,56,-1
 707 1005 l 1,57,-1
 717 1005 l 1,58,-1
 726 992 l 1,59,60
 743 1026 743 1026 743 1065 c 0,61,62
 741 1198 741 1198 559 1218 c 1,52,-1
EndSplineSet
Validated: 1
EndChar

StartChar: macron
Encoding: 175 175 113
Width: 735
GlyphClass: 2
Flags: W
HStem: 1272 180<162 573>
LayerCount: 2
Fore
SplineSet
162 1452 m 5,0,-1
 715 1452 l 5,1,-1
 715 1442 l 5,2,-1
 573 1272 l 5,3,-1
 20 1272 l 5,4,-1
 20 1282 l 5,5,-1
 162 1452 l 5,0,-1
EndSplineSet
Validated: 19457
EndChar

StartChar: degree
Encoding: 176 176 114
Width: 680
GlyphClass: 2
Flags: W
HStem: 936 177<243.924 414.156> 1374 176<267.138 430.884>
VStem: 20 193<1145.03 1335.2> 466 194<1150.06 1340.04>
LayerCount: 2
Fore
SplineSet
360 1550 m 0,0,1
 396 1550 396 1550 421 1544 c 0,2,3
 511 1524 511 1524 569 1467 c 0,4,5
 660 1380 660 1380 660 1252 c 24,6,7
 660 1213 660 1213 644 1185 c 0,8,9
 630 1160 630 1160 595 1132 c 2,10,-1
 399 968 l 2,11,12
 361 936 361 936 321 936 c 0,13,14
 285 936 285 936 261 942 c 0,15,16
 170 962 170 962 111 1019 c 0,17,18
 20 1107 20 1107 20 1236 c 0,19,20
 20 1271 20 1271 37 1301 c 0,21,22
 52 1327 52 1327 86 1354 c 2,23,-1
 282 1518 l 2,24,25
 320 1550 320 1550 360 1550 c 0,0,1
339 1374 m 0,26,27
 289 1374 289 1374 250 1337 c 0,28,29
 213 1303 213 1303 213 1244 c 0,30,31
 213 1182 213 1182 248 1147.5 c 128,-1,32
 283 1113 283 1113 339.5 1113 c 128,-1,33
 396 1113 396 1113 432 1149 c 0,34,35
 466 1183 466 1183 466 1242.5 c 128,-1,36
 466 1302 466 1302 428 1339 c 0,37,38
 393 1374 393 1374 339 1374 c 0,26,27
EndSplineSet
Validated: 19457
EndChar

StartChar: plusminus
Encoding: 177 177 115
Width: 1194
GlyphClass: 2
Flags: W
HStem: 157 250<281 913> 826 250<281 472 722 913>
VStem: 472 250<635 826 1076 1267>
LayerCount: 2
Fore
SplineSet
281 407 m 1,0,-1
 1114 407 l 1,1,-1
 1114 397 l 1,2,-1
 913 157 l 1,3,-1
 80 157 l 1,4,-1
 80 167 l 1,5,-1
 281 407 l 1,0,-1
712 1468 m 1,6,-1
 722 1468 l 1,7,-1
 722 1076 l 1,8,-1
 1114 1076 l 1,9,-1
 1114 1066 l 1,10,-1
 913 826 l 1,11,-1
 722 826 l 1,12,-1
 722 635 l 1,13,-1
 482 434 l 1,14,-1
 472 434 l 1,15,-1
 472 826 l 1,16,-1
 80 826 l 1,17,-1
 80 836 l 1,18,-1
 281 1076 l 1,19,-1
 472 1076 l 1,20,-1
 472 1267 l 1,21,-1
 712 1468 l 1,6,-1
EndSplineSet
Validated: 1
EndChar

StartChar: uni00B2
Encoding: 178 178 116
Width: 650
VWidth: 1406
GlyphClass: 2
Flags: W
HStem: 864 150<281 513> 1463 187<261.072 410.677>
VStem: 36 200<1270.91 1444.93> 430 200<1289.49 1444.81>
LayerCount: 2
Fore
SplineSet
346 1650 m 0,0,1
 478 1650 478 1650 563 1556 c 0,2,3
 630 1482 630 1482 630 1373 c 0,4,5
 630 1208 630 1208 454 1125 c 0,6,7
 351 1076 351 1076 281 1014 c 1,8,-1
 630 1014 l 1,9,-1
 630 1004 l 1,10,-1
 513 864 l 1,11,-1
 20 864 l 1,12,-1
 20 874 l 1,13,14
 157 1158 157 1158 354 1267 c 0,15,16
 430 1309 430 1309 430 1372 c 0,17,18
 430 1418 430 1418 402 1440.5 c 128,-1,19
 374 1463 374 1463 332 1463 c 0,20,21
 289 1463 289 1463 263 1439 c 0,22,23
 236 1414 236 1414 236 1371 c 0,24,25
 236 1330 236 1330 263 1300 c 1,26,-1
 122 1182 l 1,27,-1
 112 1182 l 1,28,29
 36 1263 36 1263 36 1371 c 0,30,31
 36 1423 36 1423 90 1467 c 2,32,-1
 279 1622 l 2,33,34
 313 1650 313 1650 346 1650 c 0,0,1
EndSplineSet
Validated: 19457
EndChar

StartChar: uni00B3
Encoding: 179 179 117
Width: 624
VWidth: 1396
GlyphClass: 2
Flags: W
HStem: 834 191<230.351 376.951> 1490 150<181 306>
VStem: 404 200<1045.17 1195.85>
LayerCount: 2
Fore
SplineSet
181 1640 m 1,0,-1
 580 1640 l 1,1,-1
 580 1630 l 1,2,-1
 433 1371 l 1,3,4
 521 1344 521 1344 564 1276 c 0,5,6
 604 1212 604 1212 604 1120 c 0,7,8
 604 1067 604 1067 549 1021 c 2,9,-1
 360 862 l 2,10,11
 327 834 327 834 294 834 c 0,12,13
 163 834 163 834 76 931 c 0,14,15
 40 971 40 971 20 1025 c 1,16,-1
 197 1174 l 1,17,-1
 207 1174 l 1,18,-1
 207 1129 l 2,19,20
 207 1084 207 1084 236 1054 c 0,21,22
 265 1025 265 1025 307 1025 c 0,23,24
 351 1025 351 1025 377 1051 c 0,25,26
 404 1078 404 1078 404 1122 c 0,27,28
 403 1163 403 1163 376.5 1190 c 128,-1,29
 350 1217 350 1217 313.5 1217 c 128,-1,30
 277 1217 277 1217 238 1189 c 1,31,-1
 171 1247 l 1,32,-1
 306 1490 l 1,33,-1
 63 1490 l 1,34,-1
 63 1500 l 1,35,-1
 181 1640 l 1,0,-1
EndSplineSet
Validated: 19457
EndChar

StartChar: acute
Encoding: 180 180 118
Width: 463
GlyphClass: 2
Flags: W
HStem: 1151 419
VStem: 20 423
LayerCount: 2
Fore
SplineSet
232 1570 m 5,0,1
 242 1570 l 5,2,-1
 443 1401 l 5,3,4
 233 1353 233 1353 153 1151 c 5,5,-1
 143 1151 l 5,6,-1
 20 1254 l 5,7,8
 42 1437 42 1437 232 1570 c 5,0,1
EndSplineSet
Validated: 19457
EndChar

StartChar: uni00B5
Encoding: 181 181 119
Width: 1170
GlyphClass: 2
Flags: W
HStem: -450 21G<130 163.83> -40 21G<750 783.83> -20 280<468.099 668.669> 1120 20G<386.17 420 1006.17 1040>
VStem: 130 290<-215 1 306.117 905> 750 290<304.786 905>
LayerCount: 2
Fore
SplineSet
760 -40 m 1,0,-1
 750 -40 l 1,1,-1
 750 93 l 1,2,-1
 669 25 l 2,3,4
 615 -20 615 -20 556 -20 c 0,5,6
 504 -20 504 -20 468 -12 c 0,7,8
 443 -6 443 -6 420 1 c 1,9,-1
 420 -215 l 1,10,-1
 140 -450 l 1,11,-1
 130 -450 l 1,12,-1
 130 905 l 1,13,-1
 410 1140 l 1,14,-1
 420 1140 l 1,15,-1
 420 427 l 2,16,17
 420 345 420 345 469 302 c 0,18,19
 518 260 518 260 588 260 c 0,20,21
 660 260 660 260 703 302 c 0,22,23
 750 346 750 346 750 427 c 2,24,-1
 750 905 l 1,25,-1
 1030 1140 l 1,26,-1
 1040 1140 l 1,27,-1
 1040 195 l 1,28,-1
 760 -40 l 1,0,-1
EndSplineSet
Validated: 1
EndChar

StartChar: paragraph
Encoding: 182 182 120
Width: 1140
GlyphClass: 2
Flags: W
HStem: -40 21G<690 724> 1510 20G<545 600>
VStem: 690 130<60 624> 884 126<220 1138.28>
LayerCount: 2
Fore
SplineSet
690 -40 m 1,0,-1
 690 624 l 1,1,-1
 629 573 l 2,2,3
 574 527 574 527 516 527 c 0,4,5
 331 527 331 527 209 648 c 0,6,7
 80 776 80 776 80 973 c 2,8,-1
 80 1056 l 2,9,10
 80 1164 80 1164 176 1245 c 2,11,-1
 461 1484 l 2,12,13
 516 1530 516 1530 574 1530 c 0,14,15
 626 1530 626 1530 662 1522 c 0,16,17
 798 1492 798 1492 882 1409 c 0,18,19
 1010 1282 1010 1282 1010 1084 c 2,20,-1
 1010 220 l 1,21,-1
 884 114 l 1,22,-1
 884 1140 l 1,23,-1
 820 1086 l 1,24,-1
 820 60 l 1,25,-1
 700 -40 l 1,26,-1
 690 -40 l 1,0,-1
EndSplineSet
Validated: 1
EndChar

StartChar: periodcentered
Encoding: 183 183 121
Width: 407
GlyphClass: 2
Flags: W
HStem: 627 373<142.812 264.953>
VStem: 20 367<735.906 889.492>
LayerCount: 2
Fore
SplineSet
222 1000 m 0,0,1
 241 1000 241 1000 264 991 c 0,2,3
 313 972 313 972 344 930 c 0,4,5
 387 874 387 874 387 816 c 0,6,7
 387 773 387 773 353 745 c 2,8,-1
 238 648 l 2,9,10
 213 627 213 627 186 627 c 0,11,12
 167 627 167 627 143 636 c 0,13,14
 96 654 96 654 63 697 c 0,15,16
 20 753 20 753 20 811 c 0,17,18
 20 854 20 854 54 882 c 2,19,-1
 170 979 l 2,20,21
 195 1000 195 1000 222 1000 c 0,0,1
EndSplineSet
Validated: 19457
EndChar

StartChar: cedilla
Encoding: 184 184 122
Width: 493
GlyphClass: 2
Flags: W
HStem: -120 120<157 222.871>
VStem: 157 179<-64.011 0> 230 243<-263.519 -131.39>
LayerCount: 2
Fore
SplineSet
157 0 m 1,0,-1
 336 0 l 1,1,-1
 336 -45 l 1,2,3
 473 -93 473 -93 473 -226 c 0,4,5
 473 -470 473 -470 5 -470 c 1,6,-1
 5 -460 l 1,7,-1
 163 -271 l 1,8,9
 230 -258 230 -258 230 -196 c 0,10,11
 230 -141 230 -141 157 -120 c 1,12,-1
 157 0 l 1,0,-1
EndSplineSet
Validated: 19457
EndChar

StartChar: uni00B9
Encoding: 185 185 123
Width: 369
VWidth: 1401
GlyphClass: 2
Flags: W
VStem: 142 197<983 1329>
LayerCount: 2
Fore
SplineSet
329 1660 m 1,0,-1
 339 1660 l 1,1,-1
 339 983 l 1,2,-1
 152 826 l 1,3,-1
 142 826 l 1,4,-1
 142 1329 l 1,5,-1
 20 1231 l 1,6,-1
 20 1401 l 1,7,-1
 329 1660 l 1,0,-1
EndSplineSet
Validated: 19457
EndChar

StartChar: ordmasculine
Encoding: 186 186 124
Width: 735
VWidth: 1299
GlyphClass: 2
Flags: W
HStem: 823 180<162 573> 1038 181<305.652 427.018> 1469 181<306.982 428.19>
VStem: 114 190<1221.31 1466.54> 430 190<1221.46 1466.69>
LayerCount: 2
Fore
SplineSet
162 1003 m 1,0,-1
 715 1003 l 1,1,-1
 715 993 l 1,2,-1
 573 823 l 1,3,-1
 20 823 l 1,4,-1
 20 833 l 1,5,-1
 162 1003 l 1,0,-1
388 1650 m 0,6,7
 408 1650 408 1650 430 1644 c 0,8,9
 500 1628 500 1628 548 1583 c 0,10,11
 620 1514 620 1514 620 1406 c 2,12,-1
 620 1293 l 2,13,14
 620 1233 620 1233 564 1186 c 2,15,-1
 422 1066 l 2,16,17
 390 1038 390 1038 345 1038 c 0,18,19
 325 1038 325 1038 303 1044 c 0,20,21
 232 1060 232 1060 186 1105 c 0,22,23
 114 1174 114 1174 114 1282 c 2,24,-1
 114 1395 l 2,25,26
 114 1455 114 1455 170 1502 c 2,27,-1
 312 1622 l 2,28,29
 344 1650 344 1650 388 1650 c 0,6,7
366 1469 m 0,30,31
 306 1468 306 1468 304 1406 c 2,32,-1
 304 1282 l 2,33,34
 304 1219 304 1219 368 1219 c 0,35,36
 428 1220 428 1220 430 1282 c 2,37,-1
 430 1406 l 2,38,39
 430 1469 430 1469 366 1469 c 0,30,31
EndSplineSet
Validated: 19457
EndChar

StartChar: guillemotright
Encoding: 187 187 125
Width: 1202
GlyphClass: 2
Flags: W
DStem2: 130 411 281 244 0.53743 0.843308<0 461.33> 355 1344 175 1141 0.509525 -0.860456<82.9581 479.807> 595 411 746 244 0.53743 0.843308<0 461.33> 820 1344 640 1141 0.509525 -0.860456<82.9581 479.807>
LayerCount: 2
Fore
SplineSet
345 1344 m 1,0,-1
 355 1344 l 1,1,-1
 657 834 l 1,2,-1
 281 244 l 1,3,-1
 271 244 l 1,4,-1
 130 411 l 1,5,-1
 378 800 l 1,6,-1
 175 1141 l 1,7,-1
 345 1344 l 1,0,-1
810 1344 m 1,8,-1
 820 1344 l 1,9,-1
 1122 834 l 1,10,-1
 746 244 l 1,11,-1
 736 244 l 1,12,-1
 595 411 l 1,13,-1
 843 800 l 1,14,-1
 640 1141 l 1,15,-1
 810 1344 l 1,8,-1
EndSplineSet
Validated: 1
EndChar

StartChar: onequarter
Encoding: 188 188 126
Width: 1474
VWidth: 1401
GlyphClass: 2
Flags: W
HStem: -40 21G<173.133 216.783 1108 1141.87> 1121 21G<118 142.898> 1530 20G<403.139 437 1235.12 1279.25>
VStem: 240 197<873 1219>
DStem2: 50 126 200 -40 0.642815 0.766021<0 1836.05>
LayerCount: 2
Fore
SplineSet
427 1550 m 1,0,-1
 437 1550 l 1,1,-1
 437 873 l 1,2,-1
 250 716 l 1,3,-1
 240 716 l 1,4,-1
 240 1219 l 1,5,-1
 118 1121 l 1,6,-1
 118 1291 l 1,7,-1
 427 1550 l 1,0,-1
200 -40 m 1,8,-1
 190 -40 l 1,9,-1
 50 126 l 1,10,-1
 1252 1550 l 1,11,-1
 1262 1550 l 1,12,-1
 1400 1390 l 1,13,-1
 200 -40 l 1,8,-1
1108 -13 m 1,14,-1
 1108 173 l 1,15,-1
 741 173 l 1,16,-1
 741 183 l 1,17,18
 1003 356 1003 356 1003 619 c 1,19,-1
 1244 821 l 1,20,-1
 1254 821 l 1,21,22
 1254 497 1254 497 1071 323 c 1,23,-1
 1108 323 l 1,24,-1
 1108 341 l 1,25,-1
 1293 496 l 1,26,-1
 1303 496 l 1,27,-1
 1303 323 l 1,28,-1
 1424 323 l 1,29,-1
 1424 313 l 1,30,-1
 1306 173 l 1,31,-1
 1303 173 l 1,32,-1
 1303 142 l 1,33,-1
 1118 -13 l 1,34,-1
 1108 -13 l 1,14,-1
EndSplineSet
Validated: 19457
EndChar

StartChar: onehalf
Encoding: 189 189 127
Width: 1602
VWidth: 1401
GlyphClass: 2
Flags: W
HStem: -40 21G<173.133 216.783> 0 150<1153 1385> 599 187<1133.07 1282.68> 1121 21G<118 142.898> 1530 20G<403.139 437 1235.12 1279.25>
VStem: 240 197<873 1219> 908 200<406.909 580.927> 1302 200<425.485 580.81>
DStem2: 50 126 200 -40 0.642815 0.766021<0 1836.05>
LayerCount: 2
Fore
SplineSet
892 0 m 1,0,-1
 892 10 l 1,1,2
 1029 294 1029 294 1226 403 c 0,3,4
 1302 445 1302 445 1302 508 c 0,5,6
 1302 554 1302 554 1274 576.5 c 128,-1,7
 1246 599 1246 599 1204 599 c 0,8,9
 1161 599 1161 599 1135 575 c 0,10,11
 1108 550 1108 550 1108 507 c 0,12,13
 1108 466 1108 466 1135 436 c 1,14,-1
 994 318 l 1,15,-1
 984 318 l 1,16,17
 908 399 908 399 908 507 c 0,18,19
 908 559 908 559 962 603 c 2,20,-1
 1151 758 l 2,21,22
 1185 786 1185 786 1218 786 c 0,23,24
 1350 786 1350 786 1435 692 c 0,25,26
 1502 618 1502 618 1502 509 c 0,27,28
 1502 344 1502 344 1326 261 c 0,29,30
 1223 212 1223 212 1153 150 c 1,31,-1
 1502 150 l 1,32,-1
 1502 140 l 1,33,-1
 1385 0 l 1,34,-1
 892 0 l 1,0,-1
427 1550 m 1,35,-1
 437 1550 l 1,36,-1
 437 873 l 1,37,-1
 250 716 l 1,38,-1
 240 716 l 1,39,-1
 240 1219 l 1,40,-1
 118 1121 l 1,41,-1
 118 1291 l 1,42,-1
 427 1550 l 1,35,-1
200 -40 m 1,43,-1
 190 -40 l 1,44,-1
 50 126 l 1,45,-1
 1252 1550 l 1,46,-1
 1262 1550 l 1,47,-1
 1400 1390 l 1,48,-1
 200 -40 l 1,43,-1
EndSplineSet
Validated: 19457
EndChar

StartChar: threequarters
Encoding: 190 190 128
Width: 1531
VWidth: 1401
GlyphClass: 2
Flags: W
HStem: -40 21G<230.133 273.783 1165 1198.87> 730 191<260.351 406.951> 1386 150<211 336>
VStem: 434 200<941.172 1091.85>
DStem2: 107 126 257 -40 0.642815 0.766021<0 1836.05>
LayerCount: 2
Fore
SplineSet
211 1536 m 1,0,-1
 610 1536 l 1,1,-1
 610 1526 l 1,2,-1
 463 1267 l 1,3,4
 551 1240 551 1240 594 1172 c 0,5,6
 634 1108 634 1108 634 1016 c 0,7,8
 634 963 634 963 579 917 c 2,9,-1
 390 758 l 2,10,11
 357 730 357 730 324 730 c 0,12,13
 193 730 193 730 106 827 c 0,14,15
 70 867 70 867 50 921 c 1,16,-1
 227 1070 l 1,17,-1
 237 1070 l 1,18,-1
 237 1025 l 2,19,20
 237 980 237 980 266 950 c 0,21,22
 295 921 295 921 337 921 c 0,23,24
 381 921 381 921 407 947 c 0,25,26
 434 974 434 974 434 1018 c 0,27,28
 433 1059 433 1059 406.5 1086 c 128,-1,29
 380 1113 380 1113 343.5 1113 c 128,-1,30
 307 1113 307 1113 268 1085 c 1,31,-1
 201 1143 l 1,32,-1
 336 1386 l 1,33,-1
 93 1386 l 1,34,-1
 93 1396 l 1,35,-1
 211 1536 l 1,0,-1
257 -40 m 1,36,-1
 247 -40 l 1,37,-1
 107 126 l 1,38,-1
 1309 1550 l 1,39,-1
 1319 1550 l 1,40,-1
 1457 1390 l 1,41,-1
 257 -40 l 1,36,-1
1165 -13 m 1,42,-1
 1165 173 l 1,43,-1
 798 173 l 1,44,-1
 798 183 l 1,45,46
 1060 356 1060 356 1060 619 c 1,47,-1
 1301 821 l 1,48,-1
 1311 821 l 1,49,50
 1311 497 1311 497 1128 323 c 1,51,-1
 1165 323 l 1,52,-1
 1165 341 l 1,53,-1
 1350 496 l 1,54,-1
 1360 496 l 1,55,-1
 1360 323 l 1,56,-1
 1481 323 l 1,57,-1
 1481 313 l 1,58,-1
 1363 173 l 1,59,-1
 1360 173 l 1,60,-1
 1360 142 l 1,61,-1
 1175 -13 l 1,62,-1
 1165 -13 l 1,42,-1
EndSplineSet
Validated: 19457
EndChar

StartChar: questiondown
Encoding: 191 191 129
Width: 1270
VWidth: 1638
GlyphClass: 2
Flags: W
HStem: -430 300<491.275 715.035> 1100 20G<641.5 664.5>
VStem: 80 320<-41.9873 218.889> 454 367<857.508 1011.09> 870 320<-16.1826 280.99>
DStem2: 175 268 588 370 0.766088 0.642735<109.233 596.793>
LayerCount: 2
Fore
SplineSet
610 -430 m 0,0,1
 366 -430 366 -430 205 -251 c 0,2,3
 80 -111 80 -111 80 101 c 0,4,5
 80 144 80 144 102 186 c 0,6,7
 122 224 122 224 175 268 c 2,8,-1
 765 763 l 1,9,-1
 775 763 l 1,10,11
 775 527 775 527 588 370 c 2,12,-1
 494 291 l 18,13,14
 400 212 400 212 400 101 c 0,15,16
 400 -4 400 -4 467.5 -67 c 128,-1,17
 535 -130 535 -130 634 -130 c 128,-1,18
 733 -130 733 -130 801.5 -69 c 128,-1,19
 870 -8 870 -8 870 101 c 0,20,21
 870 194 870 194 819 253 c 1,22,-1
 1050 448 l 1,23,-1
 1060 448 l 1,24,25
 1190 305 1190 305 1190 101 c 0,26,27
 1190 57 1190 57 1168 16 c 0,28,29
 1147 -22 1147 -22 1095 -66 c 2,30,-1
 717 -384 l 2,31,32
 662 -430 662 -430 610 -430 c 0,0,1
655 1120 m 0,33,34
 674 1120 674 1120 698 1111 c 0,35,36
 745 1093 745 1093 778 1050 c 0,37,38
 821 994 821 994 821 936 c 0,39,40
 821 893 821 893 787 865 c 2,41,-1
 671 768 l 2,42,43
 646 747 646 747 619 747 c 0,44,45
 600 747 600 747 577 756 c 0,46,47
 528 775 528 775 497 817 c 0,48,49
 454 873 454 873 454 931 c 0,50,51
 454 974 454 974 488 1002 c 2,52,-1
 603 1099 l 2,53,54
 628 1120 628 1120 655 1120 c 0,33,34
EndSplineSet
Validated: 1
EndChar

StartChar: emdash
Encoding: 8212 8212 130
Width: 1494
GlyphClass: 2
Flags: W
HStem: 630 250<281 1213>
LayerCount: 2
Fore
SplineSet
281 880 m 1,0,-1
 1414 880 l 1,1,-1
 1414 870 l 1,2,-1
 1213 630 l 1,3,-1
 80 630 l 1,4,-1
 80 640 l 1,5,-1
 281 880 l 1,0,-1
EndSplineSet
Validated: 1
EndChar

StartChar: quoteleft
Encoding: 8216 8216 131
Width: 452
GlyphClass: 2
Flags: W
HStem: 1047 593
VStem: 20 262<1200.4 1448.31>
LayerCount: 2
Fore
SplineSet
291 1640 m 1,0,-1
 301 1640 l 1,1,-1
 432 1530 l 1,2,3
 282 1473 282 1473 282 1348 c 0,4,5
 282 1259 282 1259 387 1229 c 1,6,-1
 170 1047 l 1,7,-1
 160 1047 l 1,8,9
 20 1146 20 1146 20 1292 c 0,10,11
 20 1499 20 1499 291 1640 c 1,0,-1
EndSplineSet
Validated: 19457
EndChar

StartChar: quoteright
Encoding: 8217 8217 132
Width: 452
GlyphClass: 2
Flags: W
HStem: 1047 593
VStem: 170 262<1238.69 1486.6>
LayerCount: 2
Fore
SplineSet
282 1640 m 1,0,-1
 292 1640 l 1,1,2
 432 1541 432 1541 432 1395 c 0,3,4
 432 1188 432 1188 161 1047 c 1,5,-1
 151 1047 l 1,6,-1
 20 1157 l 1,7,8
 170 1214 170 1214 170 1339 c 0,9,10
 170 1428 170 1428 65 1458 c 1,11,-1
 282 1640 l 1,0,-1
EndSplineSet
Validated: 1
EndChar

StartChar: quotesinglbase
Encoding: 8218 8218 133
Width: 452
GlyphClass: 2
Flags: W
HStem: -313 593
VStem: 170 262<-121.307 126.598>
LayerCount: 2
Fore
SplineSet
282 280 m 1,0,-1
 292 280 l 1,1,2
 432 181 432 181 432 35 c 0,3,4
 432 -172 432 -172 161 -313 c 1,5,-1
 151 -313 l 1,6,-1
 20 -203 l 1,7,8
 170 -146 170 -146 170 -21 c 0,9,10
 170 68 170 68 65 98 c 1,11,-1
 282 280 l 1,0,-1
EndSplineSet
Validated: 1
EndChar

StartChar: quotereversed
Encoding: 8219 8219 134
Width: 452
GlyphClass: 2
Flags: W
HStem: 1047 593
VStem: 20 262<1238.69 1486.6>
LayerCount: 2
Fore
SplineSet
170 1640 m 1,0,-1
 387 1458 l 1,1,2
 282 1428 282 1428 282 1339 c 0,3,4
 282 1214 282 1214 432 1157 c 1,5,-1
 301 1047 l 1,6,-1
 291 1047 l 1,7,8
 20 1188 20 1188 20 1395 c 0,9,10
 20 1541 20 1541 160 1640 c 1,11,-1
 170 1640 l 1,0,-1
EndSplineSet
Validated: 19457
EndChar

StartChar: quotedblleft
Encoding: 8220 8220 135
Width: 843
GlyphClass: 2
Flags: W
HStem: 1047 593
VStem: 20 262<1200.4 1448.31> 411 262<1200.4 1448.31>
LayerCount: 2
Fore
SplineSet
291 1640 m 1,0,-1
 301 1640 l 1,1,-1
 432 1530 l 1,2,3
 282 1473 282 1473 282 1348 c 0,4,5
 282 1259 282 1259 387 1229 c 1,6,-1
 170 1047 l 1,7,-1
 160 1047 l 1,8,9
 20 1146 20 1146 20 1292 c 0,10,11
 20 1499 20 1499 291 1640 c 1,0,-1
682 1640 m 1,12,-1
 692 1640 l 1,13,-1
 823 1530 l 1,14,15
 673 1473 673 1473 673 1348 c 0,16,17
 673 1259 673 1259 778 1229 c 1,18,-1
 561 1047 l 1,19,-1
 551 1047 l 1,20,21
 411 1146 411 1146 411 1292 c 0,22,23
 411 1499 411 1499 682 1640 c 1,12,-1
EndSplineSet
Validated: 19457
EndChar

StartChar: quotedblright
Encoding: 8221 8221 136
Width: 843
GlyphClass: 2
Flags: W
HStem: 1047 593
VStem: 170 262<1238.69 1486.6> 561 262<1238.69 1486.6>
LayerCount: 2
Fore
SplineSet
673 1640 m 1,0,-1
 683 1640 l 1,1,2
 823 1541 823 1541 823 1395 c 0,3,4
 823 1188 823 1188 552 1047 c 1,5,-1
 542 1047 l 1,6,-1
 411 1157 l 1,7,8
 561 1214 561 1214 561 1339 c 0,9,10
 561 1428 561 1428 456 1458 c 1,11,-1
 673 1640 l 1,0,-1
282 1640 m 1,12,-1
 292 1640 l 1,13,14
 432 1541 432 1541 432 1395 c 0,15,16
 432 1188 432 1188 161 1047 c 1,17,-1
 151 1047 l 1,18,-1
 20 1157 l 1,19,20
 170 1214 170 1214 170 1339 c 0,21,22
 170 1428 170 1428 65 1458 c 1,23,-1
 282 1640 l 1,12,-1
EndSplineSet
Validated: 1
EndChar

StartChar: quotedblbase
Encoding: 8222 8222 137
Width: 843
GlyphClass: 2
Flags: W
HStem: -313 593
VStem: 170 262<-121.307 126.598> 561 262<-121.307 126.598>
LayerCount: 2
Fore
SplineSet
673 280 m 1,0,-1
 683 280 l 1,1,2
 823 181 823 181 823 35 c 0,3,4
 823 -172 823 -172 552 -313 c 1,5,-1
 542 -313 l 1,6,-1
 411 -203 l 1,7,8
 561 -146 561 -146 561 -21 c 0,9,10
 561 68 561 68 456 98 c 1,11,-1
 673 280 l 1,0,-1
282 280 m 1,12,-1
 292 280 l 1,13,14
 432 181 432 181 432 35 c 0,15,16
 432 -172 432 -172 161 -313 c 1,17,-1
 151 -313 l 1,18,-1
 20 -203 l 1,19,20
 170 -146 170 -146 170 -21 c 0,21,22
 170 68 170 68 65 98 c 1,23,-1
 282 280 l 1,12,-1
EndSplineSet
Validated: 1
EndChar

StartChar: dagger
Encoding: 8224 8224 138
Width: 1194
GlyphClass: 2
Flags: W
HStem: -40 21G<437 470.846> 915 301<324 437 757 870> 1530 20G<723.154 757>
VStem: 437 320<220 915 1216 1290>
LayerCount: 2
Fore
SplineSet
447 -40 m 1,0,-1
 437 -40 l 1,1,-1
 437 915 l 1,2,-1
 80 915 l 1,3,-1
 80 925 l 1,4,-1
 324 1216 l 1,5,-1
 437 1216 l 1,6,-1
 437 1290 l 1,7,-1
 747 1550 l 1,8,-1
 757 1550 l 1,9,-1
 757 1216 l 1,10,-1
 1114 1216 l 1,11,-1
 1114 1206 l 1,12,-1
 870 915 l 1,13,-1
 757 915 l 1,14,-1
 757 220 l 1,15,-1
 447 -40 l 1,0,-1
EndSplineSet
Validated: 1
EndChar

StartChar: daggerdbl
Encoding: 8225 8225 139
Width: 1194
GlyphClass: 2
Flags: W
HStem: -40 21G<437 470.846> 294 301<324 437 757 870> 915 301<324 437 757 870> 1530 20G<723.154 757>
VStem: 437 320<220 294 595 915 1216 1290>
LayerCount: 2
Fore
SplineSet
437 -40 m 1,0,-1
 437 294 l 1,1,-1
 80 294 l 1,2,-1
 80 304 l 1,3,-1
 324 595 l 1,4,-1
 437 595 l 1,5,-1
 437 915 l 1,6,-1
 80 915 l 1,7,-1
 80 925 l 1,8,-1
 324 1216 l 1,9,-1
 437 1216 l 1,10,-1
 437 1290 l 1,11,-1
 747 1550 l 1,12,-1
 757 1550 l 1,13,-1
 757 1216 l 1,14,-1
 1114 1216 l 1,15,-1
 1114 1206 l 1,16,-1
 870 915 l 1,17,-1
 757 915 l 1,18,-1
 757 595 l 1,19,-1
 1114 595 l 1,20,-1
 1114 585 l 1,21,-1
 870 294 l 1,22,-1
 757 294 l 1,23,-1
 757 220 l 1,24,-1
 447 -40 l 1,25,-1
 437 -40 l 1,0,-1
EndSplineSet
Validated: 1
EndChar

StartChar: bullet
Encoding: 8226 8226 140
Width: 914
GlyphClass: 2
Flags: W
HStem: 1084 20G<456.5 501>
VStem: 80 754<644.258 838.843>
LayerCount: 2
Fore
SplineSet
480 1104 m 0,0,1
 522 1104 522 1104 552 1097 c 0,2,3
 658 1073 658 1073 727 1007 c 0,4,5
 834 905 834 905 834 753 c 24,6,7
 834 707 834 707 815 675 c 0,8,9
 798 646 798 646 757 612 c 2,10,-1
 527 419 l 2,11,12
 483 382 483 382 435 382 c 0,13,14
 393 382 393 382 364 389 c 0,15,16
 257 413 257 413 188 479 c 0,17,18
 80 582 80 582 80 735 c 0,19,20
 80 776 80 776 101 811 c 0,21,22
 119 841 119 841 158 874 c 2,23,-1
 389 1067 l 2,24,25
 433 1104 433 1104 480 1104 c 0,0,1
EndSplineSet
Validated: 1
EndChar

StartChar: ellipsis
Encoding: 8230 8230 141
Width: 1243
GlyphClass: 2
Flags: W
HStem: -20 373<142.812 264.953 560.812 682.953 978.812 1100.95>
VStem: 20 367<88.9062 242.492> 438 367<88.9062 242.492> 856 367<88.9062 242.492>
CounterMasks: 1 70
LayerCount: 2
Fore
SplineSet
1022 -20 m 0,0,1
 1003 -20 1003 -20 979 -11 c 0,2,3
 932 7 932 7 899 50 c 0,4,5
 856 106 856 106 856 164 c 0,6,7
 856 207 856 207 890 235 c 2,8,-1
 1006 332 l 2,9,10
 1031 353 1031 353 1058 353 c 0,11,12
 1077 353 1077 353 1100 344 c 0,13,14
 1149 325 1149 325 1180 283 c 0,15,16
 1223 227 1223 227 1223 169 c 0,17,18
 1223 126 1223 126 1189 98 c 2,19,-1
 1074 1 l 2,20,21
 1049 -20 1049 -20 1022 -20 c 0,0,1
604 -20 m 0,22,23
 585 -20 585 -20 561 -11 c 0,24,25
 514 7 514 7 481 50 c 0,26,27
 438 106 438 106 438 164 c 0,28,29
 438 207 438 207 472 235 c 2,30,-1
 588 332 l 2,31,32
 613 353 613 353 640 353 c 0,33,34
 659 353 659 353 682 344 c 0,35,36
 731 325 731 325 762 283 c 0,37,38
 805 227 805 227 805 169 c 0,39,40
 805 126 805 126 771 98 c 2,41,-1
 656 1 l 2,42,43
 631 -20 631 -20 604 -20 c 0,22,23
186 -20 m 0,44,45
 167 -20 167 -20 143 -11 c 0,46,47
 96 7 96 7 63 50 c 0,48,49
 20 106 20 106 20 164 c 0,50,51
 20 207 20 207 54 235 c 2,52,-1
 170 332 l 2,53,54
 195 353 195 353 222 353 c 0,55,56
 241 353 241 353 264 344 c 0,57,58
 313 325 313 325 344 283 c 0,59,60
 387 227 387 227 387 169 c 0,61,62
 387 126 387 126 353 98 c 2,63,-1
 238 1 l 2,64,65
 213 -20 213 -20 186 -20 c 0,44,45
EndSplineSet
Validated: 19457
EndChar

StartChar: perthousand
Encoding: 8240 8240 142
Width: 2359
GlyphClass: 2
Flags: W
HStem: -40 21G<229.133 272.783> -20 208<995.9 1182.27 1793.9 1980.27> 495 207<1027.62 1207.78 1825.62 2005.78> 808 208<348.9 535.272> 1323 207<380.62 560.785> 1530 20G<1291.12 1335.25>
VStem: 80 228<1055.53 1267.95> 605 229<1068.13 1281.21> 727 228<227.527 439.953> 1252 229<240.127 453.206> 1525 228<227.527 439.953> 2050 229<240.127 453.206>
DStem2: 106 126 256 -40 0.642815 0.766021<0 1836.05>
LayerCount: 2
Fore
SplineSet
1880 -20 m 0,0,1
 1838 -20 1838 -20 1809 -13 c 0,2,3
 1702 11 1702 11 1633 77 c 0,4,5
 1525 180 1525 180 1525 333 c 0,6,7
 1525 374 1525 374 1546 409 c 0,8,9
 1564 439 1564 439 1603 472 c 2,10,-1
 1834 665 l 2,11,12
 1878 702 1878 702 1925 702 c 0,13,14
 1967 702 1967 702 1997 695 c 0,15,16
 2103 671 2103 671 2172 605 c 0,17,18
 2279 503 2279 503 2279 351 c 24,19,20
 2279 305 2279 305 2260 273 c 0,21,22
 2243 244 2243 244 2202 210 c 2,23,-1
 1972 17 l 2,24,25
 1928 -20 1928 -20 1880 -20 c 0,0,1
1901.5 188 m 128,-1,27
 1968 188 1968 188 2010 230 c 0,28,29
 2050 270 2050 270 2050 340 c 128,-1,30
 2050 410 2050 410 2006 454 c 0,31,32
 1965 495 1965 495 1901 495 c 0,33,34
 1842 495 1842 495 1796 452 c 0,35,36
 1753 412 1753 412 1753 342 c 0,37,38
 1753 269 1753 269 1794 228.5 c 128,-1,26
 1835 188 1835 188 1901.5 188 c 128,-1,27
1082 -20 m 0,39,40
 1040 -20 1040 -20 1011 -13 c 0,41,42
 904 11 904 11 835 77 c 0,43,44
 727 180 727 180 727 333 c 0,45,46
 727 374 727 374 748 409 c 0,47,48
 766 439 766 439 805 472 c 2,49,-1
 1036 665 l 2,50,51
 1080 702 1080 702 1127 702 c 0,52,53
 1169 702 1169 702 1199 695 c 0,54,55
 1305 671 1305 671 1374 605 c 0,56,57
 1481 503 1481 503 1481 351 c 24,58,59
 1481 305 1481 305 1462 273 c 0,60,61
 1445 244 1445 244 1404 210 c 2,62,-1
 1174 17 l 2,63,64
 1130 -20 1130 -20 1082 -20 c 0,39,40
1103.5 188 m 128,-1,66
 1170 188 1170 188 1212 230 c 0,67,68
 1252 270 1252 270 1252 340 c 128,-1,69
 1252 410 1252 410 1208 454 c 0,70,71
 1167 495 1167 495 1103 495 c 0,72,73
 1044 495 1044 495 998 452 c 0,74,75
 955 412 955 412 955 342 c 0,76,77
 955 269 955 269 996 228.5 c 128,-1,65
 1037 188 1037 188 1103.5 188 c 128,-1,66
480 1530 m 0,78,79
 522 1530 522 1530 552 1523 c 0,80,81
 658 1499 658 1499 727 1433 c 0,82,83
 834 1331 834 1331 834 1179 c 24,84,85
 834 1133 834 1133 815 1101 c 0,86,87
 798 1072 798 1072 757 1038 c 2,88,-1
 527 845 l 2,89,90
 483 808 483 808 435 808 c 0,91,92
 393 808 393 808 364 815 c 0,93,94
 257 839 257 839 188 905 c 0,95,96
 80 1008 80 1008 80 1161 c 0,97,98
 80 1202 80 1202 101 1237 c 0,99,100
 119 1267 119 1267 158 1300 c 2,101,-1
 389 1493 l 2,102,103
 433 1530 433 1530 480 1530 c 0,78,79
456 1323 m 0,104,105
 397 1323 397 1323 351 1280 c 0,106,107
 308 1240 308 1240 308 1170 c 0,108,109
 308 1097 308 1097 349 1056.5 c 128,-1,110
 390 1016 390 1016 456.5 1016 c 128,-1,111
 523 1016 523 1016 565 1058 c 0,112,113
 605 1098 605 1098 605 1168 c 128,-1,114
 605 1238 605 1238 561 1282 c 0,115,116
 520 1323 520 1323 456 1323 c 0,104,105
256 -40 m 1,117,-1
 246 -40 l 1,118,-1
 106 126 l 1,119,-1
 1308 1550 l 1,120,-1
 1318 1550 l 1,121,-1
 1456 1390 l 1,122,-1
 256 -40 l 1,117,-1
EndSplineSet
Validated: 1
EndChar

StartChar: minute
Encoding: 8242 8242 143
Width: 443
GlyphClass: 2
Flags: W
HStem: 980 570
VStem: 20 403
LayerCount: 2
Fore
SplineSet
212 1550 m 1,0,-1
 222 1550 l 1,1,-1
 423 1381 l 1,2,-1
 184 980 l 1,3,-1
 174 980 l 1,4,-1
 20 1110 l 1,5,-1
 212 1550 l 1,0,-1
EndSplineSet
Validated: 19457
EndChar

StartChar: second
Encoding: 8243 8243 144
Width: 808
GlyphClass: 2
Flags: W
HStem: 980 570
LayerCount: 2
Fore
SplineSet
577 1550 m 1,0,-1
 587 1550 l 1,1,-1
 788 1381 l 1,2,-1
 549 980 l 1,3,-1
 539 980 l 1,4,-1
 385 1110 l 1,5,-1
 577 1550 l 1,0,-1
212 1550 m 1,6,-1
 222 1550 l 1,7,-1
 423 1381 l 1,8,-1
 184 980 l 1,9,-1
 174 980 l 1,10,-1
 20 1110 l 1,11,-1
 212 1550 l 1,6,-1
EndSplineSet
Validated: 19457
EndChar

StartChar: guilsinglleft
Encoding: 8249 8249 145
Width: 737
GlyphClass: 2
Flags: W
VStem: 80 527
DStem2: 359 788 80 754 0.509525 -0.860456<0 396.849> 80 754 359 788 0.53743 0.843308<178.616 639.945>
LayerCount: 2
Fore
SplineSet
456 1344 m 5,0,-1
 466 1344 l 5,1,-1
 607 1177 l 5,2,-1
 359 788 l 5,3,-1
 562 447 l 5,4,-1
 392 244 l 5,5,-1
 382 244 l 5,6,-1
 80 754 l 5,7,-1
 456 1344 l 5,0,-1
EndSplineSet
Validated: 1
EndChar

StartChar: guilsinglright
Encoding: 8250 8250 146
Width: 737
GlyphClass: 2
Flags: W
VStem: 130 527
DStem2: 130 411 281 244 0.53743 0.843308<0 461.33> 355 1344 175 1141 0.509525 -0.860456<82.9581 479.807>
LayerCount: 2
Fore
SplineSet
345 1344 m 5,0,-1
 355 1344 l 5,1,-1
 657 834 l 5,2,-1
 281 244 l 5,3,-1
 271 244 l 5,4,-1
 130 411 l 5,5,-1
 378 800 l 5,6,-1
 175 1141 l 5,7,-1
 345 1344 l 5,0,-1
EndSplineSet
Validated: 1
EndChar

StartChar: Euro
Encoding: 8364 8364 147
Width: 1380
GlyphClass: 2
Flags: W
HStem: -20 300<598.451 814.877> 487 160<145 170 498 806> 737 160<145 170 495 806> 1230 300<655.174 871.908>
VStem: 170 325<647 737 897 1107.2>
DStem2: 1300 684 817 26 0.765514 0.643419<-679.351 -131.207>
LayerCount: 2
Fore
SplineSet
710 -20 m 0,0,1
 468 -20 468 -20 305 159 c 0,2,3
 183 293 183 293 171 487 c 1,4,-1
 20 487 l 1,5,-1
 20 497 l 1,6,-1
 145 647 l 1,7,-1
 170 647 l 1,8,-1
 170 737 l 1,9,-1
 20 737 l 1,10,-1
 20 747 l 1,11,-1
 145 897 l 1,12,-1
 170 897 l 1,13,-1
 170 970 l 2,14,15
 170 1032 170 1032 192 1076 c 0,16,17
 210 1112 210 1112 265 1158 c 2,18,-1
 653 1484 l 2,19,20
 708 1530 708 1530 760 1530 c 0,21,22
 1004 1530 1004 1530 1165 1351 c 0,23,24
 1252 1254 1252 1254 1283 1130 c 1,25,-1
 985 881 l 1,26,-1
 975 881 l 1,27,-1
 975 981 l 2,28,29
 975 1090 975 1090 904 1160 c 128,-1,30
 833 1230 833 1230 734 1230 c 128,-1,31
 635 1230 635 1230 565 1158 c 128,-1,32
 495 1086 495 1086 495 981 c 2,33,-1
 495 897 l 1,34,-1
 931 897 l 1,35,-1
 931 887 l 1,36,-1
 806 737 l 1,37,-1
 495 737 l 1,38,-1
 495 647 l 1,39,-1
 931 647 l 1,40,-1
 931 637 l 1,41,-1
 806 487 l 1,42,-1
 498 487 l 1,43,44
 509 406 509 406 566 350 c 0,45,46
 637 280 637 280 736 280 c 0,47,48
 819 280 819 280 905 352 c 2,49,-1
 1300 684 l 1,50,-1
 1300 540 l 2,51,52
 1300 478 1300 478 1278 434 c 0,53,54
 1260 398 1260 398 1205 352 c 2,55,-1
 817 26 l 2,56,57
 762 -20 762 -20 710 -20 c 0,0,1
EndSplineSet
Validated: 19457
EndChar

StartChar: afii61248
Encoding: 8453 8453 148
Width: 1410
GlyphClass: 2
Flags: W
HStem: -40 188<984.888 1135.66> 584 190<992.345 1141.28> 736 188<254.888 408.605> 1360 190<262.345 409.434>
VStem: 32 203<942.921 1329.06> 762 203<166.921 553.059> 1161 207<178.941 564.281>
DStem2: 30 126 180 -40 0.642815 0.766021<0 1836.05> 407 957 583 926 0.767404 0.641164<-77.8446 224.008>
LayerCount: 2
Fore
SplineSet
1064 584 m 0,0,1
 1023 584 1023 584 994 554 c 128,-1,2
 965 524 965 524 965 480 c 2,3,-1
 965 254 l 2,4,5
 965 208 965 208 995 179 c 0,6,7
 1027 148 1027 148 1065 148 c 128,-1,8
 1103 148 1103 148 1132 178 c 128,-1,9
 1161 208 1161 208 1161 252 c 2,10,-1
 1161 478 l 2,11,12
 1161 524 1161 524 1131 553 c 0,13,14
 1099 584 1099 584 1064 584 c 0,0,1
1052 -40 m 0,15,16
 922 -40 922 -40 842 48 c 128,-1,17
 762 136 762 136 762 254 c 2,18,-1
 762 474 l 2,19,20
 762 538 762 538 817 584 c 2,21,-1
 1011 747 l 2,22,23
 1043 774 1043 774 1078 774 c 0,24,25
 1208 774 1208 774 1288 686 c 128,-1,26
 1368 598 1368 598 1368 480 c 2,27,-1
 1368 260 l 2,28,29
 1368 196 1368 196 1313 150 c 2,30,-1
 1119 -13 l 2,31,32
 1087 -40 1087 -40 1052 -40 c 0,15,16
348 1550 m 0,33,34
 480 1550 480 1550 565 1454 c 0,35,36
 612 1401 612 1401 631 1323 c 1,37,-1
 445 1167 l 1,38,-1
 435 1167 l 1,39,-1
 435 1256 l 2,40,41
 435 1302 435 1302 405 1331 c 128,-1,42
 375 1360 375 1360 334 1360 c 128,-1,43
 293 1360 293 1360 264 1330 c 128,-1,44
 235 1300 235 1300 235 1256 c 2,45,-1
 235 1030 l 2,46,47
 235 984 235 984 265 955 c 0,48,49
 297 924 297 924 332 924 c 0,50,51
 368 924 368 924 407 957 c 2,52,-1
 638 1150 l 1,53,-1
 638 1036 l 2,54,55
 638 972 638 972 583 926 c 2,56,-1
 389 763 l 2,57,58
 357 736 357 736 322 736 c 0,59,60
 192 736 192 736 112 824 c 128,-1,61
 32 912 32 912 32 1030 c 2,62,-1
 32 1250 l 2,63,64
 32 1314 32 1314 87 1360 c 2,65,-1
 281 1523 l 2,66,67
 313 1550 313 1550 348 1550 c 0,33,34
180 -40 m 1,68,-1
 170 -40 l 1,69,-1
 30 126 l 1,70,-1
 1232 1550 l 1,71,-1
 1242 1550 l 1,72,-1
 1380 1390 l 1,73,-1
 180 -40 l 1,68,-1
EndSplineSet
Validated: 1
EndChar

StartChar: afii61289
Encoding: 8467 8467 149
Width: 1187
GlyphClass: 2
Flags: W
HStem: 0 1G<80 456.273 606 715> 1510 20G<774.5 872>
LayerCount: 2
Fore
SplineSet
660 -20 m 0,0,1
 552 -20 552 -20 471 44 c 1,2,-1
 444 0 l 1,3,-1
 80 0 l 1,4,5
 242 162 242 162 345 325 c 1,6,7
 334 420 334 420 334 524 c 0,8,9
 334 686 334 686 381 865 c 0,10,11
 479 1240 479 1240 631 1423 c 0,12,13
 719 1530 719 1530 830 1530 c 0,14,15
 914 1530 914 1530 964 1480 c 0,16,17
 1028 1416 1028 1416 1028 1281 c 0,18,19
 1028 1186 1028 1186 999 1041 c 0,20,21
 929 688 929 688 646 272 c 1,22,23
 648 216 648 216 669 216 c 128,-1,24
 690 216 690 216 715 260 c 0,25,26
 730 286 730 286 741 319 c 1,27,-1
 1057 319 l 1,28,29
 964 144 964 144 867 62 c 128,-1,30
 770 -20 770 -20 660 -20 c 0,0,1
EndSplineSet
Validated: 1
EndChar

StartChar: trademark
Encoding: 8482 8482 150
Width: 1822
GlyphClass: 2
Flags: W
HStem: 1350 190<910.736 1062.78 1315.79 1467.42> 1396 144<192 294 494 595>
VStem: 294 200<885 1396> 682 200<875 1320.06> 1087 200<875 1320.06> 1492 200<875 1321.09>
LayerCount: 2
Fore
SplineSet
872 1550 m 1,0,-1
 882 1550 l 1,1,-1
 882 1472 l 1,2,-1
 931 1513 l 2,3,4
 963 1540 963 1540 997 1540 c 0,5,6
 1143 1540 1143 1540 1231 1425 c 1,7,-1
 1336 1513 l 2,8,9
 1368 1540 1368 1540 1402 1540 c 0,10,11
 1532 1540 1532 1540 1612 1451.5 c 128,-1,12
 1692 1363 1692 1363 1692 1246 c 2,13,-1
 1692 875 l 1,14,-1
 1502 716 l 1,15,-1
 1492 716 l 1,16,-1
 1492 1246 l 2,17,18
 1492 1293 1492 1293 1461 1322 c 0,19,20
 1431 1350 1431 1350 1388 1350 c 128,-1,21
 1345 1350 1345 1350 1316 1321 c 0,22,23
 1287 1291 1287 1291 1287 1246 c 2,24,-1
 1287 875 l 1,25,-1
 1097 716 l 1,26,-1
 1087 716 l 1,27,-1
 1087 1246 l 2,28,29
 1087 1293 1087 1293 1056 1322 c 0,30,31
 1027 1350 1027 1350 983.5 1350 c 128,-1,32
 940 1350 940 1350 911 1321 c 0,33,34
 882 1291 882 1291 882 1246 c 2,35,-1
 882 875 l 1,36,-1
 692 716 l 1,37,-1
 682 716 l 1,38,-1
 682 1391 l 1,39,-1
 872 1550 l 1,0,-1
192 1540 m 1,40,-1
 708 1540 l 1,41,-1
 708 1530 l 1,42,-1
 595 1396 l 1,43,-1
 494 1396 l 1,44,-1
 494 885 l 1,45,-1
 304 726 l 1,46,-1
 294 726 l 1,47,-1
 294 1396 l 1,48,-1
 80 1396 l 1,49,-1
 80 1406 l 1,50,-1
 192 1540 l 1,40,-1
EndSplineSet
Validated: 1
EndChar

StartChar: uni2126
Encoding: 8486 8486 151
Width: 1390
GlyphClass: 2
Flags: W
HStem: 0 274<555.69 658 732 835.702> 0 210<247 371 1001 1143> 1230 300<615.436 836.787>
VStem: 130 320<381.172 1107.97> 940 320<401.559 1128.3>
LayerCount: 2
Fore
SplineSet
80 0 m 1,0,-1
 80 10 l 1,1,-1
 247 210 l 1,2,-1
 371 210 l 1,3,4
 130 306 130 306 130 533 c 2,5,-1
 130 974 l 2,6,7
 130 1037 130 1037 153 1078 c 0,8,9
 173 1114 173 1114 226 1159 c 2,10,-1
 613 1484 l 2,11,12
 668 1530 668 1530 721 1530 c 0,13,14
 773 1530 773 1530 811 1523 c 0,15,16
 1001 1488 1001 1488 1130 1348 c 0,17,18
 1260 1206 1260 1206 1260 1000 c 2,19,-1
 1260 533 l 2,20,21
 1260 428 1260 428 1165 348 c 2,22,-1
 1001 210 l 1,23,-1
 1310 210 l 1,24,-1
 1310 200 l 1,25,-1
 1143 0 l 1,26,-1
 732 0 l 1,27,-1
 732 274 l 1,28,29
 816 292 816 292 867 346 c 0,30,31
 940 422 940 422 940 526 c 2,32,-1
 940 981 l 2,33,34
 940 1082 940 1082 877 1151 c 0,35,36
 805 1230 805 1230 702 1230 c 0,37,38
 587 1230 587 1230 518 1156 c 0,39,40
 450 1084 450 1084 450 981 c 2,41,-1
 450 526 l 2,42,43
 450 415 450 415 521 347 c 0,44,45
 580 291 580 291 658 274 c 1,46,-1
 658 0 l 1,47,-1
 80 0 l 1,0,-1
EndSplineSet
Validated: 1
EndChar

StartChar: estimated
Encoding: 8494 8494 152
Width: 1191
GlyphClass: 2
Flags: W
HStem: -20 183<411.95 768.867> 491 189<363 815> 935 185<409.039 769.176>
VStem: 30 333<316.826 491 680 791.88>
LayerCount: 2
Fore
SplineSet
589 -20 m 0,0,1
 338 -20 338 -20 184 145 c 128,-1,2
 30 310 30 310 30 553 c 0,3,4
 30 802 30 802 186 960 c 0,5,6
 344 1120 344 1120 586 1120 c 0,7,8
 829 1120 829 1120 977 974 c 0,9,10
 1151 802 1151 802 1151 491 c 1,11,-1
 363 491 l 1,12,-1
 363 239 l 1,13,14
 458 163 458 163 589 163 c 0,15,16
 797 163 797 163 915 351 c 1,17,-1
 1079 255 l 1,18,19
 955 85 955 85 836 32.5 c 128,-1,20
 717 -20 717 -20 589 -20 c 0,0,1
815 680 m 1,21,-1
 815 862 l 1,22,23
 717 935 717 935 587 935 c 0,24,25
 455 935 455 935 363 861 c 1,26,-1
 363 680 l 1,27,-1
 815 680 l 1,21,-1
EndSplineSet
Validated: 1
EndChar

StartChar: partialdiff
Encoding: 8706 8706 153
Width: 1265
GlyphClass: 2
Flags: W
HStem: -20 273<422.903 636.396> 823 260<547.1 796.76> 1132 21G<350 425.5> 1257 273<472.596 796.913>
VStem: 80 305<291.814 617.824> 876 309<1024 1178.17>
LayerCount: 2
Fore
SplineSet
502 -20 m 0,0,1
 232 -20 232 -20 133 171 c 0,2,3
 80 273 80 273 80 416 c 0,4,5
 80 673 80 673 234 878 c 128,-1,6
 388 1083 388 1083 660 1083 c 0,7,8
 779 1083 779 1083 876 1024 c 1,9,10
 873 1115 873 1115 835 1173 c 0,11,12
 778 1257 778 1257 656 1257 c 0,13,14
 501 1257 501 1257 350 1132 c 1,15,-1
 350 1443 l 1,16,17
 496 1530 496 1530 693 1530 c 0,18,19
 1010 1530 1010 1530 1126 1271 c 0,20,21
 1185 1139 1185 1139 1185 950 c 0,22,23
 1185 563 1185 563 1002 272 c 0,24,25
 821 -20 821 -20 502 -20 c 0,0,1
849 699 m 1,26,27
 828 756 828 756 785 788 c 0,28,29
 738 823 738 823 670 823 c 0,30,31
 561 823 561 823 480 706 c 0,32,33
 385 567 385 567 385 431 c 0,34,35
 385 344 385 344 423 295 c 0,36,37
 455 253 455 253 515 253 c 0,38,39
 622 253 622 253 717 376 c 128,-1,40
 812 499 812 499 849 699 c 1,26,27
EndSplineSet
Validated: 1
EndChar

StartChar: uni2206
Encoding: 8710 8710 154
Width: 1476
GlyphClass: 2
Flags: W
HStem: 0 210<325 1043> 1530 20G<825.201 866.897>
DStem2: 5 0 325 210 0.373654 0.927568<314.359 1293.89> 859 1550 685 1121 0.367249 -0.930123<335.121 1313.94>
LayerCount: 2
Fore
SplineSet
5 0 m 1,0,-1
 517 1271 l 1,1,-1
 849 1550 l 1,2,-1
 859 1550 l 1,3,-1
 1471 0 l 1,4,-1
 5 0 l 1,0,-1
325 210 m 1,5,-1
 1043 210 l 1,6,-1
 685 1121 l 1,7,-1
 325 210 l 1,5,-1
EndSplineSet
Validated: 1
EndChar

StartChar: product
Encoding: 8719 8719 155
Width: 1370
GlyphClass: 2
Flags: W
HStem: -450 21G<130 163.846 920 953.846> 1260 250<450 920>
VStem: 130 320<-190 1260> 920 320<-190 1260>
LayerCount: 2
Fore
SplineSet
140 -450 m 1,0,-1
 130 -450 l 1,1,-1
 130 1357 l 1,2,-1
 312 1510 l 1,3,-1
 1240 1510 l 1,4,-1
 1240 -190 l 1,5,-1
 930 -450 l 1,6,-1
 920 -450 l 1,7,-1
 920 1260 l 1,8,-1
 450 1260 l 1,9,-1
 450 -190 l 1,10,-1
 140 -450 l 1,0,-1
EndSplineSet
Validated: 1
EndChar

StartChar: summation
Encoding: 8721 8721 156
Width: 1188
GlyphClass: 2
Flags: W
HStem: -410 210<465 941> 1300 210<467 888>
DStem2: 30 -410 465 -200 0.478916 0.877861<392.679 1100.4> 467 1300 93 1342 0.50836 -0.861145<0 686.444>
LayerCount: 2
Fore
SplineSet
30 -410 m 1,0,-1
 557 556 l 1,1,-1
 93 1342 l 1,2,-1
 292 1510 l 1,3,-1
 1055 1510 l 1,4,-1
 1055 1500 l 1,5,-1
 888 1300 l 1,6,-1
 467 1300 l 1,7,-1
 898 566 l 1,8,-1
 465 -200 l 1,9,-1
 1108 -200 l 1,10,-1
 1108 -210 l 1,11,-1
 941 -410 l 1,12,-1
 30 -410 l 1,0,-1
EndSplineSet
Validated: 1
EndChar

StartChar: uni2219
Encoding: 8729 8729 157
Width: 407
GlyphClass: 2
Flags: W
HStem: 627 373<142.812 264.953>
VStem: 20 367<735.906 889.492>
LayerCount: 2
Fore
SplineSet
222 1000 m 0,0,1
 241 1000 241 1000 264 991 c 0,2,3
 313 972 313 972 344 930 c 0,4,5
 387 874 387 874 387 816 c 0,6,7
 387 773 387 773 353 745 c 2,8,-1
 238 648 l 2,9,10
 213 627 213 627 186 627 c 0,11,12
 167 627 167 627 143 636 c 0,13,14
 96 654 96 654 63 697 c 0,15,16
 20 753 20 753 20 811 c 0,17,18
 20 854 20 854 54 882 c 2,19,-1
 170 979 l 2,20,21
 195 1000 195 1000 222 1000 c 0,0,1
EndSplineSet
Validated: 19457
EndChar

StartChar: radical
Encoding: 8730 8730 158
Width: 1254
GlyphClass: 2
Flags: W
HStem: -40 21G<454.469 494.897> 1512 210<1244 1357>
DStem2: 624 441 796 232 0.33035 0.943858<0 1215.69>
LayerCount: 2
Fore
SplineSet
461 -40 m 1,0,-1
 253 597 l 1,1,-1
 30 597 l 1,2,-1
 30 607 l 1,3,-1
 197 807 l 1,4,-1
 511 807 l 1,5,-1
 624 441 l 1,6,-1
 1044 1613 l 1,7,-1
 1174 1722 l 1,8,-1
 1524 1722 l 1,9,-1
 1524 1712 l 1,10,-1
 1357 1512 l 1,11,-1
 1244 1512 l 1,12,-1
 796 232 l 1,13,-1
 471 -40 l 1,14,-1
 461 -40 l 1,0,-1
EndSplineSet
Validated: 1
EndChar

StartChar: infinity
Encoding: 8734 8734 159
Width: 1720
GlyphClass: 2
Flags: W
HStem: 269 283<430.757 616.715 1059.85 1251.63> 948 283<467.961 656.281 1103.2 1285.52>
VStem: 80 301<603.912 885.328> 710 300<604.34 887.888> 1339 301<614.792 890.633>
CounterMasks: 1 38
LayerCount: 2
Fore
SplineSet
574 1231 m 0,0,1
 626 1231 626 1231 662 1222 c 0,2,3
 801 1187 801 1187 882 1100 c 0,4,5
 1010 963 1010 963 1010 751 c 0,6,7
 1010 649 1010 649 1056.5 600 c 128,-1,8
 1103 551 1103 551 1174 551 c 128,-1,9
 1245 551 1245 551 1292 599.5 c 128,-1,10
 1339 648 1339 648 1339 750 c 0,11,12
 1339 841 1339 841 1288 901 c 0,13,14
 1248 948 1248 948 1189 948 c 0,15,16
 1140 948 1140 948 1107 937 c 1,17,-1
 1011 1114 l 1,18,-1
 1091 1181 l 2,19,20
 1150 1231 1150 1231 1204 1231 c 0,21,22
 1251 1231 1251 1231 1292 1222 c 0,23,24
 1425 1193 1425 1193 1512 1100 c 0,25,26
 1640 963 1640 963 1640 751 c 0,27,28
 1640 640 1640 640 1544 559 c 2,29,-1
 1259 319 l 2,30,31
 1200 269 1200 269 1146 269 c 0,32,33
 1094 269 1094 269 1058 278 c 0,34,35
 921 312 921 312 839 399 c 0,36,37
 712 533 712 533 710 749 c 0,38,39
 709 843 709 843 659 900 c 0,40,41
 616 948 616 948 545 948 c 128,-1,42
 474 948 474 948 427.5 900.5 c 128,-1,43
 381 853 381 853 381 750 c 0,44,45
 381 653 381 653 428 600 c 0,46,47
 470 552 470 552 531 552 c 0,48,49
 578 552 578 552 613 563 c 1,50,-1
 709 386 l 1,51,-1
 629 319 l 2,52,53
 569 269 569 269 516 269 c 0,54,55
 474 269 474 269 428 278 c 0,56,57
 304 302 304 302 209 400 c 0,58,59
 80 533 80 533 80 749 c 0,60,61
 80 860 80 860 176 941 c 2,62,-1
 461 1181 l 2,63,64
 520 1231 520 1231 574 1231 c 0,0,1
EndSplineSet
Validated: 1
EndChar

StartChar: approxequal
Encoding: 8776 8776 160
Width: 1258
GlyphClass: 2
Flags: W
HStem: 268 181<730.5 942.412> 587 181<315.588 528.5> 733 181<730.5 942.412> 1052 181<315.588 528.5>
VStem: 80 223<391 561.75 856 1026.75> 955 223<474.25 645 939.25 1110>
LayerCount: 2
Fore
SplineSet
1105 793 m 1,0,1
 1178 695 1178 695 1178 561 c 24,2,3
 1178 512 1178 512 1144 483 c 2,4,-1
 924 296 l 2,5,6
 891 268 891 268 849 268 c 0,7,8
 612 268 612 268 500 423 c 24,9,10
 382 587 382 587 337 587 c 0,11,12
 303 587 303 587 303 554 c 0,13,14
 303 501 303 501 381 423 c 1,15,-1
 168 243 l 1,16,-1
 153 243 l 1,17,18
 80 341 80 341 80 475 c 24,19,20
 80 524 80 524 114 553 c 2,21,-1
 334 740 l 2,22,23
 367 768 367 768 409 768 c 0,24,25
 648 768 648 768 758 613 c 0,26,27
 874 449 874 449 921 449 c 0,28,29
 955 449 955 449 955 482 c 0,30,31
 955 535 955 535 877 613 c 1,32,-1
 1090 793 l 1,33,-1
 1105 793 l 1,0,1
1105 1258 m 1,34,35
 1178 1160 1178 1160 1178 1026 c 24,36,37
 1178 977 1178 977 1144 948 c 2,38,-1
 924 761 l 2,39,40
 891 733 891 733 849 733 c 0,41,42
 612 733 612 733 500 888 c 24,43,44
 382 1052 382 1052 337 1052 c 0,45,46
 303 1052 303 1052 303 1019 c 0,47,48
 303 966 303 966 381 888 c 1,49,-1
 168 708 l 1,50,-1
 153 708 l 1,51,52
 80 806 80 806 80 940 c 24,53,54
 80 989 80 989 114 1018 c 2,55,-1
 334 1205 l 2,56,57
 367 1233 367 1233 409 1233 c 0,58,59
 648 1233 648 1233 758 1078 c 0,60,61
 874 914 874 914 921 914 c 0,62,63
 955 914 955 914 955 947 c 0,64,65
 955 1000 955 1000 877 1078 c 1,66,-1
 1090 1258 l 1,67,-1
 1105 1258 l 1,34,35
EndSplineSet
Validated: 1
EndChar

StartChar: notequal
Encoding: 8800 8800 161
Width: 1194
GlyphClass: 2
Flags: W
HStem: 421 250<628 913> 838 250<281 560>
DStem2: 230 359 335 246 0.567332 0.823489<0 75.4516 482.727 581.671 988.946 1075.21>
LayerCount: 2
Fore
SplineSet
281 1088 m 1,0,-1
 732 1088 l 1,1,-1
 859 1272 l 1,2,-1
 869 1272 l 1,3,-1
 964 1159 l 1,4,-1
 915 1088 l 1,5,-1
 1114 1088 l 1,6,-1
 1114 1078 l 1,7,-1
 913 838 l 1,8,-1
 743 838 l 1,9,-1
 628 671 l 1,10,-1
 1114 671 l 1,11,-1
 1114 661 l 1,12,-1
 913 421 l 1,13,-1
 456 421 l 1,14,-1
 335 246 l 1,15,-1
 325 246 l 1,16,-1
 230 359 l 1,17,-1
 273 421 l 1,18,-1
 80 421 l 1,19,-1
 80 431 l 1,20,-1
 281 671 l 1,21,-1
 445 671 l 1,22,-1
 560 838 l 1,23,-1
 80 838 l 1,24,-1
 80 848 l 1,25,-1
 281 1088 l 1,0,-1
EndSplineSet
Validated: 1
EndChar

StartChar: lessequal
Encoding: 8804 8804 162
Width: 1292
GlyphClass: 2
Flags: W
HStem: 100 250<281 913>
DStem2: 506 894 80 793 0.90626 -0.422722<0 659.652> 281 1043 506 894 0.905962 0.423358<140.761 810.188>
LayerCount: 2
Fore
SplineSet
281 350 m 1,0,-1
 1114 350 l 1,1,-1
 1114 340 l 1,2,-1
 913 100 l 1,3,-1
 80 100 l 1,4,-1
 80 110 l 1,5,-1
 281 350 l 1,0,-1
281 1043 m 1,6,-1
 1015 1386 l 1,7,-1
 1161 1212 l 1,8,-1
 1161 1201 l 1,9,-1
 506 894 l 1,10,-1
 1162 587 l 1,11,-1
 1162 576 l 1,12,-1
 989 369 l 1,13,-1
 80 793 l 1,14,-1
 80 803 l 1,15,-1
 281 1043 l 1,6,-1
EndSplineSet
Validated: 1
EndChar

StartChar: greaterequal
Encoding: 8805 8805 163
Width: 1292
GlyphClass: 2
Flags: W
HStem: 100 250<331 963>
DStem2: 303 1386 130 1168 0.90626 -0.422722<0 659.652> 131 554 277 369 0.905962 0.423358<53.9492 723.376>
LayerCount: 2
Fore
SplineSet
331 350 m 1,0,-1
 1164 350 l 1,1,-1
 1164 340 l 1,2,-1
 963 100 l 1,3,-1
 130 100 l 1,4,-1
 130 110 l 1,5,-1
 331 350 l 1,0,-1
303 1386 m 1,6,-1
 1212 962 l 1,7,-1
 1212 952 l 1,8,-1
 1011 712 l 1,9,-1
 277 369 l 1,10,-1
 131 543 l 1,11,-1
 131 554 l 1,12,-1
 786 861 l 1,13,-1
 130 1168 l 1,14,-1
 130 1179 l 1,15,-1
 303 1386 l 1,6,-1
EndSplineSet
Validated: 1
EndChar

StartChar: lozenge
Encoding: 9674 9674 164
Width: 1118
GlyphClass: 2
Flags: W
HStem: -20 21G<545.042 572.903> 1510 20G<545.641 572.409>
DStem2: 30 738 324 801 0.555427 0.831565<215.684 555.993> 324 801 30 738 0.5723 -0.820044<0 496.043> 559 1530 513 1084 0.556885 -0.83059<344.826 844.071> 609 395 559 -20 0.57078 0.821103<0 333.611>
LayerCount: 2
Fore
SplineSet
609 395 m 1,0,-1
 795 672 l 1,1,-1
 513 1084 l 1,2,-1
 324 801 l 1,3,-1
 609 395 l 1,0,-1
559 -20 m 1,4,-1
 30 738 l 1,5,-1
 559 1530 l 1,6,-1
 1088 741 l 1,7,-1
 559 -20 l 1,4,-1
EndSplineSet
Validated: 1
EndChar

StartChar: AE
Encoding: 198 198 165
Width: 2038
Flags: W
HStem: -40 21G<105 315> 0 210<1328.8 1866> 480 210<172 195 515 1005 1325 1629> 1230 300<679.497 905.972> 1300 210<1231 1698>
VStem: 195 320<142.855 480 690 1108.87> 1005 320<210.911 480 690 1128.02>
LayerCount: 2
Fore
SplineSet
1140 0 m 17,0,1
 1005 72 1005 72 1005 254 c 2,2,-1
 1005 480 l 1,3,-1
 515 480 l 1,4,-1
 515 326 l 2,5,6
 515 0 515 0 115 -40 c 1,7,-1
 105 -40 l 1,8,9
 195 125 195 125 195 332 c 2,10,-1
 195 480 l 1,11,-1
 5 480 l 1,12,-1
 5 490 l 1,13,-1
 172 690 l 1,14,-1
 195 690 l 1,15,-1
 195 970 l 2,16,17
 195 1032 195 1032 217 1076 c 0,18,19
 235 1112 235 1112 290 1158 c 2,20,-1
 678 1484 l 2,21,22
 733 1530 733 1530 785 1530 c 0,23,24
 866 1530 866 1530 938 1510 c 1,25,-1
 1865 1510 l 1,26,-1
 1865 1500 l 1,27,-1
 1698 1300 l 1,28,-1
 1231 1300 l 1,29,30
 1325 1166 1325 1166 1325 981 c 2,31,-1
 1325 690 l 1,32,-1
 1796 690 l 1,33,-1
 1796 680 l 1,34,-1
 1629 480 l 1,35,-1
 1325 480 l 1,36,-1
 1325 288 l 2,37,38
 1325 239 1325 239 1352 210 c 1,39,-1
 2033 210 l 1,40,-1
 2033 200 l 1,41,-1
 1866 0 l 1,42,-1
 1140 0 l 17,0,1
1005 690 m 1,43,-1
 1005 980 l 2,44,45
 1005 1094 1005 1094 934 1162 c 0,46,47
 862 1230 862 1230 758 1230 c 128,-1,48
 654 1230 654 1230 585 1160 c 0,49,50
 515 1088 515 1088 515 980 c 2,51,-1
 515 690 l 1,52,-1
 1005 690 l 1,43,-1
EndSplineSet
Validated: 19457
EndChar

StartChar: Eth
Encoding: 208 208 166
Width: 1338
Flags: W
HStem: -40 21G<155 399.5> 579 150<122 155 475 660> 1530 20G<441.154 475 738.186 864.5>
VStem: 155 320<232 579 729 1290> 981 327<617.324 1030.24>
LayerCount: 2
Fore
SplineSet
155 -40 m 1,0,-1
 155 579 l 1,1,-1
 5 579 l 1,2,-1
 5 589 l 1,3,-1
 122 729 l 1,4,-1
 155 729 l 1,5,-1
 155 1290 l 1,6,-1
 465 1550 l 1,7,-1
 475 1550 l 1,8,-1
 475 729 l 1,9,-1
 777 729 l 1,10,-1
 777 719 l 1,11,-1
 660 579 l 1,12,-1
 475 579 l 1,13,-1
 475 232 l 1,14,15
 643 299 643 299 773 404 c 0,16,17
 981 573 981 573 981 838 c 0,18,19
 981 1039 981 1039 822 1169 c 0,20,21
 697 1271 697 1271 481 1294 c 1,22,-1
 762 1530 l 1,23,24
 967 1490 967 1490 1119 1345 c 0,25,26
 1308 1160 1308 1160 1308 878 c 0,27,28
 1308 471 1308 471 937 224 c 0,29,30
 634 22 634 22 165 -40 c 1,31,-1
 155 -40 l 1,0,-1
EndSplineSet
Validated: 1
EndChar

StartChar: Hbar
Encoding: 294 294 167
Width: 1460
Flags: W
HStem: -40 21G<195 228.846 985 1018.85> 480 210<172 195 515 985> 1220 150<162 195 515 985 1305 1338> 1530 20G<481.111 515 1271.11 1305>
VStem: 195 320<220 480 690 1220> 985 320<220 480 690 1220>
LayerCount: 2
Fore
SplineSet
195 -40 m 1,0,-1
 195 480 l 1,1,-1
 5 480 l 1,2,-1
 5 490 l 1,3,-1
 172 690 l 1,4,-1
 195 690 l 1,5,-1
 195 1220 l 1,6,-1
 45 1220 l 1,7,-1
 45 1230 l 1,8,-1
 162 1370 l 1,9,-1
 290 1370 l 1,10,-1
 505 1550 l 1,11,-1
 515 1550 l 1,12,-1
 515 1370 l 1,13,-1
 1080 1370 l 1,14,-1
 1295 1550 l 1,15,-1
 1305 1550 l 1,16,-1
 1305 1370 l 1,17,-1
 1455 1370 l 1,18,-1
 1455 1360 l 1,19,-1
 1338 1220 l 1,20,-1
 1305 1220 l 1,21,-1
 1305 220 l 1,22,-1
 995 -40 l 1,23,-1
 985 -40 l 1,24,-1
 985 480 l 1,25,-1
 515 480 l 1,26,-1
 515 220 l 1,27,-1
 205 -40 l 1,28,-1
 195 -40 l 1,0,-1
985 1220 m 1,29,-1
 515 1220 l 1,30,-1
 515 690 l 1,31,-1
 985 690 l 1,32,-1
 985 1220 l 1,29,-1
EndSplineSet
Validated: 19457
EndChar

StartChar: Lslash
Encoding: 321 321 168
Width: 1228
Flags: W
HStem: 0 210<172 195 515 1056> 1120 20G<678.178 736.086> 1530 20G<481.154 515>
VStem: 195 320<210 518 715 787 983 1290>
DStem2: 18 566 140 472 0.765462 0.643481<32.8992 104.6 648.766 892.934>
LayerCount: 2
Fore
SplineSet
1056 0 m 1,0,-1
 5 0 l 1,1,-1
 5 10 l 1,2,-1
 172 210 l 1,3,-1
 195 210 l 1,4,-1
 195 518 l 1,5,-1
 140 472 l 1,6,-1
 130 472 l 1,7,-1
 18 566 l 1,8,-1
 195 715 l 1,9,-1
 195 1290 l 1,10,-1
 505 1550 l 1,11,-1
 515 1550 l 1,12,-1
 515 983 l 1,13,-1
 702 1140 l 1,14,-1
 712 1140 l 1,15,-1
 824 1047 l 1,16,-1
 515 787 l 1,17,-1
 515 210 l 1,18,-1
 1223 210 l 1,19,-1
 1223 200 l 1,20,-1
 1056 0 l 1,0,-1
EndSplineSet
Validated: 19457
EndChar

StartChar: Eng
Encoding: 330 330 169
Width: 1390
Flags: W
HStem: -370 10<718 724.883> -40 21G<130 163.846> 1230 300<614.98 838.691> 1530 20G<416.154 450>
VStem: 130 320<220 1129.95> 940 320<-158.906 1130.08>
LayerCount: 2
Fore
SplineSet
130 -40 m 1,0,-1
 130 1290 l 1,1,-1
 440 1550 l 1,2,-1
 450 1550 l 1,3,-1
 450 1347 l 1,4,-1
 613 1484 l 2,5,6
 668 1530 668 1530 720 1530 c 0,7,8
 964 1530 964 1530 1125 1351 c 0,9,10
 1260 1201 1260 1201 1260 981 c 2,11,-1
 1260 34 l 2,12,13
 1260 -370 1260 -370 718 -370 c 1,14,-1
 718 -360 l 1,15,16
 940 -261 940 -261 940 36 c 2,17,-1
 940 981 l 2,18,19
 940 1094 940 1094 869 1162 c 0,20,21
 796 1230 796 1230 693 1230 c 0,22,23
 591 1230 591 1230 520 1160 c 0,24,25
 450 1090 450 1090 450 981 c 2,26,-1
 450 220 l 1,27,-1
 140 -40 l 1,28,-1
 130 -40 l 1,0,-1
EndSplineSet
Validated: 1
EndChar

StartChar: Oslash
Encoding: 216 216 170
Width: 1290
Flags: W
HStem: -20 288<501.942 725.493> 1242 288<564.507 788.876>
VStem: 80 310<397.755 1109.41> 900 310<400.586 1111.66>
DStem2: 230 -15 312 -76 0.423071 0.906096<0 107.373 453.635 1293.81 1640.07 1747.44>
LayerCount: 2
Fore
SplineSet
620 -20 m 0,0,1
 480 -20 480 -20 366 40 c 1,2,-1
 312 -76 l 1,3,-1
 302 -76 l 1,4,-1
 230 -15 l 1,5,-1
 282 96 l 1,6,7
 247 124 247 124 215 159 c 0,8,9
 80 307 80 307 80 529 c 2,10,-1
 80 970 l 2,11,12
 80 1032 80 1032 102 1076 c 0,13,14
 120 1112 120 1112 175 1158 c 2,15,-1
 563 1484 l 2,16,17
 618 1530 618 1530 670 1530 c 0,18,19
 811 1530 811 1530 924 1471 c 1,20,-1
 978 1587 l 1,21,-1
 986 1587 l 1,22,-1
 1060 1526 l 1,23,-1
 1008 1415 l 1,24,25
 1043 1387 1043 1387 1075 1351 c 0,26,27
 1210 1201 1210 1201 1210 981 c 2,28,-1
 1210 540 l 2,29,30
 1210 478 1210 478 1188 434 c 0,31,32
 1170 398 1170 398 1115 352 c 2,33,-1
 727 26 l 2,34,35
 672 -20 672 -20 620 -20 c 0,0,1
900 529 m 2,36,-1
 900 981 l 2,37,38
 900 1058 900 1058 868 1115 c 1,39,-1
 495 317 l 1,40,41
 563 268 563 268 646 268 c 0,42,43
 745 268 745 268 822.5 340 c 128,-1,44
 900 412 900 412 900 529 c 2,36,-1
422 396 m 1,45,-1
 794 1194 l 1,46,47
 726 1242 726 1242 644 1242 c 0,48,49
 545 1242 545 1242 467.5 1170 c 128,-1,50
 390 1098 390 1098 390 981 c 2,51,-1
 390 529 l 2,52,53
 390 452 390 452 422 396 c 1,45,-1
EndSplineSet
Validated: 1
EndChar

StartChar: OE
Encoding: 338 338 171
Width: 1923
Flags: W
HStem: -20 300<504.174 725.048> 0 210<1210 1751> 480 210<1210 1514> 1230 300<564.952 785.316> 1300 210<1116 1583>
VStem: 80 320<385.119 1107.2> 890 320<385.079 480 690 1127.51>
LayerCount: 2
Fore
SplineSet
1751 0 m 1,0,-1
 890 0 l 1,1,-1
 890 163 l 1,2,-1
 727 26 l 2,3,4
 672 -20 672 -20 620 -20 c 0,5,6
 378 -20 378 -20 215 159 c 0,7,8
 80 307 80 307 80 529 c 2,9,-1
 80 970 l 2,10,11
 80 1032 80 1032 102 1076 c 0,12,13
 120 1112 120 1112 175 1158 c 2,14,-1
 563 1484 l 2,15,16
 618 1530 618 1530 670 1530 c 0,17,18
 752 1530 752 1530 824 1510 c 1,19,-1
 1750 1510 l 1,20,-1
 1750 1500 l 1,21,-1
 1583 1300 l 1,22,-1
 1116 1300 l 1,23,24
 1210 1165 1210 1165 1210 981 c 2,25,-1
 1210 690 l 1,26,-1
 1681 690 l 1,27,-1
 1681 680 l 1,28,-1
 1514 480 l 1,29,-1
 1210 480 l 1,30,-1
 1210 210 l 1,31,-1
 1918 210 l 1,32,-1
 1918 200 l 1,33,-1
 1751 0 l 1,0,-1
890 529 m 2,34,-1
 890 981 l 2,35,36
 890 1090 890 1090 816.5 1160 c 128,-1,37
 743 1230 743 1230 644 1230 c 128,-1,38
 545 1230 545 1230 472.5 1158 c 128,-1,39
 400 1086 400 1086 400 981 c 2,40,-1
 400 529 l 2,41,42
 400 420 400 420 473.5 350 c 128,-1,43
 547 280 547 280 646 280 c 128,-1,44
 745 280 745 280 817.5 352 c 128,-1,45
 890 424 890 424 890 529 c 2,34,-1
EndSplineSet
Validated: 1
EndChar

StartChar: longs
Encoding: 383 383 172
Width: 1108
Flags: W
HStem: -40 21G<265 298.83> 734 180<162 265> 1250 280<636.331 837.891>
VStem: 265 290<195 734 914 1203.79>
LayerCount: 2
Fore
SplineSet
265 -40 m 1,0,-1
 265 734 l 1,1,-1
 20 734 l 1,2,-1
 20 744 l 1,3,-1
 162 914 l 1,4,-1
 265 914 l 1,5,-1
 265 1071 l 2,6,7
 265 1135 265 1135 290 1177 c 0,8,9
 313 1215 313 1215 361 1255 c 2,10,-1
 636 1485 l 2,11,12
 690 1530 690 1530 749 1530 c 0,13,14
 801 1530 801 1530 837 1522 c 0,15,16
 965 1493 965 1493 1054 1410 c 0,17,18
 1082 1384 1082 1384 1103 1354 c 1,19,-1
 885 1152 l 1,20,21
 866 1183 866 1183 836 1208 c 0,22,23
 787 1250 787 1250 717 1250 c 0,24,25
 645 1250 645 1250 602 1208 c 0,26,27
 555 1164 555 1164 555 1083 c 2,28,-1
 555 195 l 1,29,-1
 275 -40 l 1,30,-1
 265 -40 l 1,0,-1
EndSplineSet
Validated: 1
EndChar

StartChar: florin
Encoding: 402 402 173
Width: 1053
Flags: W
HStem: -450 21G<109 309.5> 734 180<162 210 500 710> 1250 280<581.331 782.89>
VStem: 210 290<-241.127 734 914 1203.79>
LayerCount: 2
Fore
SplineSet
109 -450 m 1,0,1
 210 -310 210 -310 210 -67 c 2,2,-1
 210 734 l 1,3,-1
 20 734 l 1,4,-1
 20 744 l 1,5,-1
 162 914 l 1,6,-1
 210 914 l 1,7,-1
 210 1071 l 2,8,9
 210 1135 210 1135 235 1177 c 0,10,11
 258 1215 258 1215 306 1255 c 2,12,-1
 581 1485 l 2,13,14
 635 1530 635 1530 694 1530 c 0,15,16
 745 1530 745 1530 782 1522 c 0,17,18
 908 1495 908 1495 999 1410 c 0,19,20
 1027 1384 1027 1384 1048 1354 c 1,21,-1
 830 1152 l 1,22,23
 811 1183 811 1183 781 1208 c 0,24,25
 732 1250 732 1250 662 1250 c 0,26,27
 590 1250 590 1250 547 1208 c 0,28,29
 500 1164 500 1164 500 1083 c 2,30,-1
 500 914 l 1,31,-1
 852 914 l 1,32,-1
 852 904 l 1,33,-1
 710 734 l 1,34,-1
 500 734 l 1,35,-1
 500 -67 l 2,36,37
 500 -354 500 -354 119 -450 c 1,38,-1
 109 -450 l 1,0,1
EndSplineSet
Validated: 1
EndChar

StartChar: thorn
Encoding: 254 254 174
Width: 1120
Flags: W
HStem: -450 21G<130 163.83> -20 280<468.401 668.669> 840 280<501.792 700.728> 1530 20G<386.17 420>
VStem: 130 290<-215 35 306.117 795.214 1007 1315> 750 300<315.107 791.73>
LayerCount: 2
Fore
SplineSet
582 840 m 128,-1,1
 512 840 512 840 467 798 c 0,2,3
 420 754 420 754 420 673 c 2,4,-1
 420 427 l 2,5,6
 420 345 420 345 469 302 c 0,7,8
 518 260 518 260 588 260 c 0,9,10
 660 260 660 260 703 302 c 0,11,12
 750 346 750 346 750 427 c 2,13,-1
 750 673 l 2,14,15
 750 757 750 757 701 798 c 0,16,0
 652 840 652 840 582 840 c 128,-1,1
559 -20 m 0,17,18
 477 -20 477 -20 420 35 c 9,19,-1
 420 -215 l 1,20,-1
 140 -450 l 1,21,-1
 130 -450 l 1,22,-1
 130 1315 l 1,23,-1
 410 1550 l 1,24,-1
 420 1550 l 1,25,-1
 420 1007 l 1,26,-1
 501 1075 l 2,27,28
 555 1120 555 1120 614 1120 c 0,29,30
 666 1120 666 1120 702 1112 c 0,31,32
 834 1082 834 1082 919 1000 c 0,33,34
 1050 875 1050 875 1050 673 c 2,35,-1
 1050 448 l 2,36,37
 1050 384 1050 384 1025 342 c 0,38,39
 1003 305 1003 305 954 264 c 2,40,-1
 669 25 l 2,41,42
 615 -20 615 -20 559 -20 c 0,17,18
EndSplineSet
Validated: 1
EndChar

StartChar: eth
Encoding: 240 240 175
Width: 1100
Flags: W
HStem: -20 280<419.272 618.208> 840 280<451.331 651.161> 1530 20G<355.381 435>
VStem: 70 300<308.27 784.893> 700 300<315.107 793.883>
LayerCount: 2
Fore
SplineSet
538 260 m 128,-1,1
 608 260 608 260 653 302 c 0,2,3
 700 346 700 346 700 427 c 2,4,-1
 700 673 l 2,5,6
 700 755 700 755 651 798 c 0,7,8
 602 840 602 840 532 840 c 0,9,10
 460 840 460 840 417 798 c 0,11,12
 370 754 370 754 370 673 c 2,13,-1
 370 427 l 2,14,15
 370 343 370 343 419 302 c 0,16,0
 468 260 468 260 538 260 c 128,-1,1
506 -20 m 0,17,18
 454 -20 454 -20 418 -12 c 0,19,20
 286 18 286 18 201 100 c 0,21,22
 70 225 70 225 70 427 c 2,23,-1
 70 652 l 2,24,25
 70 716 70 716 95 758 c 0,26,27
 117 795 117 795 166 836 c 2,28,-1
 451 1075 l 2,29,30
 505 1120 505 1120 564 1120 c 0,31,32
 630 1120 630 1120 692 1074 c 1,33,34
 657 1201 657 1201 534 1271 c 1,35,-1
 300 1074 l 1,36,-1
 294 1082 l 1,37,-1
 293 1264 l 1,38,-1
 366 1325 l 1,39,40
 271 1340 271 1340 131 1340 c 1,41,-1
 379 1550 l 1,42,43
 491 1545 491 1545 588 1511 c 1,44,-1
 795 1685 l 1,45,-1
 801 1677 l 1,46,-1
 802 1495 l 1,47,-1
 735 1439 l 1,48,49
 777 1412 777 1412 815 1378 c 0,50,51
 1000 1213 1000 1213 1000 917 c 2,52,-1
 1000 448 l 2,53,54
 1000 385 1000 385 975 342 c 0,55,56
 954 306 954 306 904 264 c 2,57,-1
 619 25 l 2,58,59
 565 -20 565 -20 506 -20 c 0,17,18
EndSplineSet
Validated: 1
EndChar

StartChar: oslash
Encoding: 248 248 176
Width: 1070
Flags: W
HStem: -20 273<459.737 618.208> 847 273<451.792 610.263>
VStem: 70 290<342.31 785.11> 710 290<314.156 757.69>
DStem2: 207 -35 289 -95 0.422603 0.906315<0 103.321 412.495 923.792 1234.1 1337.62>
LayerCount: 2
Fore
SplineSet
506 -20 m 0,0,1
 454 -20 454 -20 418 -12 c 0,2,3
 376 -2 376 -2 339 12 c 1,4,-1
 289 -95 l 1,5,-1
 279 -95 l 1,6,-1
 207 -35 l 1,7,-1
 251 59 l 1,8,9
 224 78 224 78 201 100 c 0,10,11
 70 225 70 225 70 427 c 2,12,-1
 70 652 l 2,13,14
 70 716 70 716 95 758 c 0,15,16
 117 795 117 795 166 836 c 2,17,-1
 451 1075 l 2,18,19
 506 1120 506 1120 564 1120 c 0,20,21
 616 1120 616 1120 652 1112 c 0,22,23
 694 1102 694 1102 731 1088 c 1,24,-1
 781 1196 l 1,25,-1
 791 1196 l 1,26,-1
 863 1135 l 1,27,-1
 819 1041 l 1,28,29
 846 1023 846 1023 869 1000 c 0,30,31
 1000 875 1000 875 1000 673 c 2,32,-1
 1000 448 l 2,33,34
 1000 385 1000 385 975 342 c 0,35,36
 954 306 954 306 904 264 c 2,37,-1
 619 25 l 2,38,39
 564 -20 564 -20 506 -20 c 0,0,1
538 253 m 0,40,41
 608 253 608 253 653 295 c 0,42,43
 710 348 710 348 710 427 c 2,44,-1
 710 673 l 2,45,46
 710 722 710 722 688 760 c 1,47,-1
 459 269 l 1,48,49
 494 253 494 253 538 253 c 0,40,41
381 339 m 1,50,-1
 611 831 l 1,51,52
 576 847 576 847 532 847 c 0,53,54
 462 847 462 847 417 805 c 0,55,56
 360 752 360 752 360 673 c 2,57,-1
 360 427 l 2,58,59
 360 377 360 377 381 339 c 1,50,-1
EndSplineSet
Validated: 1
EndChar

StartChar: oe
Encoding: 339 339 177
Width: 1705
Flags: W
HStem: -20 270<424.775 618.619 1053.26 1253.91> 845 275<451.219 649.295 1086.58 1287.99>
VStem: 70 295<309.533 785.11> 705 295<467 789.891>
DStem2: 1000 467 1043 306 0.765288 0.643688<0 436.348> 1288 302 1539 264 0.76514 0.643864<-120.195 324.798>
LayerCount: 2
Fore
SplineSet
538 255 m 128,-1,1
 608 255 608 255 655 302 c 0,2,3
 705 351 705 351 705 427 c 2,4,-1
 705 673 l 2,5,6
 705 748 705 748 652 798 c 0,7,8
 602 845 602 845 532 845 c 0,9,10
 467 845 467 845 417 798 c 0,11,12
 365 749 365 749 365 673 c 2,13,-1
 365 427 l 2,14,15
 365 349 365 349 416.5 302 c 128,-1,0
 468 255 468 255 538 255 c 128,-1,1
1141 -20 m 0,16,17
 1089 -20 1089 -20 1053 -12 c 0,18,19
 921 18 921 18 836 100 c 0,20,21
 806 129 806 129 782 162 c 1,22,-1
 619 25 l 2,23,24
 564 -20 564 -20 506 -20 c 0,25,26
 454 -20 454 -20 418 -12 c 0,27,28
 286 18 286 18 201 100 c 0,29,30
 70 225 70 225 70 427 c 2,31,-1
 70 652 l 2,32,33
 70 716 70 716 95 758 c 0,34,35
 117 795 117 795 166 836 c 2,36,-1
 451 1075 l 2,37,38
 506 1120 506 1120 564 1120 c 0,39,40
 616 1120 616 1120 652 1112 c 0,41,42
 783 1082 783 1082 869 1000 c 0,43,44
 899 971 899 971 923 938 c 1,45,-1
 1086 1075 l 2,46,47
 1140 1120 1140 1120 1199 1120 c 0,48,49
 1251 1120 1251 1120 1287 1112 c 0,50,51
 1418 1082 1418 1082 1504 1000 c 0,52,53
 1593 915 1593 915 1622 793 c 1,54,-1
 1043 306 l 1,55,56
 1089 250 1089 250 1173 250 c 0,57,58
 1226 250 1226 250 1288 302 c 2,59,-1
 1635 594 l 1,60,-1
 1635 448 l 2,61,62
 1635 387 1635 387 1610 342 c 0,63,64
 1590 307 1590 307 1539 264 c 2,65,-1
 1254 25 l 2,66,67
 1200 -20 1200 -20 1141 -20 c 0,16,17
1328 742 m 1,68,69
 1315 775 1315 775 1289 800 c 0,70,71
 1242 845 1242 845 1170 845 c 0,72,73
 1099 845 1099 845 1052 798 c 0,74,75
 1000 747 1000 747 1000 673 c 2,76,-1
 1000 467 l 1,77,-1
 1328 742 l 1,68,69
EndSplineSet
Validated: 1
EndChar

StartChar: eng
Encoding: 331 331 178
Width: 1140
Flags: W
HStem: -370 10<528 534.883> -40 21G<130 163.83> 840 280<501.331 700.728> 1120 20G<386.17 420>
VStem: 130 290<195 795.214> 750 300<-161.293 791.73>
LayerCount: 2
Fore
SplineSet
130 -40 m 1,0,-1
 130 905 l 1,1,-1
 410 1140 l 1,2,-1
 420 1140 l 1,3,-1
 420 1007 l 1,4,-1
 501 1075 l 2,5,6
 555 1120 555 1120 614 1120 c 0,7,8
 666 1120 666 1120 702 1112 c 0,9,10
 833 1082 833 1082 919 1000 c 0,11,12
 1050 875 1050 875 1050 673 c 2,13,-1
 1050 34 l 2,14,15
 1050 -370 1050 -370 528 -370 c 1,16,-1
 528 -360 l 1,17,18
 750 -261 750 -261 750 36 c 2,19,-1
 750 673 l 2,20,21
 750 755 750 755 701 798 c 0,22,23
 652 840 652 840 582 840 c 0,24,25
 510 840 510 840 467 798 c 0,26,27
 420 754 420 754 420 673 c 2,28,-1
 420 195 l 1,29,-1
 140 -40 l 1,30,-1
 130 -40 l 1,0,-1
EndSplineSet
Validated: 1
EndChar

StartChar: ae
Encoding: 230 230 179
Width: 1618
Flags: W
HStem: -20 270<965.97 1166.91> -20 230<362.648 548.883> 511 231<388.959 585.78> 855 265<354.303 577.8 999.58 1189.71>
VStem: 30 283<257.038 425.589>
DStem2: 913 467 956 306 0.765288 0.643688<0 436.348> 1201 302 1452 264 0.76514 0.643864<-120.195 324.798>
LayerCount: 2
Fore
SplineSet
313 359 m 0,0,1
 313 294 313 294 361 253 c 0,2,3
 412 210 412 210 473 210 c 0,4,5
 540 210 540 210 588 257 c 0,6,7
 633 301 633 301 633 359 c 0,8,9
 633 424 633 424 586 467 c 0,10,11
 538 511 538 511 473 511 c 0,12,13
 410 511 410 511 360 464 c 0,14,15
 313 420 313 420 313 359 c 0,0,1
1054 -20 m 0,16,17
 1002 -20 1002 -20 966 -12 c 0,18,19
 834 18 834 18 749 100 c 0,20,21
 723 125 723 125 702 153 c 1,22,-1
 546 21 l 2,23,24
 498 -20 498 -20 444 -20 c 0,25,26
 263 -20 263 -20 146.5 74 c 128,-1,27
 30 168 30 168 30 304 c 0,28,29
 30 360 30 360 58 403 c 0,30,31
 83 440 83 440 122 473 c 2,32,-1
 393 701 l 2,33,34
 442 742 442 742 497 742 c 0,35,36
 577 742 577 742 643 689 c 1,37,38
 632 762 632 762 574 814 c 0,39,40
 529 855 529 855 452 855 c 128,-1,41
 375 855 375 855 320 808 c 1,42,-1
 197 943 l 1,43,-1
 354 1075 l 2,44,45
 408 1120 408 1120 467 1120 c 0,46,47
 519 1120 519 1120 555 1112 c 0,48,49
 679 1085 679 1085 777 998 c 0,50,51
 809 969 809 969 834 937 c 1,52,-1
 999 1075 l 2,53,54
 1053 1120 1053 1120 1112 1120 c 0,55,56
 1164 1120 1164 1120 1200 1112 c 0,57,58
 1331 1082 1331 1082 1417 1000 c 0,59,60
 1506 915 1506 915 1535 793 c 1,61,-1
 956 306 l 1,62,63
 999 250 999 250 1086 250 c 0,64,65
 1139 250 1139 250 1201 302 c 2,66,-1
 1548 594 l 1,67,-1
 1548 448 l 2,68,69
 1548 387 1548 387 1523 342 c 0,70,71
 1503 307 1503 307 1452 264 c 2,72,-1
 1167 25 l 2,73,74
 1113 -20 1113 -20 1054 -20 c 0,16,17
1241 742 m 1,75,76
 1228 775 1228 775 1202 800 c 0,77,78
 1155 845 1155 845 1083 845 c 0,79,80
 1012 845 1012 845 965 798 c 0,81,82
 913 747 913 747 913 681 c 2,83,-1
 913 467 l 1,84,-1
 1241 742 l 1,75,76
EndSplineSet
Validated: 1
EndChar

StartChar: kgreenlandic
Encoding: 312 312 180
Width: 1140
Flags: W
HStem: -40 21G<130 163.83 750 783.868> 1120 20G<386.17 420 872.2 929.894>
VStem: 130 290<195 528.214 740 905> 750 300<203 524.73>
DStem2: 896 1140 791 817 0.765578 0.643343<-288.185 0>
LayerCount: 2
Fore
SplineSet
130 -40 m 1,0,-1
 130 905 l 1,1,-1
 410 1140 l 1,2,-1
 420 1140 l 1,3,-1
 420 740 l 1,4,-1
 896 1140 l 1,5,-1
 906 1140 l 1,6,-1
 1041 1027 l 1,7,-1
 791 817 l 1,8,9
 864 786 864 786 919 733 c 0,10,11
 1050 608 1050 608 1050 406 c 2,12,-1
 1050 203 l 1,13,-1
 760 -40 l 1,14,-1
 750 -40 l 1,15,-1
 750 406 l 2,16,17
 750 488 750 488 701 531 c 0,18,19
 652 573 652 573 582 573 c 0,20,21
 510 573 510 573 467 531 c 0,22,23
 420 487 420 487 420 406 c 2,24,-1
 420 195 l 1,25,-1
 140 -40 l 1,26,-1
 130 -40 l 1,0,-1
EndSplineSet
Validated: 1
EndChar

StartChar: lslash
Encoding: 322 322 181
Width: 816
Flags: W
HStem: -40 21G<263 296.83> 1120 20G<665.14 723.086> 1530 20G<519.17 553>
VStem: 263 290<195 586 783 830 1026 1315>
DStem2: 5 566 127 472 0.765462 0.643481<32.8992 210.359 715.474 892.934>
LayerCount: 2
Fore
SplineSet
263 -40 m 1,0,-1
 263 586 l 1,1,-1
 127 472 l 1,2,-1
 117 472 l 1,3,-1
 5 566 l 1,4,-1
 263 783 l 1,5,-1
 263 1315 l 1,6,-1
 543 1550 l 1,7,-1
 553 1550 l 1,8,-1
 553 1026 l 1,9,-1
 689 1140 l 1,10,-1
 699 1140 l 1,11,-1
 811 1047 l 1,12,-1
 553 830 l 1,13,-1
 553 195 l 1,14,-1
 273 -40 l 1,15,-1
 263 -40 l 1,0,-1
EndSplineSet
Validated: 1
EndChar

StartChar: multiply
Encoding: 215 215 182
Width: 1168
Flags: W
HStem: 443 624
VStem: 407 354<578 932>
DStem2: 449 1067 407 755 0.707107 -0.707107<0 190.919 441.235 632.153> 407 755 449 443 0.707107 0.707107<-190.919 0 250.316 441.235>
LayerCount: 2
Fore
SplineSet
1031 1039 m 1,0,-1
 1038 1032 l 1,1,-1
 761 755 l 1,2,-1
 1038 478 l 1,3,-1
 1031 471 l 1,4,-1
 719 443 l 1,5,-1
 584 578 l 1,6,-1
 449 443 l 1,7,-1
 137 471 l 1,8,-1
 130 478 l 1,9,-1
 407 755 l 1,10,-1
 130 1032 l 1,11,-1
 137 1039 l 1,12,-1
 449 1067 l 1,13,-1
 584 932 l 1,14,-1
 719 1067 l 1,15,-1
 1031 1039 l 1,0,-1
EndSplineSet
Validated: 1
EndChar

StartChar: divide
Encoding: 247 247 183
Width: 1194
Flags: W
HStem: 630 250<281 913>
VStem: 413 367<305.906 459.492 1050.91 1204.49>
LayerCount: 2
Fore
SplineSet
281 880 m 1,0,-1
 1114 880 l 1,1,-1
 1114 870 l 1,2,-1
 913 630 l 1,3,-1
 80 630 l 1,4,-1
 80 640 l 1,5,-1
 281 880 l 1,0,-1
615 1315 m 0,6,7
 634 1315 634 1315 657 1306 c 0,8,9
 706 1287 706 1287 737 1245 c 0,10,11
 780 1189 780 1189 780 1131 c 0,12,13
 780 1088 780 1088 746 1060 c 2,14,-1
 631 963 l 2,15,16
 606 942 606 942 579 942 c 0,17,18
 560 942 560 942 536 951 c 0,19,20
 489 969 489 969 456 1012 c 0,21,22
 413 1068 413 1068 413 1126 c 0,23,24
 413 1169 413 1169 447 1197 c 2,25,-1
 563 1294 l 2,26,27
 588 1315 588 1315 615 1315 c 0,6,7
579 197 m 0,28,29
 560 197 560 197 536 206 c 0,30,31
 489 224 489 224 456 267 c 0,32,33
 413 323 413 323 413 381 c 0,34,35
 413 424 413 424 447 452 c 2,36,-1
 563 549 l 2,37,38
 588 570 588 570 615 570 c 0,39,40
 634 570 634 570 657 561 c 0,41,42
 706 542 706 542 737 500 c 0,43,44
 780 444 780 444 780 386 c 0,45,46
 780 343 780 343 746 315 c 2,47,-1
 631 218 l 2,48,49
 606 197 606 197 579 197 c 0,28,29
EndSplineSet
Validated: 1
EndChar

StartChar: germandbls
Encoding: 223 223 184
Width: 1190
Flags: W
HStem: -40 21G<130 163.83> -20 280<567.645 717.033> 1255 275<501.608 705.236>
VStem: 130 290<195 1202.75> 754 296<996.226 1208.74> 800 300<315.168 631.832>
LayerCount: 2
Fore
SplineSet
130 -40 m 1,0,-1
 130 1063 l 2,1,2
 130 1127 130 1127 154 1173 c 0,3,4
 174 1210 174 1210 225 1253 c 2,5,-1
 501 1485 l 2,6,7
 555 1530 555 1530 614 1530 c 0,8,9
 794 1530 794 1530 921 1410 c 0,10,11
 1050 1288 1050 1288 1050 1131 c 0,12,13
 1050 1021 1050 1021 954 941 c 2,14,-1
 869 870 l 1,15,16
 939 846 939 846 986 800 c 0,17,18
 1100 687 1100 687 1100 492 c 2,19,-1
 1100 452 l 2,20,21
 1100 387 1100 387 1081 352 c 0,22,23
 1059 311 1059 311 1004 265 c 2,24,-1
 719 26 l 2,25,26
 664 -20 664 -20 606 -20 c 0,27,28
 464 -20 464 -20 362 77 c 1,29,-1
 604 277 l 1,30,-1
 614 277 l 1,31,32
 629 260 629 260 651 260 c 0,33,34
 711 261 711 261 755.5 305 c 128,-1,35
 800 349 800 349 800 438 c 2,36,-1
 800 504 l 2,37,38
 800 683 800 683 614 683 c 2,39,-1
 493 683 l 1,40,-1
 493 797 l 1,41,-1
 678 952 l 2,42,43
 754 1016 754 1016 754 1096 c 0,44,45
 754 1168 754 1168 706 1213 c 0,46,47
 661 1255 661 1255 586 1255 c 128,-1,48
 511 1255 511 1255 470 1214 c 0,49,50
 420 1165 420 1165 420 1072 c 2,51,-1
 420 195 l 1,52,-1
 140 -40 l 1,53,-1
 130 -40 l 1,0,-1
EndSplineSet
Validated: 1
EndChar

StartChar: Thorn
Encoding: 222 222 185
Width: 1252
Flags: W
HStem: -40 21G<130 163.846> 253 216<450 635.352> 1530 20G<416.154 450>
VStem: 130 320<220 258.129 469 1290> 891 331<678.02 929.297>
LayerCount: 2
Fore
SplineSet
130 -40 m 1,0,-1
 130 1290 l 1,1,-1
 440 1550 l 1,2,-1
 450 1550 l 1,3,-1
 450 469 l 1,4,5
 621 480 621 480 756 582 c 128,-1,6
 891 684 891 684 891 816 c 0,7,8
 891 936 891 936 733 1005 c 0,9,10
 641 1045 641 1045 456 1045 c 1,11,-1
 737 1281 l 1,12,13
 931 1281 931 1281 1068 1174 c 0,14,15
 1222 1054 1222 1054 1222 859 c 0,16,17
 1222 605 1222 605 962 426 c 0,18,19
 765 291 765 291 450 253 c 1,20,-1
 450 220 l 1,21,-1
 140 -40 l 1,22,-1
 130 -40 l 1,0,-1
EndSplineSet
Validated: 1
EndChar

StartChar: circumflex
Encoding: 710 710 186
Width: 649
Flags: W
HStem: 1151 419
VStem: 20 609
LayerCount: 2
Fore
SplineSet
280 1570 m 1,0,-1
 290 1570 l 1,1,-1
 413 1467 l 1,2,3
 486 1331 486 1331 629 1295 c 1,4,-1
 458 1151 l 1,5,-1
 448 1151 l 1,6,7
 376 1211 376 1211 324 1320 c 1,8,9
 276 1214 276 1214 201 1151 c 1,10,-1
 191 1151 l 1,11,-1
 20 1294 l 1,12,13
 188 1340 188 1340 280 1570 c 1,0,-1
EndSplineSet
Validated: 19457
EndChar

StartChar: caron
Encoding: 711 711 187
Width: 649
Flags: W
HStem: 1151 419
VStem: 20 609
LayerCount: 2
Fore
SplineSet
191 1570 m 1,0,-1
 201 1570 l 1,1,2
 273 1510 273 1510 325 1401 c 1,3,4
 373 1507 373 1507 448 1570 c 1,5,-1
 458 1570 l 1,6,-1
 629 1427 l 1,7,8
 461 1381 461 1381 369 1151 c 1,9,-1
 359 1151 l 1,10,-1
 236 1254 l 1,11,12
 163 1390 163 1390 20 1426 c 1,13,-1
 191 1570 l 1,0,-1
EndSplineSet
Validated: 19457
EndChar

StartChar: uni02C9
Encoding: 713 713 188
Width: 735
Flags: W
HStem: 1272 180<162 573>
LayerCount: 2
Fore
SplineSet
162 1452 m 5,0,-1
 715 1452 l 5,1,-1
 715 1442 l 5,2,-1
 573 1272 l 5,3,-1
 20 1272 l 5,4,-1
 20 1282 l 5,5,-1
 162 1452 l 5,0,-1
EndSplineSet
Validated: 19457
EndChar

StartChar: breve
Encoding: 728 728 189
Width: 628
Flags: W
HStem: 1207 162<223.502 386.017>
VStem: 20 177<1402.97 1483> 430 178<1403.97 1483>
LayerCount: 2
Fore
SplineSet
20 1483 m 5,0,-1
 197 1483 l 5,1,2
 197 1433 197 1433 228 1402 c 4,3,4
 261 1369 261 1369 313 1369 c 4,5,6
 366 1369 366 1369 399 1403 c 4,7,8
 430 1434 430 1434 430 1483 c 5,9,-1
 608 1483 l 5,10,11
 608 1456 608 1456 596 1436 c 4,12,13
 582 1415 582 1415 549 1387 c 6,14,-1
 368 1236 l 6,15,16
 333 1207 333 1207 297 1207 c 4,17,18
 264 1207 264 1207 241 1212 c 4,19,20
 157 1230 157 1230 103 1283 c 4,21,22
 20 1364 20 1364 20 1483 c 5,0,-1
EndSplineSet
Validated: 19457
EndChar

StartChar: dotaccent
Encoding: 729 729 190
Width: 407
Flags: W
HStem: 1170 373<142.812 264.953>
VStem: 20 367<1278.91 1432.49>
LayerCount: 2
Fore
SplineSet
186 1170 m 4,0,1
 167 1170 167 1170 143 1179 c 4,2,3
 96 1197 96 1197 63 1240 c 4,4,5
 20 1296 20 1296 20 1354 c 4,6,7
 20 1397 20 1397 54 1425 c 6,8,-1
 170 1522 l 6,9,10
 195 1543 195 1543 222 1543 c 4,11,12
 241 1543 241 1543 264 1534 c 4,13,14
 313 1515 313 1515 344 1473 c 4,15,16
 387 1417 387 1417 387 1359 c 4,17,18
 387 1316 387 1316 353 1288 c 6,19,-1
 238 1191 l 6,20,21
 213 1170 213 1170 186 1170 c 4,0,1
EndSplineSet
Validated: 19457
EndChar

StartChar: ring
Encoding: 730 730 191
Width: 455
Flags: W
HStem: 1160 114<160.552 289.53> 1444 114<166.001 291.298>
VStem: 20 125<1289.2 1425.98> 309 126<1292.01 1427.21>
LayerCount: 2
Fore
SplineSet
240 1558 m 4,0,1
 263 1558 263 1558 280 1554 c 4,2,3
 338 1541 338 1541 375 1504 c 4,4,5
 435 1447 435 1447 435 1365 c 28,6,7
 435 1340 435 1340 424 1321 c 4,8,9
 415 1305 415 1305 392 1287 c 6,10,-1
 265 1180 l 6,11,12
 242 1160 242 1160 215 1160 c 4,13,14
 192 1160 192 1160 176 1164 c 4,15,16
 117 1177 117 1177 79 1213 c 4,17,18
 20 1270 20 1270 20 1354 c 4,19,20
 20 1377 20 1377 31 1397 c 4,21,22
 41 1414 41 1414 63 1431 c 6,23,-1
 190 1537 l 6,24,25
 214 1558 214 1558 240 1558 c 4,0,1
226 1444 m 4,26,27
 194 1444 194 1444 169 1420 c 4,28,29
 145 1398 145 1398 145 1359 c 4,30,31
 145 1319 145 1319 167.5 1296.5 c 132,-1,32
 190 1274 190 1274 227 1274 c 132,-1,33
 264 1274 264 1274 287 1298 c 4,34,35
 309 1320 309 1320 309 1358.5 c 132,-1,36
 309 1397 309 1397 284 1421 c 4,37,38
 261 1444 261 1444 226 1444 c 4,26,27
EndSplineSet
Validated: 19457
EndChar

StartChar: ogonek
Encoding: 731 731 192
Width: 452
Flags: W
HStem: -470 580
VStem: 20 262<-316.598 -76.1035>
LayerCount: 2
Fore
SplineSet
291 110 m 1,0,-1
 301 110 l 1,1,-1
 432 0 l 1,2,3
 282 -57 282 -57 282 -169 c 0,4,5
 282 -258 282 -258 387 -288 c 1,6,-1
 170 -470 l 1,7,-1
 160 -470 l 1,8,9
 20 -371 20 -371 20 -225 c 0,10,11
 20 -31 20 -31 291 110 c 1,0,-1
EndSplineSet
Validated: 19457
EndChar

StartChar: tilde
Encoding: 732 732 193
Width: 699
Flags: W
HStem: 1208 109<468.633 545.779> 1400 108<154.237 227.684> 1503 20G<602.481 657.5>
VStem: 20 134<1263.87 1398.97> 546 133<1317.38 1451.79>
LayerCount: 2
Fore
SplineSet
636 1523 m 5,0,1
 679 1462 679 1462 679 1384 c 28,2,3
 679 1355 679 1355 659 1337 c 6,4,-1
 527 1225 l 6,5,6
 507 1208 507 1208 482 1208 c 4,7,8
 340 1208 340 1208 272 1301 c 28,9,10
 201 1399 201 1399 175 1400 c 4,11,12
 155 1400 155 1400 154 1380 c 4,13,14
 154 1348 154 1348 201 1301 c 5,15,-1
 73 1193 l 5,16,-1
 64 1193 l 5,17,18
 20 1252 20 1252 20 1332 c 28,19,20
 20 1361 20 1361 41 1379 c 6,21,-1
 173 1492 l 6,22,23
 192 1508 192 1508 218 1508 c 4,24,25
 361 1508 361 1508 427 1415 c 4,26,27
 497 1317 497 1317 525 1317 c 4,28,29
 546 1317 546 1317 546 1337 c 4,30,31
 546 1369 546 1369 499 1415 c 5,32,-1
 626 1523 l 5,33,-1
 636 1523 l 5,0,1
EndSplineSet
Validated: 19457
EndChar

StartChar: hungarumlaut
Encoding: 733 733 194
Width: 840
Flags: W
HStem: 1151 419
LayerCount: 2
Fore
SplineSet
232 1570 m 1,0,1
 242 1570 l 1,2,-1
 443 1401 l 1,3,4
 233 1353 233 1353 153 1151 c 1,5,-1
 143 1151 l 1,6,-1
 20 1254 l 1,7,8
 42 1437 42 1437 232 1570 c 1,0,1
609 1570 m 1,9,-1
 619 1570 l 1,10,-1
 820 1401 l 1,11,12
 610 1353 610 1353 530 1151 c 1,13,-1
 520 1151 l 1,14,-1
 397 1254 l 1,15,16
 419 1437 419 1437 609 1570 c 1,9,-1
EndSplineSet
Validated: 19457
EndChar

StartChar: uni1E9E
Encoding: 7838 7838 195
Width: 1288
Flags: W
HStem: -40 21G<130 163.81 592 694> 1240 290<526.966 718.902>
VStem: 130 310<212 1182.39> 533 258<842.5 999.464> 939 319<406.698 600.333>
LayerCount: 2
Fore
SplineSet
130 -40 m 1,0,-1
 130 1043 l 2,1,2
 130 1112 130 1112 156 1156 c 0,3,4
 177 1192 177 1192 225 1232 c 2,5,-1
 525 1484 l 2,6,7
 580 1530 580 1530 643 1530 c 0,8,9
 690 1530 690 1530 726 1522 c 0,10,11
 857 1493 857 1493 941 1406 c 0,12,13
 1027 1317 1027 1317 1060 1191 c 1,14,-1
 862 1025 l 2,15,16
 791 965 791 965 791 934 c 0,17,18
 791 906 791 906 858 906 c 0,19,20
 1021 906 1021 906 1137 808 c 0,21,22
 1258 703 1258 703 1258 537 c 0,23,24
 1258 432 1258 432 1162 351 c 2,25,-1
 775 26 l 2,26,27
 720 -20 720 -20 668 -20 c 0,28,29
 516 -20 516 -20 398 71 c 1,30,-1
 663 294 l 1,31,-1
 673 294 l 1,32,33
 689 280 689 280 720 280 c 0,34,35
 801 280 801 280 871 352 c 0,36,37
 939 423 939 423 939 504 c 0,38,39
 939 560 939 560 898 600 c 0,40,41
 854 642 854 642 786 642 c 0,42,43
 672 642 672 642 597 723 c 0,44,45
 533 792 533 792 533 893 c 0,46,47
 533 1012 533 1012 662 1121 c 2,48,-1
 732 1180 l 1,49,50
 687 1240 687 1240 607 1240 c 0,51,52
 538 1240 538 1240 490 1191 c 0,53,54
 440 1140 440 1140 440 1047 c 2,55,-1
 440 212 l 1,56,-1
 140 -40 l 1,57,-1
 130 -40 l 1,0,-1
EndSplineSet
Validated: 1
EndChar

StartChar: uni203D
Encoding: 8253 8253 196
Width: 1270
Flags: W
HStem: -20 21G<605.5 628.5> 1081 20G<714.111 748> 1230 300<554.965 778.725>
VStem: 80 320<819.01 1116.18> 449 367<88.9062 242.492> 870 320<881.111 1141.99>
LayerCount: 2
Fore
SplineSet
615 -20 m 0,0,1
 596 -20 596 -20 572 -11 c 0,2,3
 525 7 525 7 492 50 c 0,4,5
 449 106 449 106 449 164 c 0,6,7
 449 207 449 207 483 235 c 2,8,-1
 599 332 l 2,9,10
 624 353 624 353 651 353 c 0,11,12
 670 353 670 353 693 344 c 0,13,14
 742 325 742 325 773 283 c 0,15,16
 816 227 816 227 816 169 c 0,17,18
 816 126 816 126 782 98 c 2,19,-1
 667 1 l 2,20,21
 642 -20 642 -20 615 -20 c 0,0,1
660 1530 m 0,22,23
 904 1530 904 1530 1065 1351 c 0,24,25
 1190 1211 1190 1211 1190 999 c 0,26,27
 1190 956 1190 956 1168 914 c 0,28,29
 1148 876 1148 876 1095 832 c 2,30,-1
 505 337 l 1,31,-1
 495 337 l 1,32,33
 495 466 495 466 551 571 c 1,34,-1
 523 921 l 1,35,-1
 738 1101 l 1,36,-1
 748 1101 l 1,37,-1
 723 765 l 1,38,-1
 776 809 l 2,39,40
 870 888 870 888 870 999 c 0,41,42
 870 1104 870 1104 802.5 1167 c 128,-1,43
 735 1230 735 1230 636 1230 c 128,-1,44
 537 1230 537 1230 468.5 1169 c 128,-1,45
 400 1108 400 1108 400 999 c 0,46,47
 400 906 400 906 451 847 c 1,48,-1
 220 652 l 1,49,-1
 210 652 l 1,50,51
 80 795 80 795 80 999 c 0,52,53
 80 1043 80 1043 102 1084 c 0,54,55
 123 1122 123 1122 175 1166 c 2,56,-1
 553 1484 l 2,57,58
 608 1530 608 1530 660 1530 c 0,22,23
EndSplineSet
Validated: 1
EndChar

StartChar: afii61352
Encoding: 8470 8470 197
Width: 2056
Flags: W
HStem: -40 21G<130 163.846 940 973.846> -11 180<1423 1834> 204 181<1566.65 1688.02> 635 181<1567.98 1689.19> 1230 300<614.98 838.844> 1530 20G<416.154 450>
VStem: 130 320<220 1130.28> 940 320<220 1130.08> 1375 190<387.312 632.54> 1691 190<387.46 632.688>
LayerCount: 2
Fore
SplineSet
1423 169 m 1,0,-1
 1976 169 l 1,1,-1
 1976 159 l 1,2,-1
 1834 -11 l 1,3,-1
 1281 -11 l 1,4,-1
 1281 -1 l 1,5,-1
 1423 169 l 1,0,-1
1649 816 m 0,6,7
 1669 816 1669 816 1691 810 c 0,8,9
 1761 794 1761 794 1809 749 c 0,10,11
 1881 680 1881 680 1881 572 c 2,12,-1
 1881 459 l 2,13,14
 1881 399 1881 399 1825 352 c 2,15,-1
 1683 232 l 2,16,17
 1651 204 1651 204 1606 204 c 0,18,19
 1586 204 1586 204 1564 210 c 0,20,21
 1493 226 1493 226 1447 271 c 0,22,23
 1375 340 1375 340 1375 448 c 2,24,-1
 1375 561 l 2,25,26
 1375 621 1375 621 1431 668 c 2,27,-1
 1573 788 l 2,28,29
 1605 816 1605 816 1649 816 c 0,6,7
1627 635 m 0,30,31
 1567 634 1567 634 1565 572 c 2,32,-1
 1565 448 l 2,33,34
 1565 385 1565 385 1629 385 c 0,35,36
 1689 386 1689 386 1691 448 c 2,37,-1
 1691 572 l 2,38,39
 1691 635 1691 635 1627 635 c 0,30,31
130 -40 m 1,40,-1
 130 1290 l 1,41,-1
 440 1550 l 1,42,-1
 450 1550 l 1,43,-1
 450 1347 l 1,44,-1
 613 1484 l 2,45,46
 668 1530 668 1530 720 1530 c 0,47,48
 964 1530 964 1530 1125 1351 c 0,49,50
 1260 1201 1260 1201 1260 981 c 2,51,-1
 1260 220 l 1,52,-1
 950 -40 l 1,53,-1
 940 -40 l 1,54,-1
 940 981 l 2,55,56
 940 1095 940 1095 869 1162 c 0,57,58
 797 1230 797 1230 693 1230 c 0,59,60
 591 1230 591 1230 520 1160 c 0,61,62
 450 1091 450 1091 450 981 c 2,63,-1
 450 220 l 1,64,-1
 140 -40 l 1,65,-1
 130 -40 l 1,40,-1
EndSplineSet
Validated: 1
EndChar

StartChar: uni2117
Encoding: 8471 8471 198
Width: 1261
Flags: W
HStem: 386 73<444.363 808.202> 1453 77<446.855 814.866>
VStem: 80 74<768.815 1151.31> 380 200<708 734.299 857 1207> 764 202<951.271 1166.54> 1106 75<757.376 1158.43>
LayerCount: 2
Fore
SplineSet
580 1218 m 1,0,-1
 580 857 l 1,1,2
 764 937 764 937 764 1065 c 0,3,4
 762 1198 762 1198 580 1218 c 1,0,-1
697 1359 m 1,5,6
 805 1339 805 1339 874 1282 c 0,7,8
 966 1206 966 1206 966 1084 c 0,9,10
 966 905 966 905 784 797 c 24,11,12
 720 759 720 759 580 723 c 1,13,-1
 580 708 l 1,14,-1
 390 549 l 1,15,-1
 380 549 l 1,16,-1
 380 1207 l 1,17,-1
 570 1367 l 1,18,-1
 580 1367 l 1,19,-1
 580 1261 l 1,20,-1
 697 1359 l 1,5,6
631 1530 m 0,21,22
 873 1530 873 1530 1029 1357 c 0,23,24
 1181 1188 1181 1188 1181 953 c 0,25,26
 1181 701 1181 701 1020 549 c 0,27,28
 849 386 849 386 629 386 c 0,29,30
 406 386 406 386 241 549 c 0,31,32
 80 708 80 708 80 953 c 0,33,34
 80 1197 80 1197 238 1362 c 0,35,36
 399 1530 399 1530 631 1530 c 0,21,22
629 1453 m 0,37,38
 439 1453 439 1453 297 1312 c 0,39,40
 154 1170 154 1170 154 953 c 0,41,42
 154 760 154 760 294 605 c 0,43,44
 425 459 425 459 631 459 c 0,45,46
 822 459 822 459 967 605 c 0,47,48
 1106 745 1106 745 1106 953 c 0,49,50
 1106 1174 1106 1174 969 1309 c 0,51,52
 823 1453 823 1453 629 1453 c 0,37,38
EndSplineSet
Validated: 1
EndChar

StartChar: integral
Encoding: 8747 8747 199
Width: 1396
Flags: W
HStem: -430 280<270.109 471.669> 1250 280<924.331 1125.89>
VStem: 553 290<-103.794 1203.79>
LayerCount: 2
Fore
SplineSet
359 -430 m 0,0,1
 307 -430 307 -430 271 -422 c 0,2,3
 143 -393 143 -393 54 -310 c 0,4,5
 26 -284 26 -284 5 -254 c 1,6,-1
 223 -52 l 1,7,8
 242 -83 242 -83 272 -108 c 0,9,10
 321 -150 321 -150 391 -150 c 0,11,12
 463 -150 463 -150 506 -108 c 0,13,14
 553 -64 553 -64 553 17 c 2,15,-1
 553 1071 l 2,16,17
 553 1135 553 1135 578 1177 c 0,18,19
 601 1215 601 1215 649 1255 c 2,20,-1
 924 1485 l 2,21,22
 978 1530 978 1530 1037 1530 c 0,23,24
 1089 1530 1089 1530 1125 1522 c 0,25,26
 1253 1493 1253 1493 1342 1410 c 0,27,28
 1370 1384 1370 1384 1391 1354 c 1,29,-1
 1173 1152 l 1,30,31
 1154 1183 1154 1183 1124 1208 c 0,32,33
 1075 1250 1075 1250 1005 1250 c 0,34,35
 933 1250 933 1250 890 1208 c 0,36,37
 843 1164 843 1164 843 1083 c 2,38,-1
 843 29 l 2,39,40
 843 -35 843 -35 818 -77 c 0,41,42
 795 -115 795 -115 747 -155 c 2,43,-1
 472 -385 l 2,44,45
 418 -430 418 -430 359 -430 c 0,0,1
EndSplineSet
Validated: 1
EndChar

StartChar: Tbar
Encoding: 358 358 200
Width: 1186
Flags: W
HStem: -40 21G<433 466.846> 559 150<324 433 753 862> 1300 210<172 433 753 1014>
VStem: 433 320<220 559 709 1300>
LayerCount: 2
Fore
SplineSet
433 -40 m 1,0,-1
 433 559 l 1,1,-1
 207 559 l 1,2,-1
 207 569 l 1,3,-1
 324 709 l 1,4,-1
 433 709 l 1,5,-1
 433 1300 l 1,6,-1
 5 1300 l 1,7,-1
 5 1310 l 1,8,-1
 172 1510 l 1,9,-1
 1181 1510 l 1,10,-1
 1181 1500 l 1,11,-1
 1014 1300 l 1,12,-1
 753 1300 l 1,13,-1
 753 709 l 1,14,-1
 979 709 l 1,15,-1
 979 699 l 1,16,-1
 862 559 l 1,17,-1
 753 559 l 1,18,-1
 753 220 l 1,19,-1
 443 -40 l 1,20,-1
 433 -40 l 1,0,-1
EndSplineSet
Validated: 1
EndChar

StartChar: dcroat
Encoding: 273 273 201
Width: 1145
Flags: W
HStem: -40 21G<700 733.83> -20 280<419.272 618.208> 840 280<451.331 651.599> 1220 150<495 700 990 1023> 1530 20G<956.222 990>
VStem: 70 300<308.27 784.893> 700 290<304.786 793.883 1065 1220>
LayerCount: 2
Fore
SplineSet
710 -40 m 1,0,-1
 700 -40 l 1,1,-1
 700 93 l 1,2,-1
 619 25 l 2,3,4
 565 -20 565 -20 506 -20 c 0,5,6
 454 -20 454 -20 418 -12 c 0,7,8
 286 18 286 18 201 100 c 0,9,10
 70 225 70 225 70 427 c 2,11,-1
 70 652 l 2,12,13
 70 716 70 716 95 758 c 0,14,15
 117 795 117 795 166 836 c 2,16,-1
 451 1075 l 2,17,18
 505 1120 505 1120 561 1120 c 0,19,20
 643 1120 643 1120 700 1065 c 1,21,-1
 700 1220 l 1,22,-1
 378 1220 l 1,23,-1
 378 1230 l 1,24,-1
 495 1370 l 1,25,-1
 766 1370 l 1,26,-1
 980 1550 l 1,27,-1
 990 1550 l 1,28,-1
 990 1370 l 1,29,-1
 1140 1370 l 1,30,-1
 1140 1360 l 1,31,-1
 1023 1220 l 1,32,-1
 990 1220 l 1,33,-1
 990 195 l 1,34,-1
 710 -40 l 1,0,-1
538 260 m 128,-1,36
 608 260 608 260 653 302 c 0,37,38
 700 346 700 346 700 427 c 2,39,-1
 700 673 l 2,40,41
 700 755 700 755 651 798 c 0,42,43
 602 840 602 840 532 840 c 0,44,45
 460 840 460 840 417 798 c 0,46,47
 370 754 370 754 370 673 c 2,48,-1
 370 427 l 2,49,50
 370 343 370 343 419 302 c 0,51,35
 468 260 468 260 538 260 c 128,-1,36
EndSplineSet
Validated: 1
EndChar

StartChar: hbar
Encoding: 295 295 202
Width: 1160
Flags: W
HStem: -40 21G<150 183.83 770 803.868> 840 280<521.331 720.728> 1220 150<117 150 440 645> 1530 20G<406.222 440>
VStem: 150 290<195 795.214 1007 1220> 770 300<203 791.73>
LayerCount: 2
Fore
SplineSet
150 -40 m 1,0,-1
 150 1220 l 1,1,-1
 0 1220 l 1,2,-1
 0 1230 l 1,3,-1
 117 1370 l 1,4,-1
 216 1370 l 1,5,-1
 430 1550 l 1,6,-1
 440 1550 l 1,7,-1
 440 1370 l 1,8,-1
 762 1370 l 1,9,-1
 762 1360 l 1,10,-1
 645 1220 l 1,11,-1
 440 1220 l 1,12,-1
 440 1007 l 1,13,-1
 521 1075 l 2,14,15
 575 1120 575 1120 634 1120 c 0,16,17
 686 1120 686 1120 722 1112 c 0,18,19
 853 1082 853 1082 939 1000 c 0,20,21
 1070 875 1070 875 1070 673 c 2,22,-1
 1070 203 l 1,23,-1
 780 -40 l 1,24,-1
 770 -40 l 1,25,-1
 770 673 l 2,26,27
 770 755 770 755 721 798 c 0,28,29
 672 840 672 840 602 840 c 0,30,31
 530 840 530 840 487 798 c 0,32,33
 440 754 440 754 440 673 c 2,34,-1
 440 195 l 1,35,-1
 160 -40 l 1,36,-1
 150 -40 l 1,0,-1
EndSplineSet
Validated: 19457
EndChar

StartChar: tbar
Encoding: 359 359 203
Width: 832
Flags: W
HStem: -40 21G<271 304.83> 559 150<147 271 561 685> 920 180<147 271 561 685> 1530 20G<527.17 561>
VStem: 271 290<195 559 709 920 1100 1315>
LayerCount: 2
Fore
SplineSet
271 -40 m 1,0,-1
 271 559 l 1,1,-1
 30 559 l 1,2,-1
 30 569 l 1,3,-1
 147 709 l 1,4,-1
 271 709 l 1,5,-1
 271 920 l 1,6,-1
 5 920 l 1,7,-1
 5 930 l 1,8,-1
 147 1100 l 1,9,-1
 271 1100 l 1,10,-1
 271 1315 l 1,11,-1
 551 1550 l 1,12,-1
 561 1550 l 1,13,-1
 561 1100 l 1,14,-1
 827 1100 l 1,15,-1
 827 1090 l 1,16,-1
 685 920 l 1,17,-1
 561 920 l 1,18,-1
 561 709 l 1,19,-1
 802 709 l 1,20,-1
 802 699 l 1,21,-1
 685 559 l 1,22,-1
 561 559 l 1,23,-1
 561 195 l 1,24,-1
 281 -40 l 1,25,-1
 271 -40 l 1,0,-1
EndSplineSet
Validated: 19457
EndChar

StartChar: endash
Encoding: 8211 8211 204
Width: 1194
Flags: W
HStem: 630 250<281 913>
LayerCount: 2
Fore
SplineSet
281 880 m 1,0,-1
 1114 880 l 1,1,-1
 1114 870 l 1,2,-1
 913 630 l 1,3,-1
 80 630 l 1,4,-1
 80 640 l 1,5,-1
 281 880 l 1,0,-1
EndSplineSet
Validated: 1
EndChar

StartChar: afii00208
Encoding: 8213 8213 205
Width: 1494
Flags: W
HStem: 630 250<281 1213>
LayerCount: 2
Fore
SplineSet
281 880 m 1,0,-1
 1414 880 l 1,1,-1
 1414 870 l 1,2,-1
 1213 630 l 1,3,-1
 80 630 l 1,4,-1
 80 640 l 1,5,-1
 281 880 l 1,0,-1
EndSplineSet
Validated: 1
EndChar

StartChar: fraction
Encoding: 8260 8260 206
Width: 1370
Flags: W
HStem: -40 21G<133.133 176.783> 1530 20G<1195.12 1239.25>
DStem2: 10 126 160 -40 0.642815 0.766021<0 1836.05>
LayerCount: 2
Fore
SplineSet
160 -40 m 5,0,-1
 150 -40 l 5,1,-1
 10 126 l 5,2,-1
 1212 1550 l 5,3,-1
 1222 1550 l 5,4,-1
 1360 1390 l 5,5,-1
 160 -40 l 5,0,-1
EndSplineSet
Validated: 1
EndChar

StartChar: minus
Encoding: 8722 8722 207
Width: 1194
Flags: W
HStem: 630 250<281 913>
LayerCount: 2
Fore
SplineSet
281 880 m 1,0,-1
 1114 880 l 1,1,-1
 1114 870 l 1,2,-1
 913 630 l 1,3,-1
 80 630 l 1,4,-1
 80 640 l 1,5,-1
 281 880 l 1,0,-1
EndSplineSet
Validated: 1
EndChar

StartChar: uni2215
Encoding: 8725 8725 208
Width: 1370
Flags: W
HStem: -40 21G<133.133 176.783> 1530 20G<1195.12 1239.25>
DStem2: 10 126 160 -40 0.642815 0.766021<0 1836.05>
LayerCount: 2
Fore
SplineSet
160 -40 m 5,0,-1
 150 -40 l 5,1,-1
 10 126 l 5,2,-1
 1212 1550 l 5,3,-1
 1222 1550 l 5,4,-1
 1360 1390 l 5,5,-1
 160 -40 l 5,0,-1
EndSplineSet
Validated: 1
EndChar

StartChar: Dcroat
Encoding: 272 272 209
Width: 1338
Flags: W
HStem: -40 21G<155 399.5> 579 150<122 155 475 660> 1530 20G<441.154 475 738.186 864.5>
VStem: 155 320<232 579 729 1290> 981 327<617.324 1030.24>
LayerCount: 2
Fore
SplineSet
155 -40 m 1,0,-1
 155 579 l 1,1,-1
 5 579 l 1,2,-1
 5 589 l 1,3,-1
 122 729 l 1,4,-1
 155 729 l 1,5,-1
 155 1290 l 1,6,-1
 465 1550 l 1,7,-1
 475 1550 l 1,8,-1
 475 729 l 1,9,-1
 777 729 l 1,10,-1
 777 719 l 1,11,-1
 660 579 l 1,12,-1
 475 579 l 1,13,-1
 475 232 l 1,14,15
 643 299 643 299 773 404 c 0,16,17
 981 573 981 573 981 838 c 0,18,19
 981 1039 981 1039 822 1169 c 0,20,21
 697 1271 697 1271 481 1294 c 1,22,-1
 762 1530 l 1,23,24
 967 1490 967 1490 1119 1345 c 0,25,26
 1308 1160 1308 1160 1308 878 c 0,27,28
 1308 471 1308 471 937 224 c 0,29,30
 634 22 634 22 165 -40 c 1,31,-1
 155 -40 l 1,0,-1
EndSplineSet
Validated: 19457
EndChar

StartChar: Agrave
Encoding: 192 192 210
Width: 1455
Flags: W
HStem: -40 21G<105 315 1095.5 1219.81> 480 210<172 195 515 1005> 1230 300<679.497 903.469>
VStem: 195 320<142.855 480 690 1108.87> 1005 320<197.825 480 690 1130.05>
LayerCount: 2
Fore
SplineSet
709 1980 m 1,0,1
 899 1847 899 1847 921 1664 c 1,2,-1
 798 1561 l 1,3,-1
 788 1561 l 1,4,5
 708 1763 708 1763 498 1811 c 1,6,-1
 699 1980 l 1,7,-1
 709 1980 l 1,0,1
105 -40 m 1,8,9
 195 125 195 125 195 332 c 2,10,-1
 195 480 l 1,11,-1
 5 480 l 1,12,-1
 5 490 l 1,13,-1
 172 690 l 1,14,-1
 195 690 l 1,15,-1
 195 970 l 2,16,17
 195 1032 195 1032 217 1076 c 0,18,19
 235 1112 235 1112 290 1158 c 2,20,-1
 678 1484 l 2,21,22
 733 1530 733 1530 785 1530 c 0,23,24
 1027 1530 1027 1530 1190 1351 c 0,25,26
 1325 1203 1325 1203 1325 981 c 2,27,-1
 1325 288 l 2,28,29
 1325 192 1325 192 1427 174 c 1,30,-1
 1196 -20 l 1,31,-1
 1186 -20 l 1,32,33
 1005 44 1005 44 1005 254 c 2,34,-1
 1005 480 l 1,35,-1
 515 480 l 1,36,-1
 515 326 l 2,37,38
 515 0 515 0 115 -40 c 1,39,-1
 105 -40 l 1,8,9
1005 690 m 1,40,-1
 1005 980 l 2,41,42
 1005 1094 1005 1094 934 1162 c 0,43,44
 862 1230 862 1230 758 1230 c 128,-1,45
 654 1230 654 1230 585 1160 c 0,46,47
 515 1088 515 1088 515 980 c 2,48,-1
 515 690 l 1,49,-1
 1005 690 l 1,40,-1
EndSplineSet
Validated: 1
EndChar

StartChar: Aacute
Encoding: 193 193 211
Width: 1455
Flags: W
HStem: -40 21G<105 315 1095.5 1219.81> 480 210<172 195 515 1005> 1230 300<679.497 903.469>
VStem: 195 320<142.855 480 690 1108.87> 1005 320<197.825 480 690 1130.05>
LayerCount: 2
Fore
SplineSet
873 1980 m 1,0,1
 883 1980 l 1,2,-1
 1084 1811 l 1,3,4
 874 1763 874 1763 794 1561 c 1,5,-1
 784 1561 l 1,6,-1
 661 1664 l 1,7,8
 683 1847 683 1847 873 1980 c 1,0,1
105 -40 m 1,9,10
 195 125 195 125 195 332 c 2,11,-1
 195 480 l 1,12,-1
 5 480 l 1,13,-1
 5 490 l 1,14,-1
 172 690 l 1,15,-1
 195 690 l 1,16,-1
 195 970 l 2,17,18
 195 1032 195 1032 217 1076 c 0,19,20
 235 1112 235 1112 290 1158 c 2,21,-1
 678 1484 l 2,22,23
 733 1530 733 1530 785 1530 c 0,24,25
 1027 1530 1027 1530 1190 1351 c 0,26,27
 1325 1203 1325 1203 1325 981 c 2,28,-1
 1325 288 l 2,29,30
 1325 192 1325 192 1427 174 c 1,31,-1
 1196 -20 l 1,32,-1
 1186 -20 l 1,33,34
 1005 44 1005 44 1005 254 c 2,35,-1
 1005 480 l 1,36,-1
 515 480 l 1,37,-1
 515 326 l 2,38,39
 515 0 515 0 115 -40 c 1,40,-1
 105 -40 l 1,9,10
1005 690 m 1,41,-1
 1005 980 l 2,42,43
 1005 1094 1005 1094 934 1162 c 0,44,45
 862 1230 862 1230 758 1230 c 128,-1,46
 654 1230 654 1230 585 1160 c 0,47,48
 515 1088 515 1088 515 980 c 2,49,-1
 515 690 l 1,50,-1
 1005 690 l 1,41,-1
EndSplineSet
Validated: 1
EndChar

StartChar: Acircumflex
Encoding: 194 194 212
Width: 1455
Flags: W
HStem: -40 21G<105 315 1095.5 1219.81> 480 210<172 195 515 1005> 1230 300<679.497 903.469>
VStem: 195 320<142.855 480 690 1108.87> 1005 320<197.825 480 690 1130.05>
LayerCount: 2
Fore
SplineSet
739 1980 m 1,0,-1
 749 1980 l 1,1,-1
 872 1877 l 1,2,3
 945 1741 945 1741 1088 1705 c 1,4,-1
 917 1561 l 1,5,-1
 907 1561 l 1,6,7
 835 1621 835 1621 783 1730 c 1,8,9
 735 1624 735 1624 660 1561 c 1,10,-1
 650 1561 l 1,11,-1
 479 1704 l 1,12,13
 647 1750 647 1750 739 1980 c 1,0,-1
105 -40 m 1,14,15
 195 125 195 125 195 332 c 2,16,-1
 195 480 l 1,17,-1
 5 480 l 1,18,-1
 5 490 l 1,19,-1
 172 690 l 1,20,-1
 195 690 l 1,21,-1
 195 970 l 2,22,23
 195 1032 195 1032 217 1076 c 0,24,25
 235 1112 235 1112 290 1158 c 2,26,-1
 678 1484 l 2,27,28
 733 1530 733 1530 785 1530 c 0,29,30
 1027 1530 1027 1530 1190 1351 c 0,31,32
 1325 1203 1325 1203 1325 981 c 2,33,-1
 1325 288 l 2,34,35
 1325 192 1325 192 1427 174 c 1,36,-1
 1196 -20 l 1,37,-1
 1186 -20 l 1,38,39
 1005 44 1005 44 1005 254 c 2,40,-1
 1005 480 l 1,41,-1
 515 480 l 1,42,-1
 515 326 l 2,43,44
 515 0 515 0 115 -40 c 1,45,-1
 105 -40 l 1,14,15
1005 690 m 1,46,-1
 1005 980 l 2,47,48
 1005 1094 1005 1094 934 1162 c 0,49,50
 862 1230 862 1230 758 1230 c 128,-1,51
 654 1230 654 1230 585 1160 c 0,52,53
 515 1088 515 1088 515 980 c 2,54,-1
 515 690 l 1,55,-1
 1005 690 l 1,46,-1
EndSplineSet
Validated: 1
EndChar

StartChar: Atilde
Encoding: 195 195 213
Width: 1455
Flags: W
HStem: -40 21G<105 315 1095.5 1219.81> 480 210<172 195 515 1005> 1230 300<679.497 903.469> 1630 109<902.633 979.779> 1822 108<588.237 661.684>
VStem: 195 320<142.855 480 690 1108.87> 454 134<1685.87 1820.97> 980 133<1739.38 1873.79> 1005 320<197.825 480 690 1130.05>
LayerCount: 2
Fore
SplineSet
1070 1945 m 1,0,1
 1113 1884 1113 1884 1113 1806 c 24,2,3
 1113 1777 1113 1777 1093 1759 c 2,4,-1
 961 1647 l 2,5,6
 941 1630 941 1630 916 1630 c 0,7,8
 774 1630 774 1630 706 1723 c 24,9,10
 635 1821 635 1821 609 1822 c 0,11,12
 589 1822 589 1822 588 1802 c 0,13,14
 588 1770 588 1770 635 1723 c 1,15,-1
 507 1615 l 1,16,-1
 498 1615 l 1,17,18
 454 1674 454 1674 454 1754 c 24,19,20
 454 1783 454 1783 475 1801 c 2,21,-1
 607 1914 l 2,22,23
 626 1930 626 1930 652 1930 c 0,24,25
 795 1930 795 1930 861 1837 c 0,26,27
 931 1739 931 1739 959 1739 c 0,28,29
 980 1739 980 1739 980 1759 c 0,30,31
 980 1791 980 1791 933 1837 c 1,32,-1
 1060 1945 l 1,33,-1
 1070 1945 l 1,0,1
105 -40 m 1,34,35
 195 125 195 125 195 332 c 2,36,-1
 195 480 l 1,37,-1
 5 480 l 1,38,-1
 5 490 l 1,39,-1
 172 690 l 1,40,-1
 195 690 l 1,41,-1
 195 970 l 2,42,43
 195 1032 195 1032 217 1076 c 0,44,45
 235 1112 235 1112 290 1158 c 2,46,-1
 678 1484 l 2,47,48
 733 1530 733 1530 785 1530 c 0,49,50
 1027 1530 1027 1530 1190 1351 c 0,51,52
 1325 1203 1325 1203 1325 981 c 2,53,-1
 1325 288 l 2,54,55
 1325 192 1325 192 1427 174 c 1,56,-1
 1196 -20 l 1,57,-1
 1186 -20 l 1,58,59
 1005 44 1005 44 1005 254 c 2,60,-1
 1005 480 l 1,61,-1
 515 480 l 1,62,-1
 515 326 l 2,63,64
 515 0 515 0 115 -40 c 1,65,-1
 105 -40 l 1,34,35
1005 690 m 1,66,-1
 1005 980 l 2,67,68
 1005 1094 1005 1094 934 1162 c 0,69,70
 862 1230 862 1230 758 1230 c 128,-1,71
 654 1230 654 1230 585 1160 c 0,72,73
 515 1088 515 1088 515 980 c 2,74,-1
 515 690 l 1,75,-1
 1005 690 l 1,66,-1
EndSplineSet
Validated: 1
EndChar

StartChar: Adieresis
Encoding: 196 196 214
Width: 1455
Flags: W
HStem: -40 21G<105 315 1095.5 1219.81> 480 210<172 195 515 1005> 1230 300<679.497 903.469> 1610 336<538.511 660.777 906.511 1028.78>
VStem: 195 320<142.855 480 690 1108.87> 434 331<1705.12 1850.88> 802 331<1705.12 1850.88> 1005 320<197.825 480 690 1130.05>
LayerCount: 2
Fore
SplineSet
984 1946 m 0,0,1
 1004 1946 1004 1946 1022 1938 c 0,2,3
 1066 1921 1066 1921 1094 1883 c 0,4,5
 1133 1833 1133 1833 1133 1780 c 0,6,7
 1133 1740 1133 1740 1102 1716 c 2,8,-1
 998 1629 l 2,9,10
 976 1610 976 1610 952 1610 c 0,11,12
 932 1610 932 1610 913 1618 c 0,13,14
 871 1634 871 1634 841 1673 c 0,15,16
 802 1723 802 1723 802 1776 c 0,17,18
 802 1815 802 1815 833 1840 c 2,19,-1
 937 1927 l 2,20,21
 959 1946 959 1946 984 1946 c 0,0,1
616 1946 m 0,22,23
 636 1946 636 1946 654 1938 c 0,24,25
 698 1921 698 1921 726 1883 c 0,26,27
 765 1833 765 1833 765 1780 c 0,28,29
 765 1740 765 1740 734 1716 c 2,30,-1
 630 1629 l 2,31,32
 608 1610 608 1610 584 1610 c 0,33,34
 564 1610 564 1610 545 1618 c 0,35,36
 503 1634 503 1634 473 1673 c 0,37,38
 434 1723 434 1723 434 1776 c 0,39,40
 434 1815 434 1815 465 1840 c 2,41,-1
 569 1927 l 2,42,43
 591 1946 591 1946 616 1946 c 0,22,23
105 -40 m 1,44,45
 195 125 195 125 195 332 c 2,46,-1
 195 480 l 1,47,-1
 5 480 l 1,48,-1
 5 490 l 1,49,-1
 172 690 l 1,50,-1
 195 690 l 1,51,-1
 195 970 l 2,52,53
 195 1032 195 1032 217 1076 c 0,54,55
 235 1112 235 1112 290 1158 c 2,56,-1
 678 1484 l 2,57,58
 733 1530 733 1530 785 1530 c 0,59,60
 1027 1530 1027 1530 1190 1351 c 0,61,62
 1325 1203 1325 1203 1325 981 c 2,63,-1
 1325 288 l 2,64,65
 1325 192 1325 192 1427 174 c 1,66,-1
 1196 -20 l 1,67,-1
 1186 -20 l 1,68,69
 1005 44 1005 44 1005 254 c 2,70,-1
 1005 480 l 1,71,-1
 515 480 l 1,72,-1
 515 326 l 2,73,74
 515 0 515 0 115 -40 c 1,75,-1
 105 -40 l 1,44,45
1005 690 m 1,76,-1
 1005 980 l 2,77,78
 1005 1094 1005 1094 934 1162 c 0,79,80
 862 1230 862 1230 758 1230 c 128,-1,81
 654 1230 654 1230 585 1160 c 0,82,83
 515 1088 515 1088 515 980 c 2,84,-1
 515 690 l 1,85,-1
 1005 690 l 1,76,-1
EndSplineSet
Validated: 1
EndChar

StartChar: Aring
Encoding: 197 197 215
Width: 1455
Flags: W
HStem: -40 21G<105 315 1095.5 1219.81> 480 210<172 195 515 1005> 1230 300<679.497 903.469> 1570 114<730.552 859.53> 1854 114<736.001 861.298>
VStem: 195 320<142.855 480 690 1108.87> 590 125<1699.2 1835.98> 879 126<1702.01 1837.21> 1005 320<197.825 480 690 1130.05>
LayerCount: 2
Fore
SplineSet
810 1968 m 0,0,1
 833 1968 833 1968 850 1964 c 0,2,3
 908 1951 908 1951 945 1914 c 0,4,5
 1005 1857 1005 1857 1005 1775 c 24,6,7
 1005 1750 1005 1750 994 1731 c 0,8,9
 985 1715 985 1715 962 1697 c 2,10,-1
 835 1590 l 2,11,12
 812 1570 812 1570 785 1570 c 0,13,14
 762 1570 762 1570 746 1574 c 0,15,16
 687 1587 687 1587 649 1623 c 0,17,18
 590 1680 590 1680 590 1764 c 0,19,20
 590 1787 590 1787 601 1807 c 0,21,22
 611 1824 611 1824 633 1841 c 2,23,-1
 760 1947 l 2,24,25
 784 1968 784 1968 810 1968 c 0,0,1
796 1854 m 0,26,27
 764 1854 764 1854 739 1830 c 0,28,29
 715 1808 715 1808 715 1769 c 0,30,31
 715 1729 715 1729 737.5 1706.5 c 128,-1,32
 760 1684 760 1684 797 1684 c 128,-1,33
 834 1684 834 1684 857 1708 c 0,34,35
 879 1730 879 1730 879 1768.5 c 128,-1,36
 879 1807 879 1807 854 1831 c 0,37,38
 831 1854 831 1854 796 1854 c 0,26,27
105 -40 m 1,39,40
 195 125 195 125 195 332 c 2,41,-1
 195 480 l 1,42,-1
 5 480 l 1,43,-1
 5 490 l 1,44,-1
 172 690 l 1,45,-1
 195 690 l 1,46,-1
 195 970 l 2,47,48
 195 1032 195 1032 217 1076 c 0,49,50
 235 1112 235 1112 290 1158 c 2,51,-1
 678 1484 l 2,52,53
 733 1530 733 1530 785 1530 c 0,54,55
 1027 1530 1027 1530 1190 1351 c 0,56,57
 1325 1203 1325 1203 1325 981 c 2,58,-1
 1325 288 l 2,59,60
 1325 192 1325 192 1427 174 c 1,61,-1
 1196 -20 l 1,62,-1
 1186 -20 l 1,63,64
 1005 44 1005 44 1005 254 c 2,65,-1
 1005 480 l 1,66,-1
 515 480 l 1,67,-1
 515 326 l 2,68,69
 515 0 515 0 115 -40 c 1,70,-1
 105 -40 l 1,39,40
1005 690 m 1,71,-1
 1005 980 l 2,72,73
 1005 1094 1005 1094 934 1162 c 0,74,75
 862 1230 862 1230 758 1230 c 128,-1,76
 654 1230 654 1230 585 1160 c 0,77,78
 515 1088 515 1088 515 980 c 2,79,-1
 515 690 l 1,80,-1
 1005 690 l 1,71,-1
EndSplineSet
Validated: 1
EndChar

StartChar: Amacron
Encoding: 256 256 216
Width: 1455
Flags: W
HStem: -40 21G<105 315 1095.5 1219.81> 480 210<172 195 515 1005> 1230 300<679.497 903.469> 1693 180<592 1003>
VStem: 195 320<142.855 480 690 1108.87> 1005 320<197.825 480 690 1130.05>
LayerCount: 2
Fore
SplineSet
592 1873 m 1,0,-1
 1145 1873 l 1,1,-1
 1145 1863 l 1,2,-1
 1003 1693 l 1,3,-1
 450 1693 l 1,4,-1
 450 1703 l 1,5,-1
 592 1873 l 1,0,-1
105 -40 m 1,6,7
 195 125 195 125 195 332 c 2,8,-1
 195 480 l 1,9,-1
 5 480 l 1,10,-1
 5 490 l 1,11,-1
 172 690 l 1,12,-1
 195 690 l 1,13,-1
 195 970 l 2,14,15
 195 1032 195 1032 217 1076 c 0,16,17
 235 1112 235 1112 290 1158 c 2,18,-1
 678 1484 l 2,19,20
 733 1530 733 1530 785 1530 c 0,21,22
 1027 1530 1027 1530 1190 1351 c 0,23,24
 1325 1203 1325 1203 1325 981 c 2,25,-1
 1325 288 l 2,26,27
 1325 192 1325 192 1427 174 c 1,28,-1
 1196 -20 l 1,29,-1
 1186 -20 l 1,30,31
 1005 44 1005 44 1005 254 c 2,32,-1
 1005 480 l 1,33,-1
 515 480 l 1,34,-1
 515 326 l 2,35,36
 515 0 515 0 115 -40 c 1,37,-1
 105 -40 l 1,6,7
1005 690 m 1,38,-1
 1005 980 l 2,39,40
 1005 1094 1005 1094 934 1162 c 0,41,42
 862 1230 862 1230 758 1230 c 128,-1,43
 654 1230 654 1230 585 1160 c 0,44,45
 515 1088 515 1088 515 980 c 2,46,-1
 515 690 l 1,47,-1
 1005 690 l 1,38,-1
EndSplineSet
Validated: 1
EndChar

StartChar: Abreve
Encoding: 258 258 217
Width: 1455
Flags: W
HStem: -40 21G<105 315 1095.5 1219.81> 480 210<172 195 515 1005> 1230 300<679.497 903.469> 1617 162<714.502 877.017>
VStem: 195 320<142.855 480 690 1108.87> 511 177<1812.97 1893> 921 178<1813.97 1893> 1005 320<197.825 480 690 1130.05>
LayerCount: 2
Fore
SplineSet
511 1893 m 1,0,-1
 688 1893 l 1,1,2
 688 1843 688 1843 719 1812 c 0,3,4
 752 1779 752 1779 804 1779 c 0,5,6
 857 1779 857 1779 890 1813 c 0,7,8
 921 1844 921 1844 921 1893 c 1,9,-1
 1099 1893 l 1,10,11
 1099 1866 1099 1866 1087 1846 c 0,12,13
 1073 1825 1073 1825 1040 1797 c 2,14,-1
 859 1646 l 2,15,16
 824 1617 824 1617 788 1617 c 0,17,18
 755 1617 755 1617 732 1622 c 0,19,20
 648 1640 648 1640 594 1693 c 0,21,22
 511 1774 511 1774 511 1893 c 1,0,-1
105 -40 m 1,23,24
 195 125 195 125 195 332 c 2,25,-1
 195 480 l 1,26,-1
 5 480 l 1,27,-1
 5 490 l 1,28,-1
 172 690 l 1,29,-1
 195 690 l 1,30,-1
 195 970 l 2,31,32
 195 1032 195 1032 217 1076 c 0,33,34
 235 1112 235 1112 290 1158 c 2,35,-1
 678 1484 l 2,36,37
 733 1530 733 1530 785 1530 c 0,38,39
 1027 1530 1027 1530 1190 1351 c 0,40,41
 1325 1203 1325 1203 1325 981 c 2,42,-1
 1325 288 l 2,43,44
 1325 192 1325 192 1427 174 c 1,45,-1
 1196 -20 l 1,46,-1
 1186 -20 l 1,47,48
 1005 44 1005 44 1005 254 c 2,49,-1
 1005 480 l 1,50,-1
 515 480 l 1,51,-1
 515 326 l 2,52,53
 515 0 515 0 115 -40 c 1,54,-1
 105 -40 l 1,23,24
1005 690 m 1,55,-1
 1005 980 l 2,56,57
 1005 1094 1005 1094 934 1162 c 0,58,59
 862 1230 862 1230 758 1230 c 128,-1,60
 654 1230 654 1230 585 1160 c 0,61,62
 515 1088 515 1088 515 980 c 2,63,-1
 515 690 l 1,64,-1
 1005 690 l 1,55,-1
EndSplineSet
Validated: 1
EndChar

